Andika-Bold.ufo
<glyph name="DigitTwo" format="2">
  <advance width="1240"/>
  <unicode hex="0032"/>
  <anchor x="625" y="-100" name="L"/>
  <anchor x="625" y="1530" name="U"/>
  <outline>
    <contour>
      <point x="1113" y="260" type="line"/>
      <point x="1033" y="246"/>
      <point x="965" y="245"/>
      <point x="768" y="245" type="curve" smooth="yes"/>
      <point x="503" y="245" type="line"/>
      <point x="722" y="422"/>
      <point x="1069" y="739"/>
      <point x="1069" y="1065" type="curve" smooth="yes"/>
      <point x="1069" y="1323"/>
      <point x="873" y="1485"/>
      <point x="583" y="1485" type="curve" smooth="yes"/>
      <point x="414" y="1485"/>
      <point x="219" y="1402"/>
      <point x="128" y="1290" type="curve"/>
      <point x="193" y="1050" type="line"/>
      <point x="282" y="1158"/>
      <point x="435" y="1235"/>
      <point x="558" y="1235" type="curve" smooth="yes"/>
      <point x="711" y="1235"/>
      <point x="781" y="1133"/>
      <point x="781" y="1015" type="curve" smooth="yes"/>
      <point x="781" y="758"/>
      <point x="404" y="415"/>
      <point x="133" y="220" type="curve"/>
      <point x="133" y="0" type="line"/>
      <point x="1113" y="0" type="line"/>
    </contour>
  </outline>
</glyph>
<glyph name="DigitFive" format="2">
  <advance width="1240"/>
  <unicode hex="0035"/>
  <anchor x="625" y="-100" name="L"/>
  <anchor x="625" y="1530" name="U"/>
  <outline>
    <contour>
      <point x="195" y="645" type="line"/>
      <point x="319" y="693"/>
      <point x="424" y="710"/>
      <point x="530" y="710" type="curve" smooth="yes"/>
      <point x="690" y="710"/>
      <point x="830" y="632"/>
      <point x="830" y="470" type="curve" smooth="yes"/>
      <point x="830" y="318"/>
      <point x="710" y="215"/>
      <point x="550" y="215" type="curve" smooth="yes"/>
      <point x="410" y="215"/>
      <point x="294" y="252"/>
      <point x="160" y="360" type="curve"/>
      <point x="120" y="80" type="line"/>
      <point x="245" y="2"/>
      <point x="385" y="-25"/>
      <point x="540" y="-25" type="curve" smooth="yes"/>
      <point x="853" y="-25"/>
      <point x="1110" y="163"/>
      <point x="1110" y="475" type="curve" smooth="yes"/>
      <point x="1110" y="752"/>
      <point x="902" y="930"/>
      <point x="625" y="930" type="curve" smooth="yes"/>
      <point x="563" y="930"/>
      <point x="488" y="911"/>
      <point x="455" y="895" type="curve"/>
      <point x="455" y="1215" type="line"/>
      <point x="785" y="1215" type="line" smooth="yes"/>
      <point x="869" y="1215"/>
      <point x="975" y="1211"/>
      <point x="1050" y="1195" type="curve"/>
      <point x="1050" y="1460" type="line"/>
      <point x="195" y="1460" type="line"/>
    </contour>
  </outline>
</glyph>
<glyph name="DigitSix" format="2">
  <advance width="1240"/>
  <unicode hex="0036"/>
  <anchor x="625" y="-100" name="L"/>
  <anchor x="625" y="1530" name="U"/>
  <outline>
    <contour>
      <point x="1083" y="1395" type="line"/>
      <point x="979" y="1465"/>
      <point x="883" y="1485"/>
      <point x="745" y="1485" type="curve" smooth="yes"/>
      <point x="270" y="1485"/>
      <point x="100" y="1069"/>
      <point x="100" y="680" type="curve" smooth="yes"/>
      <point x="100" y="223"/>
      <point x="307" y="-25"/>
      <point x="662" y="-25" type="curve" smooth="yes"/>
      <point x="965" y="-25"/>
      <point x="1165" y="179"/>
      <point x="1165" y="470" type="curve" smooth="yes"/>
      <point x="1165" y="729"/>
      <point x="973" y="925"/>
      <point x="685" y="925" type="curve" smooth="yes"/>
      <point x="494" y="925"/>
      <point x="348" y="810"/>
      <point x="235" y="655" type="curve"/>
      <point x="300" y="540" type="line"/>
      <point x="382" y="643"/>
      <point x="510" y="710"/>
      <point x="665" y="710" type="curve" smooth="yes"/>
      <point x="824" y="710"/>
      <point x="910" y="601"/>
      <point x="910" y="455" type="curve" smooth="yes"/>
      <point x="910" y="329"/>
      <point x="813" y="210"/>
      <point x="666" y="210" type="curve" smooth="yes"/>
      <point x="484" y="210"/>
      <point x="365" y="386"/>
      <point x="365" y="645" type="curve" smooth="yes"/>
      <point x="365" y="1132"/>
      <point x="538" y="1250"/>
      <point x="735" y="1250" type="curve" smooth="yes"/>
      <point x="831" y="1250"/>
      <point x="933" y="1226"/>
      <point x="1019" y="1140" type="curve"/>
    </contour>
  </outline>
</glyph>
<glyph name="DigitNine" format="2">
  <advance width="1240"/>
  <unicode hex="0039"/>
  <anchor x="625" y="-100" name="L"/>
  <anchor x="625" y="1530" name="U"/>
  <outline>
    <contour>
      <point x="159" y="65" type="line"/>
      <point x="253" y="5"/>
      <point x="369" y="-25"/>
      <point x="497" y="-25" type="curve" smooth="yes"/>
      <point x="972" y="-25"/>
      <point x="1140" y="411"/>
      <point x="1140" y="780" type="curve" smooth="yes"/>
      <point x="1140" y="1150"/>
      <point x="982" y="1485"/>
      <point x="594" y="1485" type="curve" smooth="yes"/>
      <point x="315" y="1485"/>
      <point x="75" y="1300"/>
      <point x="75" y="1002" type="curve" smooth="yes"/>
      <point x="75" y="763"/>
      <point x="277" y="576"/>
      <point x="555" y="576" type="curve" smooth="yes"/>
      <point x="746" y="576"/>
      <point x="918" y="707"/>
      <point x="1015" y="868" type="curve"/>
      <point x="944" y="991" type="line"/>
      <point x="870" y="877"/>
      <point x="734" y="790"/>
      <point x="579" y="790" type="curve" smooth="yes"/>
      <point x="430" y="790"/>
      <point x="331" y="890"/>
      <point x="331" y="1036" type="curve" smooth="yes"/>
      <point x="331" y="1153"/>
      <point x="430" y="1250"/>
      <point x="578" y="1250" type="curve" smooth="yes"/>
      <point x="778" y="1250"/>
      <point x="875" y="1102"/>
      <point x="875" y="813" type="curve" smooth="yes"/>
      <point x="875" y="326"/>
      <point x="704" y="210"/>
      <point x="507" y="210" type="curve" smooth="yes"/>
      <point x="411" y="210"/>
      <point x="299" y="234"/>
      <point x="213" y="320" type="curve"/>
    </contour>
  </outline>
</glyph>
<glyph name="LtnSmS" format="2">
  <advance width="1035"/>
  <unicode hex="0073"/>
  <anchor x="515" y="0" name="H"/>
  <anchor x="515" y="-100" name="L"/>
  <anchor x="530" y="1100" name="U"/>
  <outline>
    <contour>
      <point x="905" y="960" type="line"/>
      <point x="827" y="998"/>
      <point x="708" y="1040"/>
      <point x="545" y="1040" type="curve" smooth="yes"/>
      <point x="202" y="1040"/>
      <point x="110" y="818"/>
      <point x="110" y="720" type="curve" smooth="yes"/>
      <point x="110" y="594"/>
      <point x="171" y="493"/>
      <point x="455" y="432" type="curve" smooth="yes"/>
      <point x="646" y="391"/>
      <point x="690" y="348"/>
      <point x="690" y="290" type="curve" smooth="yes"/>
      <point x="690" y="243"/>
      <point x="624" y="200"/>
      <point x="530" y="200" type="curve" smooth="yes"/>
      <point x="413" y="200"/>
      <point x="254" y="254"/>
      <point x="155" y="335" type="curve"/>
      <point x="100" y="90" type="line"/>
      <point x="187" y="28"/>
      <point x="346" y="-25"/>
      <point x="525" y="-25" type="curve" smooth="yes"/>
      <point x="768" y="-25"/>
      <point x="960" y="123"/>
      <point x="960" y="315" type="curve" smooth="yes"/>
      <point x="960" y="504"/>
      <point x="788" y="584"/>
      <point x="580" y="625" type="curve" smooth="yes"/>
      <point x="405" y="660"/>
      <point x="380" y="681"/>
      <point x="380" y="730" type="curve" smooth="yes"/>
      <point x="380" y="770"/>
      <point x="418" y="820"/>
      <point x="535" y="820" type="curve" smooth="yes"/>
      <point x="674" y="820"/>
      <point x="791" y="764"/>
      <point x="866" y="725" type="curve"/>
    </contour>
  </outline>
</glyph>
<glyph name="YenSgn" format="2">
  <advance width="1240"/>
  <unicode hex="00A5"/>
  <outline>
    <contour>
      <point x="555" y="560" type="line"/>
      <point x="762" y="655" type="line"/>
      <point x="337" y="1460" type="line"/>
      <point x="5" y="1460" type="line"/>
      <point x="117" y="1311"/>
      <point x="183" y="1197"/>
      <point x="260" y="1065" type="curve" smooth="yes"/>
    </contour>
    <contour>
      <point x="686" y="560" type="line"/>
      <point x="985" y="1065" type="line" smooth="yes"/>
      <point x="1061" y="1195"/>
      <point x="1117" y="1291"/>
      <point x="1235" y="1460" type="curve"/>
      <point x="913" y="1460" type="line"/>
      <point x="493" y="655" type="line"/>
    </contour>
    <contour>
      <point x="478" y="695" type="line"/>
      <point x="478" y="435" type="line" smooth="yes"/>
      <point x="478" y="238"/>
      <point x="478" y="80"/>
      <point x="463" y="0" type="curve"/>
      <point x="778" y="0" type="line"/>
      <point x="763" y="80"/>
      <point x="763" y="238"/>
      <point x="763" y="435" type="curve" smooth="yes"/>
      <point x="763" y="695" type="line"/>
    </contour>
    <contour>
      <point x="140" y="354" type="line"/>
      <point x="1100" y="354" type="line"/>
      <point x="1100" y="564" type="line"/>
      <point x="140" y="564" type="line"/>
    </contour>
    <contour>
      <point x="140" y="670" type="line"/>
      <point x="1100" y="670" type="line"/>
      <point x="1100" y="880" type="line"/>
      <point x="140" y="880" type="line"/>
    </contour>
  </outline>
</glyph>
<glyph name="BrokenBar" format="2">
  <advance width="1064"/>
  <unicode hex="00A6"/>
  <outline>
    <contour>
      <point x="430" y="445" type="line"/>
      <point x="430" y="-390" type="line"/>
      <point x="640" y="-390" type="line"/>
      <point x="640" y="445" type="line"/>
    </contour>
    <contour>
      <point x="640" y="775" type="line"/>
      <point x="640" y="1600" type="line"/>
      <point x="430" y="1600" type="line"/>
      <point x="430" y="775" type="line"/>
    </contour>
  </outline>
</glyph>
<glyph name="SectionSgn" format="2">
  <advance width="1095"/>
  <unicode hex="00A7"/>
  <outline>
    <contour>
      <point x="100" y="-355" type="line"/>
      <point x="187" y="-417"/>
      <point x="346" y="-470"/>
      <point x="525" y="-470" type="curve" smooth="yes"/>
      <point x="768" y="-470"/>
      <point x="960" y="-305"/>
      <point x="960" y="-93" type="curve" smooth="yes"/>
      <point x="960" y="96"/>
      <point x="859" y="193"/>
      <point x="670" y="321" type="curve" smooth="yes"/>
      <point x="515" y="426"/>
      <point x="368" y="524"/>
      <point x="368" y="600" type="curve" smooth="yes"/>
      <point x="368" y="678"/>
      <point x="431" y="722"/>
      <point x="572" y="722" type="curve"/>
      <point x="572" y="951" type="line"/>
      <point x="227" y="951"/>
      <point x="110" y="742"/>
      <point x="110" y="590" type="curve" smooth="yes"/>
      <point x="110" y="460"/>
      <point x="209" y="335"/>
      <point x="432" y="191" type="curve" smooth="yes"/>
      <point x="614" y="73"/>
      <point x="694" y="-11"/>
      <point x="694" y="-98" type="curve" smooth="yes"/>
      <point x="694" y="-201"/>
      <point x="611" y="-246"/>
      <point x="530" y="-246" type="curve" smooth="yes"/>
      <point x="413" y="-246"/>
      <point x="254" y="-192"/>
      <point x="155" y="-111" type="curve"/>
    </contour>
    <contour>
      <point x="905" y="1405" type="line"/>
      <point x="827" y="1443"/>
      <point x="708" y="1485"/>
      <point x="545" y="1485" type="curve" smooth="yes"/>
      <point x="202" y="1485"/>
      <point x="110" y="1253"/>
      <point x="110" y="1155" type="curve" smooth="yes"/>
      <point x="110" y="1012"/>
      <point x="225" y="895"/>
      <point x="453" y="766" type="curve" smooth="yes"/>
      <point x="644" y="658"/>
      <point x="700" y="603"/>
      <point x="700" y="545" type="curve" smooth="yes"/>
      <point x="700" y="458"/>
      <point x="625" y="414"/>
      <point x="488" y="414" type="curve"/>
      <point x="488" y="190" type="line"/>
      <point x="831" y="190"/>
      <point x="960" y="369"/>
      <point x="960" y="560" type="curve" smooth="yes"/>
      <point x="960" y="693"/>
      <point x="873" y="788"/>
      <point x="669" y="914" type="curve" smooth="yes"/>
      <point x="469" y="1038"/>
      <point x="375" y="1096"/>
      <point x="375" y="1165" type="curve" smooth="yes"/>
      <point x="375" y="1205"/>
      <point x="418" y="1261"/>
      <point x="535" y="1261" type="curve" smooth="yes"/>
      <point x="674" y="1261"/>
      <point x="791" y="1205"/>
      <point x="866" y="1166" type="curve"/>
    </contour>
  </outline>
</glyph>
<glyph name="LftPtngDblAngQuotMrk" format="2">
  <advance width="1306"/>
  <unicode hex="00AB"/>
  <outline>
    <contour>
      <point x="750" y="0" type="line"/>
      <point x="380" y="510" type="line"/>
      <point x="750" y="1020" type="line"/>
      <point x="505" y="1020" type="line"/>
      <point x="70" y="510" type="line"/>
      <point x="505" y="0" type="line"/>
    </contour>
    <contour>
      <point x="1256" y="0" type="line"/>
      <point x="886" y="510" type="line"/>
      <point x="1256" y="1020" type="line"/>
      <point x="1011" y="1020" type="line"/>
      <point x="576" y="510" type="line"/>
      <point x="1011" y="0" type="line"/>
    </contour>
  </outline>
</glyph>
<glyph name="RegisteredSgn" format="2">
  <advance width="1545"/>
  <unicode hex="00AE"/>
  <outline>
    <contour>
      <point x="775" y="1324" type="curve" smooth="yes"/>
      <point x="1060" y="1324"/>
      <point x="1333" y="1118"/>
      <point x="1333" y="730" type="curve" smooth="yes"/>
      <point x="1333" y="342"/>
      <point x="1060" y="136"/>
      <point x="775" y="136" type="curve" smooth="yes"/>
      <point x="485" y="136"/>
      <point x="212" y="342"/>
      <point x="212" y="730" type="curve" smooth="yes"/>
      <point x="212" y="1118"/>
      <point x="485" y="1324"/>
    </contour>
    <contour>
      <point x="775" y="1485" type="curve" smooth="yes"/>
      <point x="404" y="1485"/>
      <point x="45" y="1230"/>
      <point x="45" y="730" type="curve" smooth="yes"/>
      <point x="45" y="220"/>
      <point x="404" y="-25"/>
      <point x="775" y="-25" type="curve" smooth="yes"/>
      <point x="1130" y="-25"/>
      <point x="1500" y="220"/>
      <point x="1500" y="730" type="curve" smooth="yes"/>
      <point x="1500" y="1230"/>
      <point x="1130" y="1485"/>
    </contour>
    <contour>
      <point x="622" y="648" type="line"/>
      <point x="705" y="648" type="line"/>
      <point x="923" y="300" type="line"/>
      <point x="1132" y="300" type="line"/>
      <point x="1100" y="336"/>
      <point x="937" y="579"/>
      <point x="871" y="671" type="curve"/>
      <point x="975" y="708"/>
      <point x="1051" y="777"/>
      <point x="1051" y="917" type="curve" smooth="yes"/>
      <point x="1051" y="1099"/>
      <point x="924" y="1174"/>
      <point x="740" y="1174" type="curve" smooth="yes"/>
      <point x="602" y="1174"/>
      <point x="443" y="1168"/>
      <point x="443" y="1168" type="curve"/>
      <point x="452" y="1120"/>
      <point x="452" y="1010"/>
      <point x="452" y="894" type="curve" smooth="yes"/>
      <point x="452" y="559" type="line" smooth="yes"/>
      <point x="452" y="442"/>
      <point x="452" y="348"/>
      <point x="443" y="300" type="curve"/>
      <point x="630" y="300" type="line"/>
      <point x="622" y="347"/>
      <point x="622" y="442"/>
      <point x="622" y="559" type="curve" smooth="yes"/>
    </contour>
    <contour>
      <point x="624" y="1032" type="line"/>
      <point x="656" y="1034"/>
      <point x="674" y="1035"/>
      <point x="718" y="1035" type="curve" smooth="yes"/>
      <point x="821" y="1035"/>
      <point x="876" y="1002"/>
      <point x="876" y="914" type="curve" smooth="yes"/>
      <point x="876" y="813"/>
      <point x="812" y="780"/>
      <point x="714" y="780" type="curve" smooth="yes"/>
      <point x="624" y="780" type="line"/>
    </contour>
  </outline>
</glyph>
<glyph name="PlusMinusSgn" format="2">
  <advance width="1200"/>
  <unicode hex="00B1"/>
  <outline>
    <contour>
      <point x="1045" y="805" type="line"/>
      <point x="1045" y="1015" type="line"/>
      <point x="705" y="1015" type="line"/>
      <point x="705" y="1365" type="line"/>
      <point x="495" y="1365" type="line"/>
      <point x="495" y="1015" type="line"/>
      <point x="155" y="1015" type="line"/>
      <point x="155" y="805" type="line"/>
      <point x="495" y="805" type="line"/>
      <point x="495" y="470" type="line"/>
      <point x="705" y="470" type="line"/>
      <point x="705" y="805" type="line"/>
    </contour>
    <contour>
      <point x="1045" y="170" type="line"/>
      <point x="1045" y="370" type="line"/>
      <point x="155" y="370" type="line"/>
      <point x="155" y="170" type="line"/>
    </contour>
  </outline>
</glyph>
<glyph name="SupTwo" format="2">
  <advance width="840"/>
  <unicode hex="00B2"/>
  <anchor x="420" y="615" name="L"/>
  <anchor x="420" y="1675" name="U"/>
  <outline>
    <contour>
      <point x="768" y="849" type="line"/>
      <point x="712" y="840"/>
      <point x="664" y="839"/>
      <point x="526" y="839" type="curve" smooth="yes"/>
      <point x="341" y="839" type="line"/>
      <point x="494" y="954"/>
      <point x="737" y="1160"/>
      <point x="737" y="1372" type="curve" smooth="yes"/>
      <point x="737" y="1540"/>
      <point x="600" y="1645"/>
      <point x="397" y="1645" type="curve" smooth="yes"/>
      <point x="279" y="1645"/>
      <point x="142" y="1591"/>
      <point x="78" y="1518" type="curve"/>
      <point x="124" y="1362" type="line"/>
      <point x="186" y="1433"/>
      <point x="293" y="1483"/>
      <point x="380" y="1483" type="curve" smooth="yes"/>
      <point x="487" y="1483"/>
      <point x="536" y="1416"/>
      <point x="536" y="1340" type="curve" smooth="yes"/>
      <point x="536" y="1173"/>
      <point x="272" y="950"/>
      <point x="82" y="823" type="curve"/>
      <point x="82" y="680" type="line"/>
      <point x="768" y="680" type="line"/>
    </contour>
  </outline>
</glyph>
<glyph name="LtnSmEth" format="2">
  <advance width="1163"/>
  <unicode hex="00F0"/>
  <anchor x="580" y="-100" name="L"/>
  <anchor x="580" y="1635" name="U"/>
  <outline>
    <contour>
      <point x="258" y="1532" type="line"/>
      <point x="476" y="1427"/>
      <point x="712" y="1138"/>
      <point x="791" y="868" type="curve"/>
      <point x="722" y="954"/>
      <point x="646" y="1000"/>
      <point x="525" y="1000" type="curve" smooth="yes"/>
      <point x="333" y="1000"/>
      <point x="90" y="811"/>
      <point x="90" y="487" type="curve" smooth="yes"/>
      <point x="90" y="153"/>
      <point x="287" y="-25"/>
      <point x="569" y="-25" type="curve" smooth="yes"/>
      <point x="882" y="-25"/>
      <point x="1069" y="185"/>
      <point x="1069" y="606" type="curve" smooth="yes"/>
      <point x="1069" y="1030"/>
      <point x="783" y="1452"/>
      <point x="502" y="1620" type="curve"/>
    </contour>
    <contour>
      <point x="371" y="487" type="curve" smooth="yes"/>
      <point x="371" y="666"/>
      <point x="448" y="782"/>
      <point x="579" y="782" type="curve" smooth="yes"/>
      <point x="704" y="782"/>
      <point x="790" y="674"/>
      <point x="790" y="487" type="curve" smooth="yes"/>
      <point x="790" y="308"/>
      <point x="711" y="191"/>
      <point x="579" y="191" type="curve" smooth="yes"/>
      <point x="456" y="191"/>
      <point x="371" y="299"/>
    </contour>
    <contour>
      <point x="1006" y="1447" type="line"/>
      <point x="889" y="1589" type="line"/>
      <point x="299" y="1224" type="line"/>
      <point x="409" y="1076" type="line"/>
    </contour>
  </outline>
</glyph>
<glyph name="LtnSmLCaron" format="2">
  <advance width="880"/>
  <unicode hex="013E"/>
  <anchor x="335" y="0" name="H"/>
  <anchor x="335" y="-100" name="L"/>
  <anchor x="320" y="1635" name="U"/>
  <outline>
    <contour>
      <point x="460" y="1600" type="line"/>
      <point x="160" y="1600" type="line"/>
      <point x="173" y="1485"/>
      <point x="180" y="1324"/>
      <point x="180" y="1130" type="curve" smooth="yes"/>
      <point x="180" y="0" type="line"/>
      <point x="480" y="0" type="line"/>
      <point x="467" y="109"/>
      <point x="460" y="346"/>
      <point x="460" y="475" type="curve" smooth="yes"/>
    </contour>
    <contour>
      <point x="655" y="1600" type="line"/>
      <point x="590" y="1170" type="line"/>
      <point x="760" y="1170" type="line"/>
      <point x="890" y="1600" type="line"/>
    </contour>
  </outline>
</glyph>
<glyph name="LtnSmLStrk" format="2">
  <advance width="860"/>
  <unicode hex="0142"/>
  <anchor x="432" y="-100" name="L"/>
  <anchor x="432" y="1635" name="U"/>
  <outline>
    <contour>
      <point x="568" y="1600" type="line"/>
      <point x="268" y="1600" type="line"/>
      <point x="281" y="1485"/>
      <point x="288" y="1324"/>
      <point x="288" y="1130" type="curve" smooth="yes"/>
      <point x="288" y="0" type="line"/>
      <point x="588" y="0" type="line"/>
      <point x="575" y="109"/>
      <point x="568" y="346"/>
      <point x="568" y="475" type="curve" smooth="yes"/>
    </contour>
    <contour>
      <point x="856" y="1019" type="line"/>
      <point x="777" y="1216" type="line"/>
      <point x="20" y="673" type="line"/>
      <point x="99" y="476" type="line"/>
    </contour>
  </outline>
</glyph>
<glyph name="LtnSmEng" format="2">
  <advance width="1245"/>
  <unicode hex="014B"/>
  <anchor x="592" y="-500" name="L"/>
  <anchor x="592" y="1100" name="U"/>
  <outline>
    <contour>
      <point x="95" y="1020" type="line"/>
      <point x="117" y="951"/>
      <point x="145" y="811"/>
      <point x="145" y="615" type="curve" smooth="yes"/>
      <point x="145" y="0" type="line"/>
      <point x="425" y="0" type="line"/>
      <point x="425" y="580" type="line"/>
      <point x="460" y="683"/>
      <point x="570" y="795"/>
      <point x="685" y="795" type="curve" smooth="yes"/>
      <point x="792" y="795"/>
      <point x="840" y="734"/>
      <point x="840" y="550" type="curve" smooth="yes"/>
      <point x="840" y="40" type="line" smooth="yes"/>
      <point x="840" y="-120"/>
      <point x="808" y="-232"/>
      <point x="688" y="-232" type="curve" smooth="yes"/>
      <point x="630" y="-232"/>
      <point x="582" y="-213"/>
      <point x="549" y="-175" type="curve"/>
      <point x="450" y="-389" type="line"/>
      <point x="492" y="-421"/>
      <point x="603" y="-470"/>
      <point x="696" y="-470" type="curve" smooth="yes"/>
      <point x="986" y="-470"/>
      <point x="1120" y="-285"/>
      <point x="1120" y="115" type="curve" smooth="yes"/>
      <point x="1120" y="625" type="line" smooth="yes"/>
      <point x="1120" y="900"/>
      <point x="998" y="1040"/>
      <point x="795" y="1040" type="curve" smooth="yes"/>
      <point x="654" y="1040"/>
      <point x="537" y="980"/>
      <point x="410" y="835" type="curve"/>
      <point x="403" y="881"/>
      <point x="385" y="980"/>
      <point x="370" y="1020" type="curve"/>
    </contour>
  </outline>
</glyph>
<glyph name="LtnCapTStrk" format="2">
  <advance width="1265"/>
  <unicode hex="0166"/>
  <anchor x="622" y="-100" name="L"/>
  <anchor x="622" y="1530" name="U"/>
  <outline>
    <contour>
      <point x="35" y="1460" type="line"/>
      <point x="35" y="1210" type="line"/>
      <point x="107" y="1227"/>
      <point x="186" y="1230"/>
      <point x="266" y="1230" type="curve" smooth="yes"/>
      <point x="478" y="1230" type="line"/>
      <point x="478" y="413" type="line" smooth="yes"/>
      <point x="478" y="226"/>
      <point x="475" y="76"/>
      <point x="458" y="0" type="curve"/>
      <point x="783" y="0" type="line"/>
      <point x="766" y="76"/>
      <point x="763" y="226"/>
      <point x="763" y="413" type="curve" smooth="yes"/>
      <point x="763" y="1230" type="line"/>
      <point x="979" y="1230" type="line" smooth="yes"/>
      <point x="1060" y="1230"/>
      <point x="1138" y="1227"/>
      <point x="1210" y="1210" type="curve"/>
      <point x="1210" y="1460" type="line"/>
    </contour>
    <contour>
      <point x="220" y="855" type="line"/>
      <point x="220" y="650" type="line"/>
      <point x="1020" y="650" type="line"/>
      <point x="1020" y="855" type="line"/>
    </contour>
  </outline>
</glyph>
<glyph name="LtnCapBHook" format="2">
  <advance width="1776"/>
  <unicode hex="0181"/>
  <anchor x="1045" y="-100" name="L"/>
  <anchor x="1020" y="1530" name="U"/>
  <outline>
    <contour>
      <point x="1022" y="-10" type="curve" smooth="yes"/>
      <point x="1446" y="-10"/>
      <point x="1636" y="181"/>
      <point x="1636" y="430" type="curve" smooth="yes"/>
      <point x="1636" y="672"/>
      <point x="1475" y="760"/>
      <point x="1326" y="800" type="curve"/>
      <point x="1456" y="850"/>
      <point x="1561" y="947"/>
      <point x="1561" y="1110" type="curve" smooth="yes"/>
      <point x="1561" y="1378"/>
      <point x="1328" y="1470"/>
      <point x="1006" y="1470" type="curve" smooth="yes"/>
      <point x="599" y="1470" type="line" smooth="yes"/>
      <point x="249" y="1470"/>
      <point x="20" y="1329"/>
      <point x="20" y="1025" type="curve" smooth="yes"/>
      <point x="20" y="956"/>
      <point x="52" y="857"/>
      <point x="82" y="801" type="curve"/>
      <point x="318" y="848" type="line"/>
      <point x="289" y="903"/>
      <point x="268" y="955"/>
      <point x="268" y="1040" type="curve" smooth="yes"/>
      <point x="268" y="1183"/>
      <point x="395" y="1254"/>
      <point x="569" y="1254" type="curve" smooth="yes"/>
      <point x="977" y="1254" type="line" smooth="yes"/>
      <point x="1176" y="1254"/>
      <point x="1288" y="1209"/>
      <point x="1288" y="1087" type="curve" smooth="yes"/>
      <point x="1288" y="951"/>
      <point x="1185" y="875"/>
      <point x="996" y="875" type="curve" smooth="yes"/>
      <point x="841" y="875" type="line"/>
      <point x="841" y="1292" type="line"/>
      <point x="556" y="1292" type="line"/>
      <point x="556" y="455" type="line" smooth="yes"/>
      <point x="556" y="257"/>
      <point x="556" y="80"/>
      <point x="541" y="0" type="curve"/>
      <point x="541" y="0"/>
      <point x="792" y="-10"/>
    </contour>
    <contour>
      <point x="1043" y="215" type="curve" smooth="yes"/>
      <point x="943" y="215"/>
      <point x="874" y="218"/>
      <point x="841" y="220" type="curve"/>
      <point x="841" y="658" type="line"/>
      <point x="1034" y="658" type="line" smooth="yes"/>
      <point x="1244" y="658"/>
      <point x="1363" y="587"/>
      <point x="1363" y="450" type="curve" smooth="yes"/>
      <point x="1363" y="269"/>
      <point x="1217" y="215"/>
    </contour>
  </outline>
</glyph>
<glyph name="LtnSmTnSix" format="2">
  <advance width="1462"/>
  <unicode hex="0185"/>
  <anchor x="842" y="-100" name="L"/>
  <anchor x="842" y="1635" name="U"/>
  <outline>
    <contour>
      <point x="667" y="240" type="curve"/>
      <point x="667" y="585" type="line"/>
      <point x="723" y="709"/>
      <point x="832" y="795"/>
      <point x="935" y="795" type="curve" smooth="yes"/>
      <point x="1045" y="795"/>
      <point x="1107" y="684"/>
      <point x="1107" y="505" type="curve" smooth="yes"/>
      <point x="1107" y="317"/>
      <point x="1002" y="190"/>
      <point x="857" y="190" type="curve" smooth="yes"/>
      <point x="790" y="190"/>
      <point x="744" y="204"/>
    </contour>
    <contour>
      <point x="667" y="1600" type="line"/>
      <point x="400" y="1600" type="line"/>
      <point x="342" y="1490"/>
      <point x="129" y="1168"/>
      <point x="30" y="1035" type="curve"/>
      <point x="265" y="1035" type="line"/>
      <point x="413" y="1213" type="line"/>
      <point x="387" y="1232" type="line"/>
      <point x="387" y="65" type="line"/>
      <point x="586" y="10"/>
      <point x="719" y="-25"/>
      <point x="872" y="-25" type="curve" smooth="yes"/>
      <point x="1191" y="-25"/>
      <point x="1377" y="197"/>
      <point x="1377" y="540" type="curve" smooth="yes"/>
      <point x="1377" y="832"/>
      <point x="1238" y="1040"/>
      <point x="1041" y="1040" type="curve" smooth="yes"/>
      <point x="878" y="1040"/>
      <point x="757" y="956"/>
      <point x="667" y="845" type="curve"/>
    </contour>
  </outline>
</glyph>
<glyph name="LtnSmCHook" format="2">
  <advance width="1122"/>
  <unicode hex="0188"/>
  <anchor x="562" y="-100" name="L"/>
  <anchor x="555" y="1250" name="U"/>
  <outline>
    <contour>
      <point x="578" y="-25" type="curve" smooth="yes"/>
      <point x="727" y="-25"/>
      <point x="831" y="8"/>
      <point x="932" y="70" type="curve"/>
      <point x="902" y="314" type="line"/>
      <point x="815" y="245"/>
      <point x="737" y="205"/>
      <point x="617" y="205" type="curve" smooth="yes"/>
      <point x="467" y="205"/>
      <point x="370" y="324"/>
      <point x="370" y="500" type="curve" smooth="yes"/>
      <point x="370" y="694"/>
      <point x="478" y="820"/>
      <point x="617" y="820" type="curve" smooth="yes"/>
      <point x="720" y="820"/>
      <point x="805" y="793"/>
      <point x="905" y="731" type="curve"/>
      <point x="905" y="996" type="line"/>
      <point x="870" y="1007"/>
      <point x="692" y="1040"/>
      <point x="622" y="1040" type="curve" smooth="yes"/>
      <point x="285" y="1040"/>
      <point x="90" y="792"/>
      <point x="90" y="490" type="curve" smooth="yes"/>
      <point x="90" y="161"/>
      <point x="309" y="-25"/>
    </contour>
    <contour>
      <point x="905" y="853" type="line"/>
      <point x="905" y="1059" type="line"/>
      <point x="905" y="1204"/>
      <point x="933" y="1247"/>
      <point x="1019" y="1247" type="curve" smooth="yes"/>
      <point x="1068" y="1247"/>
      <point x="1121" y="1222"/>
      <point x="1164" y="1182" type="curve"/>
      <point x="1222" y="1410" type="line"/>
      <point x="1163" y="1448"/>
      <point x="1070" y="1480"/>
      <point x="996" y="1480" type="curve" smooth="yes"/>
      <point x="799" y="1480"/>
      <point x="685" y="1342"/>
      <point x="685" y="1070" type="curve" smooth="yes"/>
      <point x="685" y="936" type="line"/>
    </contour>
  </outline>
</glyph>
<glyph name="LtnCapDHook" format="2">
  <advance width="1876"/>
  <unicode hex="018A"/>
  <anchor x="1102" y="-100" name="L"/>
  <anchor x="1102" y="1530" name="U"/>
  <outline>
    <contour>
      <point x="1000" y="-10" type="curve" smooth="yes"/>
      <point x="1310" y="-10"/>
      <point x="1761" y="145"/>
      <point x="1761" y="740" type="curve" smooth="yes"/>
      <point x="1761" y="1374"/>
      <point x="1297" y="1470"/>
      <point x="1021" y="1470" type="curve" smooth="yes"/>
      <point x="599" y="1470" type="line" smooth="yes"/>
      <point x="249" y="1470"/>
      <point x="20" y="1329"/>
      <point x="20" y="1025" type="curve" smooth="yes"/>
      <point x="20" y="956"/>
      <point x="52" y="857"/>
      <point x="82" y="801" type="curve"/>
      <point x="318" y="848" type="line"/>
      <point x="289" y="903"/>
      <point x="268" y="955"/>
      <point x="268" y="1040" type="curve" smooth="yes"/>
      <point x="268" y="1183"/>
      <point x="395" y="1245"/>
      <point x="569" y="1245" type="curve" smooth="yes"/>
      <point x="1028" y="1245" type="line" smooth="yes"/>
      <point x="1288" y="1245"/>
      <point x="1469" y="1118"/>
      <point x="1469" y="720" type="curve" smooth="yes"/>
      <point x="1469" y="357"/>
      <point x="1247" y="221"/>
      <point x="1024" y="221" type="curve" smooth="yes"/>
      <point x="945" y="221"/>
      <point x="880" y="227"/>
      <point x="841" y="231" type="curve"/>
      <point x="841" y="1378" type="line"/>
      <point x="556" y="1301" type="line"/>
      <point x="556" y="455" type="line" smooth="yes"/>
      <point x="556" y="257"/>
      <point x="556" y="80"/>
      <point x="541" y="0" type="curve"/>
      <point x="541" y="0"/>
      <point x="865" y="-10"/>
    </contour>
  </outline>
</glyph>
<glyph name="LtnSmTrndDelta" format="2">
  <advance width="1170"/>
  <unicode hex="018D"/>
  <anchor x="570" y="-500" name="L"/>
  <anchor x="590" y="1100" name="U"/>
  <outline>
    <contour>
      <point x="172" y="-450" type="line"/>
      <point x="261" y="-467"/>
      <point x="421" y="-490"/>
      <point x="520" y="-490" type="curve" smooth="yes"/>
      <point x="826" y="-490"/>
      <point x="998" y="-364"/>
      <point x="998" y="-171" type="curve" smooth="yes"/>
      <point x="998" y="21"/>
      <point x="777" y="88"/>
      <point x="597" y="198" type="curve" smooth="yes"/>
      <point x="474" y="274"/>
      <point x="370" y="365"/>
      <point x="370" y="530" type="curve" smooth="yes"/>
      <point x="370" y="733"/>
      <point x="469" y="815"/>
      <point x="590" y="815" type="curve" smooth="yes"/>
      <point x="712" y="815"/>
      <point x="800" y="710"/>
      <point x="800" y="540" type="curve" smooth="yes"/>
      <point x="800" y="359"/>
      <point x="722" y="235"/>
      <point x="523" y="153" type="curve"/>
      <point x="634" y="0" type="line"/>
      <point x="918" y="108"/>
      <point x="1080" y="285"/>
      <point x="1080" y="560" type="curve" smooth="yes"/>
      <point x="1080" y="846"/>
      <point x="894" y="1040"/>
      <point x="600" y="1040" type="curve" smooth="yes"/>
      <point x="317" y="1040"/>
      <point x="90" y="854"/>
      <point x="90" y="510" type="curve" smooth="yes"/>
      <point x="90" y="267"/>
      <point x="269" y="125"/>
      <point x="439" y="23" type="curve" smooth="yes"/>
      <point x="591" y="-68"/>
      <point x="736" y="-117"/>
      <point x="736" y="-187" type="curve" smooth="yes"/>
      <point x="736" y="-223"/>
      <point x="685" y="-265"/>
      <point x="552" y="-265" type="curve" smooth="yes"/>
      <point x="454" y="-265"/>
      <point x="341" y="-251"/>
      <point x="240" y="-219" type="curve"/>
    </contour>
  </outline>
</glyph>
<glyph name="LtnCapOpnE" format="2">
  <advance width="1180"/>
  <unicode hex="0190"/>
  <anchor x="565" y="-100" name="L"/>
  <anchor x="595" y="1530" name="U"/>
  <outline>
    <contour>
      <point x="1005" y="1397" type="line"/>
      <point x="890" y="1458"/>
      <point x="792" y="1487"/>
      <point x="620" y="1487" type="curve" smooth="yes"/>
      <point x="297" y="1487"/>
      <point x="150" y="1268"/>
      <point x="150" y="1102" type="curve" smooth="yes"/>
      <point x="150" y="952"/>
      <point x="238" y="812"/>
      <point x="370" y="762" type="curve"/>
      <point x="212" y="723"/>
      <point x="90" y="582"/>
      <point x="90" y="387" type="curve" smooth="yes"/>
      <point x="90" y="188"/>
      <point x="227" y="-23"/>
      <point x="560" y="-23" type="curve" smooth="yes"/>
      <point x="716" y="-23"/>
      <point x="939" y="34"/>
      <point x="1060" y="142" type="curve"/>
      <point x="1020" y="406" type="line"/>
      <point x="914" y="294"/>
      <point x="750" y="221"/>
      <point x="610" y="221" type="curve" smooth="yes"/>
      <point x="487" y="221"/>
      <point x="375" y="292"/>
      <point x="375" y="427" type="curve" smooth="yes"/>
      <point x="375" y="615"/>
      <point x="608" y="658"/>
      <point x="760" y="658" type="curve"/>
      <point x="760" y="866" type="line"/>
      <point x="593" y="866"/>
      <point x="429" y="933"/>
      <point x="429" y="1087" type="curve" smooth="yes"/>
      <point x="429" y="1188"/>
      <point x="514" y="1245"/>
      <point x="610" y="1245" type="curve" smooth="yes"/>
      <point x="726" y="1245"/>
      <point x="833" y="1228"/>
      <point x="965" y="1135" type="curve"/>
    </contour>
  </outline>
</glyph>
<glyph name="LtnCapFHook" format="2">
  <advance width="1174"/>
  <unicode hex="0191"/>
  <anchor x="715" y="-100" name="L"/>
  <anchor x="625" y="1530" name="U"/>
  <outline>
    <contour>
      <point x="484" y="635" type="line"/>
      <point x="1039" y="635" type="line"/>
      <point x="1039" y="860" type="line"/>
      <point x="484" y="860" type="line"/>
      <point x="484" y="1230" type="line"/>
      <point x="1124" y="1230" type="line"/>
      <point x="1124" y="1460" type="line"/>
      <point x="184" y="1460" type="line"/>
      <point x="199" y="1380"/>
      <point x="199" y="1217"/>
      <point x="199" y="1020" type="curve" smooth="yes"/>
      <point x="199" y="90" type="line" smooth="yes"/>
      <point x="199" y="-119"/>
      <point x="168" y="-222"/>
      <point x="38" y="-222" type="curve" smooth="yes"/>
      <point x="-40" y="-222"/>
      <point x="-82" y="-203"/>
      <point x="-111" y="-175" type="curve"/>
      <point x="-210" y="-389" type="line"/>
      <point x="-164" y="-421"/>
      <point x="-85" y="-470"/>
      <point x="36" y="-470" type="curve" smooth="yes"/>
      <point x="346" y="-470"/>
      <point x="484" y="-240"/>
      <point x="484" y="165" type="curve" smooth="yes"/>
    </contour>
  </outline>
</glyph>
<glyph name="LtnSmLBar" format="2">
  <advance width="825"/>
  <unicode hex="019A"/>
  <anchor x="415" y="-100" name="L"/>
  <anchor x="400" y="1635" name="U"/>
  <outline>
    <contour>
      <point x="548" y="1600" type="line"/>
      <point x="248" y="1600" type="line"/>
      <point x="261" y="1485"/>
      <point x="268" y="1324"/>
      <point x="268" y="1130" type="curve" smooth="yes"/>
      <point x="268" y="0" type="line"/>
      <point x="568" y="0" type="line"/>
      <point x="555" y="109"/>
      <point x="548" y="346"/>
      <point x="548" y="475" type="curve" smooth="yes"/>
    </contour>
    <contour>
      <point x="37" y="935" type="line"/>
      <point x="37" y="735" type="line"/>
      <point x="782" y="735" type="line"/>
      <point x="782" y="935" type="line"/>
    </contour>
  </outline>
</glyph>
<glyph name="LtnCapTrndM" format="2">
  <advance width="2186"/>
  <unicode hex="019C"/>
  <anchor x="1050" y="-100" name="L"/>
  <anchor x="1050" y="1530" name="U"/>
  <outline>
    <contour>
      <point x="2031" y="-5" type="line"/>
      <point x="2005" y="96"/>
      <point x="1972" y="284"/>
      <point x="1972" y="560" type="curve" smooth="yes"/>
      <point x="1972" y="1455" type="line"/>
      <point x="1692" y="1455" type="line"/>
      <point x="1692" y="625" type="line"/>
      <point x="1650" y="456"/>
      <point x="1492" y="240"/>
      <point x="1384" y="240" type="curve" smooth="yes"/>
      <point x="1242" y="240"/>
      <point x="1202" y="378"/>
      <point x="1202" y="565" type="curve" smooth="yes"/>
      <point x="1202" y="1455" type="line"/>
      <point x="921" y="1455" type="line"/>
      <point x="921" y="625" type="line"/>
      <point x="879" y="456"/>
      <point x="721" y="240"/>
      <point x="613" y="240" type="curve" smooth="yes"/>
      <point x="471" y="240"/>
      <point x="431" y="378"/>
      <point x="431" y="565" type="curve" smooth="yes"/>
      <point x="431" y="1455" type="line"/>
      <point x="150" y="1455" type="line"/>
      <point x="150" y="510" type="line" smooth="yes"/>
      <point x="150" y="227"/>
      <point x="269" y="-25"/>
      <point x="519" y="-25" type="curve" smooth="yes"/>
      <point x="684" y="-25"/>
      <point x="858" y="67"/>
      <point x="959" y="243" type="curve"/>
      <point x="1010" y="86"/>
      <point x="1124" y="-25"/>
      <point x="1290" y="-25" type="curve" smooth="yes"/>
      <point x="1446" y="-25"/>
      <point x="1565" y="53"/>
      <point x="1706" y="240" type="curve"/>
      <point x="1713" y="178"/>
      <point x="1731" y="48"/>
      <point x="1746" y="-5" type="curve"/>
    </contour>
  </outline>
</glyph>
<glyph name="LtnCapOMiddleTilde" format="2">
  <advance width="1500"/>
  <unicode hex="019F"/>
  <anchor x="749" y="-100" name="L"/>
  <anchor x="749" y="1530" name="U"/>
  <outline>
    <contour>
      <point x="1385" y="740" type="curve" smooth="yes"/>
      <point x="1385" y="1219"/>
      <point x="1091" y="1485"/>
      <point x="750" y="1485" type="curve" smooth="yes"/>
      <point x="404" y="1485"/>
      <point x="90" y="1199"/>
      <point x="90" y="720" type="curve" smooth="yes"/>
      <point x="90" y="241"/>
      <point x="385" y="-25"/>
      <point x="730" y="-25" type="curve" smooth="yes"/>
      <point x="1072" y="-25"/>
      <point x="1385" y="260"/>
    </contour>
    <contour>
      <point x="1111" y="637" type="line"/>
      <point x="1085" y="373"/>
      <point x="930" y="220"/>
      <point x="740" y="220" type="curve" smooth="yes"/>
      <point x="541" y="220"/>
      <point x="397" y="378"/>
      <point x="366" y="637" type="curve"/>
    </contour>
    <contour>
      <point x="366" y="842" type="line"/>
      <point x="396" y="1088"/>
      <point x="544" y="1240"/>
      <point x="740" y="1240" type="curve" smooth="yes"/>
      <point x="929" y="1240"/>
      <point x="1071" y="1092"/>
      <point x="1106" y="842" type="curve"/>
    </contour>
  </outline>
</glyph>
<glyph name="LtnCapOi" format="2">
  <advance width="2126"/>
  <unicode hex="01A2"/>
  <anchor x="1008" y="-100" name="L"/>
  <anchor x="1008" y="1530" name="U"/>
  <outline>
    <contour>
      <point x="1055" y="401" type="line"/>
      <point x="975" y="289"/>
      <point x="840" y="221"/>
      <point x="740" y="221" type="curve" smooth="yes"/>
      <point x="530" y="221"/>
      <point x="376" y="375"/>
      <point x="376" y="700" type="curve" smooth="yes"/>
      <point x="376" y="996"/>
      <point x="505" y="1240"/>
      <point x="788" y="1240" type="curve" smooth="yes"/>
      <point x="904" y="1240"/>
      <point x="978" y="1206"/>
      <point x="1055" y="1151" type="curve"/>
    </contour>
    <contour>
      <point x="1336" y="300" type="curve"/>
      <point x="1336" y="1100" type="line"/>
      <point x="1646" y="1210" type="line"/>
      <point x="1646" y="-490" type="line"/>
      <point x="1951" y="-490" type="line"/>
      <point x="1938" y="-375"/>
      <point x="1931" y="-170"/>
      <point x="1931" y="25" type="curve" smooth="yes"/>
      <point x="1931" y="1485" type="line"/>
      <point x="1666" y="1485" type="line"/>
      <point x="1291" y="1349" type="line"/>
      <point x="1177" y="1423"/>
      <point x="982" y="1485"/>
      <point x="811" y="1485" type="curve" smooth="yes"/>
      <point x="348" y="1485"/>
      <point x="90" y="1144"/>
      <point x="90" y="665" type="curve" smooth="yes"/>
      <point x="90" y="226"/>
      <point x="374" y="-25"/>
      <point x="706" y="-25" type="curve" smooth="yes"/>
      <point x="945" y="-25"/>
      <point x="1185" y="103"/>
    </contour>
  </outline>
</glyph>
<glyph name="LtnSmOi" format="2">
  <advance width="1687"/>
  <unicode hex="01A3"/>
  <anchor x="792" y="-100" name="L"/>
  <anchor x="772" y="1100" name="U"/>
  <outline>
    <contour>
      <point x="1547" y="-150" type="curve" smooth="yes"/>
      <point x="1547" y="1020" type="line"/>
      <point x="1337" y="1020" type="line"/>
      <point x="987" y="909" type="line"/>
      <point x="869" y="992"/>
      <point x="743" y="1040"/>
      <point x="632" y="1040" type="curve" smooth="yes"/>
      <point x="267" y="1040"/>
      <point x="90" y="804"/>
      <point x="90" y="437" type="curve" smooth="yes"/>
      <point x="90" y="129"/>
      <point x="331" y="-25"/>
      <point x="517" y="-25" type="curve" smooth="yes"/>
      <point x="729" y="-25"/>
      <point x="898" y="76"/>
      <point x="1017" y="221" type="curve"/>
      <point x="1017" y="687" type="line"/>
      <point x="1267" y="750" type="line"/>
      <point x="1267" y="-490" type="line"/>
      <point x="1572" y="-490" type="line"/>
      <point x="1555" y="-405"/>
      <point x="1547" y="-310"/>
    </contour>
    <contour>
      <point x="737" y="275" type="line"/>
      <point x="676" y="229"/>
      <point x="628" y="203"/>
      <point x="557" y="203" type="curve" smooth="yes"/>
      <point x="474" y="203"/>
      <point x="367" y="288"/>
      <point x="367" y="485" type="curve" smooth="yes"/>
      <point x="367" y="674"/>
      <point x="443" y="806"/>
      <point x="602" y="806" type="curve" smooth="yes"/>
      <point x="643" y="806"/>
      <point x="699" y="787"/>
      <point x="737" y="760" type="curve"/>
    </contour>
  </outline>
</glyph>
<glyph name="LtnCapPHook" format="2">
  <advance width="1665"/>
  <unicode hex="01A4"/>
  <anchor x="870" y="-100" name="L"/>
  <anchor x="870" y="1530" name="U"/>
  <outline>
    <contour>
      <point x="540" y="0" type="curve"/>
      <point x="855" y="0" type="line"/>
      <point x="841" y="78"/>
      <point x="840" y="237"/>
      <point x="840" y="435" type="curve" smooth="yes"/>
      <point x="840" y="523" type="line"/>
      <point x="905" y="516"/>
      <point x="965" y="513"/>
      <point x="1038" y="513" type="curve" smooth="yes"/>
      <point x="1367" y="513"/>
      <point x="1590" y="702"/>
      <point x="1590" y="1010" type="curve" smooth="yes"/>
      <point x="1590" y="1316"/>
      <point x="1371" y="1470"/>
      <point x="1048" y="1470" type="curve" smooth="yes"/>
      <point x="894" y="1470"/>
      <point x="719" y="1470"/>
      <point x="555" y="1470" type="curve"/>
      <point x="555" y="1125"/>
      <point x="555" y="780"/>
      <point x="555" y="435" type="curve" smooth="yes"/>
      <point x="555" y="238"/>
      <point x="555" y="80"/>
    </contour>
    <contour>
      <point x="82" y="801" type="curve"/>
      <point x="318" y="848" type="line"/>
      <point x="289" y="903"/>
      <point x="268" y="955"/>
      <point x="268" y="1040" type="curve" smooth="yes"/>
      <point x="268" y="1183"/>
      <point x="395" y="1245"/>
      <point x="569" y="1245" type="curve"/>
      <point x="599" y="1470" type="line"/>
      <point x="557" y="1470" type="line" smooth="yes"/>
      <point x="231" y="1470"/>
      <point x="20" y="1317"/>
      <point x="20" y="1025" type="curve" smooth="yes"/>
      <point x="20" y="956"/>
      <point x="52" y="857"/>
    </contour>
    <contour>
      <point x="1008" y="730" type="curve" smooth="yes"/>
      <point x="946" y="730"/>
      <point x="883" y="733"/>
      <point x="840" y="740" type="curve"/>
      <point x="840" y="1240" type="line"/>
      <point x="896" y="1243"/>
      <point x="934" y="1245"/>
      <point x="1012" y="1245" type="curve" smooth="yes"/>
      <point x="1223" y="1245"/>
      <point x="1305" y="1145"/>
      <point x="1305" y="1000" type="curve" smooth="yes"/>
      <point x="1305" y="820"/>
      <point x="1201" y="730"/>
    </contour>
  </outline>
</glyph>
<glyph name="LtnYr" format="2">
  <advance width="1425"/>
  <unicode hex="01A6"/>
  <anchor x="625" y="-100" name="L"/>
  <anchor x="695" y="1530" name="U"/>
  <outline>
    <contour>
      <point x="576" y="505" type="line"/>
      <point x="985" y="-140" type="line"/>
      <point x="1355" y="-140" type="line"/>
      <point x="1288" y="-67"/>
      <point x="825" y="580"/>
      <point x="825" y="580" type="curve"/>
    </contour>
    <contour>
      <point x="465" y="0" type="line"/>
      <point x="450" y="80"/>
      <point x="450" y="238"/>
      <point x="450" y="435" type="curve" smooth="yes"/>
      <point x="450" y="1025" type="line" smooth="yes"/>
      <point x="450" y="1222"/>
      <point x="450" y="1380"/>
      <point x="465" y="1460" type="curve"/>
      <point x="150" y="1460" type="line"/>
      <point x="165" y="1380"/>
      <point x="165" y="1222"/>
      <point x="165" y="1025" type="curve" smooth="yes"/>
      <point x="165" y="435" type="line" smooth="yes"/>
      <point x="165" y="238"/>
      <point x="165" y="80"/>
      <point x="150" y="0" type="curve"/>
    </contour>
    <contour>
      <point x="400" y="1280" type="line"/>
      <point x="400" y="1280"/>
      <point x="400" y="1055"/>
      <point x="400" y="1055" type="curve"/>
      <point x="630" y="1055" type="line" smooth="yes"/>
      <point x="815" y="1055"/>
      <point x="905" y="1016"/>
      <point x="905" y="885" type="curve" smooth="yes"/>
      <point x="905" y="759"/>
      <point x="805" y="715"/>
      <point x="630" y="715" type="curve" smooth="yes"/>
      <point x="400" y="715" type="line"/>
      <point x="400" y="715"/>
      <point x="400" y="495"/>
      <point x="400" y="495" type="curve"/>
      <point x="695" y="495" type="line" smooth="yes"/>
      <point x="900" y="495"/>
      <point x="1190" y="583"/>
      <point x="1190" y="900" type="curve" smooth="yes"/>
      <point x="1190" y="1189"/>
      <point x="970" y="1280"/>
      <point x="645" y="1280" type="curve" smooth="yes"/>
    </contour>
  </outline>
</glyph>
<glyph name="LtnSmTnTwo" format="2">
  <advance width="1025"/>
  <unicode hex="01A8"/>
  <anchor x="525" y="-100" name="L"/>
  <anchor x="525" y="1100" name="U"/>
  <outline>
    <contour>
      <point x="215" y="745" type="line"/>
      <point x="329" y="800"/>
      <point x="394" y="820"/>
      <point x="495" y="820" type="curve" smooth="yes"/>
      <point x="595" y="820"/>
      <point x="650" y="792"/>
      <point x="650" y="745" type="curve" smooth="yes"/>
      <point x="650" y="680"/>
      <point x="611" y="674"/>
      <point x="450" y="615" type="curve" smooth="yes"/>
      <point x="223" y="532"/>
      <point x="100" y="444"/>
      <point x="100" y="300" type="curve" smooth="yes"/>
      <point x="100" y="92"/>
      <point x="263" y="-25"/>
      <point x="540" y="-25" type="curve" smooth="yes"/>
      <point x="694" y="-25"/>
      <point x="873" y="25"/>
      <point x="955" y="80" type="curve"/>
      <point x="885" y="320" type="line"/>
      <point x="780" y="239"/>
      <point x="668" y="200"/>
      <point x="550" y="200" type="curve" smooth="yes"/>
      <point x="420" y="200"/>
      <point x="370" y="235"/>
      <point x="370" y="300" type="curve" smooth="yes"/>
      <point x="370" y="339"/>
      <point x="435" y="379"/>
      <point x="617" y="447" type="curve" smooth="yes"/>
      <point x="821" y="523"/>
      <point x="920" y="616"/>
      <point x="920" y="745" type="curve" smooth="yes"/>
      <point x="920" y="894"/>
      <point x="830" y="1040"/>
      <point x="515" y="1040" type="curve" smooth="yes"/>
      <point x="393" y="1040"/>
      <point x="273" y="1019"/>
      <point x="170" y="975" type="curve"/>
    </contour>
  </outline>
</glyph>
<glyph name="LtnCapEsh" format="2">
  <advance width="1250"/>
  <unicode hex="01A9"/>
  <anchor x="590" y="-100" name="L"/>
  <anchor x="590" y="1530" name="U"/>
  <outline>
    <contour>
      <point x="767" y="746" type="line"/>
      <point x="437" y="1230" type="line"/>
      <point x="670" y="1230" type="line" smooth="yes"/>
      <point x="887" y="1230"/>
      <point x="1017" y="1227"/>
      <point x="1105" y="1210" type="curve"/>
      <point x="1105" y="1460" type="line"/>
      <point x="95" y="1460" type="line"/>
      <point x="95" y="1285" type="line"/>
      <point x="463" y="745" type="line"/>
      <point x="65" y="160" type="line"/>
      <point x="65" y="0" type="line"/>
      <point x="1165" y="0" type="line"/>
      <point x="1165" y="250" type="line"/>
      <point x="1085" y="236"/>
      <point x="926" y="230"/>
      <point x="730" y="230" type="curve" smooth="yes"/>
      <point x="395" y="230" type="line"/>
    </contour>
  </outline>
</glyph>
<glyph name="LtnRevEshLoop" format="2">
  <advance width="1001"/>
  <unicode hex="01AA"/>
  <anchor x="505" y="-500" name="L"/>
  <anchor x="388" y="1635" name="U"/>
  <outline>
    <contour>
      <point x="845" y="-470" type="curve" smooth="yes"/>
      <point x="942" y="-470"/>
      <point x="1057" y="-415"/>
      <point x="1101" y="-379" type="curve"/>
      <point x="1039" y="-146" type="line"/>
      <point x="994" y="-180"/>
      <point x="929" y="-226"/>
      <point x="853" y="-226" type="curve" smooth="yes"/>
      <point x="743" y="-226"/>
      <point x="703" y="-151"/>
      <point x="703" y="-40" type="curve" smooth="yes"/>
      <point x="703" y="109"/>
      <point x="755" y="1028"/>
      <point x="755" y="1228" type="curve" smooth="yes"/>
      <point x="755" y="1462"/>
      <point x="602" y="1620"/>
      <point x="371" y="1620" type="curve" smooth="yes"/>
      <point x="134" y="1620"/>
      <point x="-10" y="1441"/>
      <point x="-10" y="1207" type="curve" smooth="yes"/>
      <point x="-10" y="961"/>
      <point x="154" y="821"/>
      <point x="356" y="821" type="curve" smooth="yes"/>
      <point x="403" y="821"/>
      <point x="443" y="836"/>
      <point x="478" y="857" type="curve"/>
      <point x="457" y="528"/>
      <point x="439" y="89"/>
      <point x="439" y="-55" type="curve" smooth="yes"/>
      <point x="439" y="-248"/>
      <point x="536" y="-470"/>
    </contour>
    <contour>
      <point x="366" y="1048" type="curve" smooth="yes"/>
      <point x="281" y="1048"/>
      <point x="222" y="1120"/>
      <point x="222" y="1220" type="curve" smooth="yes"/>
      <point x="222" y="1313"/>
      <point x="278" y="1392"/>
      <point x="366" y="1392" type="curve" smooth="yes"/>
      <point x="447" y="1392"/>
      <point x="512" y="1327"/>
      <point x="512" y="1220" type="curve" smooth="yes"/>
      <point x="512" y="1135"/>
      <point x="454" y="1048"/>
    </contour>
  </outline>
</glyph>
<glyph name="LtnCapVHook" format="2">
  <advance width="1560"/>
  <unicode hex="01B2"/>
  <anchor x="784" y="-100" name="L"/>
  <anchor x="754" y="1530" name="U"/>
  <outline>
    <contour>
      <point x="866" y="1190" type="line"/>
      <point x="920" y="1221"/>
      <point x="976" y="1237"/>
      <point x="1029" y="1237" type="curve" smooth="yes"/>
      <point x="1141" y="1237"/>
      <point x="1170" y="1128"/>
      <point x="1170" y="963" type="curve" smooth="yes"/>
      <point x="1170" y="499"/>
      <point x="946" y="204"/>
      <point x="735" y="204" type="curve" smooth="yes"/>
      <point x="513" y="204"/>
      <point x="450" y="344"/>
      <point x="450" y="560" type="curve" smooth="yes"/>
      <point x="450" y="1460" type="line"/>
      <point x="150" y="1460" type="line"/>
      <point x="164" y="1380"/>
      <point x="165" y="1222"/>
      <point x="165" y="1025" type="curve" smooth="yes"/>
      <point x="165" y="515" type="line" smooth="yes"/>
      <point x="165" y="190"/>
      <point x="346" y="-25"/>
      <point x="735" y="-25" type="curve" smooth="yes"/>
      <point x="1205" y="-25"/>
      <point x="1450" y="522"/>
      <point x="1450" y="950" type="curve" smooth="yes"/>
      <point x="1450" y="1228"/>
      <point x="1332" y="1485"/>
      <point x="1037" y="1485" type="curve" smooth="yes"/>
      <point x="927" y="1485"/>
      <point x="853" y="1458"/>
      <point x="791" y="1424" type="curve"/>
    </contour>
  </outline>
</glyph>
<glyph name="LtnSmYHook.RtHook" format="2">
  <advance width="1305"/>
  <unicode hex="01B4"/>
  <anchor x="855" y="-100" name="L"/>
  <anchor x="562" y="-410" name="O"/>
  <anchor x="517" y="1100" name="U"/>
  <outline>
    <contour>
      <point x="245" y="-470" type="curve" smooth="yes"/>
      <point x="427" y="-470"/>
      <point x="569" y="-389"/>
      <point x="705" y="0" type="curve" smooth="yes"/>
      <point x="765" y="172"/>
      <point x="887" y="543"/>
      <point x="959" y="782" type="curve" smooth="yes"/>
      <point x="1063" y="1126"/>
      <point x="1115" y="1157"/>
      <point x="1183" y="1157" type="curve" smooth="yes"/>
      <point x="1232" y="1157"/>
      <point x="1291" y="1141"/>
      <point x="1348" y="1100" type="curve"/>
      <point x="1405" y="1330" type="line"/>
      <point x="1346" y="1368"/>
      <point x="1275" y="1390"/>
      <point x="1180" y="1390" type="curve" smooth="yes"/>
      <point x="1009" y="1390"/>
      <point x="879" y="1301"/>
      <point x="765" y="922" type="curve" smooth="yes"/>
      <point x="707" y="731"/>
      <point x="544" y="187"/>
      <point x="484" y="49" type="curve" smooth="yes"/>
      <point x="373" y="-208"/>
      <point x="304" y="-242"/>
      <point x="245" y="-242" type="curve" smooth="yes"/>
      <point x="179" y="-242"/>
      <point x="102" y="-202"/>
      <point x="60" y="-167" type="curve"/>
      <point x="-10" y="-385" type="line"/>
      <point x="63" y="-439"/>
      <point x="154" y="-470"/>
    </contour>
    <contour>
      <point x="469" y="-82" type="line"/>
      <point x="588" y="210" type="line"/>
      <point x="323" y="1020" type="line"/>
      <point x="20" y="1020" type="line"/>
      <point x="97" y="864"/>
      <point x="144" y="757"/>
      <point x="180" y="665" type="curve" smooth="yes"/>
    </contour>
  </outline>
</glyph>
<glyph name="LtnSmEzhTail" format="2">
  <advance width="1080"/>
  <unicode hex="01BA"/>
  <anchor x="530" y="-500" name="L"/>
  <anchor x="550" y="1100" name="U"/>
  <outline>
    <contour>
      <point x="110" y="1020" type="line"/>
      <point x="110" y="790" type="line"/>
      <point x="147" y="805"/>
      <point x="206" y="805"/>
      <point x="265" y="805" type="curve" smooth="yes"/>
      <point x="579" y="805" type="line"/>
      <point x="290" y="555" type="line"/>
      <point x="290" y="338" type="line"/>
      <point x="958" y="885" type="line"/>
      <point x="958" y="1020" type="line"/>
    </contour>
    <contour>
      <point x="933" y="-125" type="line"/>
      <point x="820" y="-213"/>
      <point x="682" y="-240"/>
      <point x="545" y="-240" type="curve" smooth="yes"/>
      <point x="437" y="-240"/>
      <point x="385" y="-204"/>
      <point x="385" y="-145" type="curve" smooth="yes"/>
      <point x="385" y="-64"/>
      <point x="478" y="-51"/>
      <point x="602" y="-18" type="curve" smooth="yes"/>
      <point x="872" y="53"/>
      <point x="968" y="150"/>
      <point x="968" y="305" type="curve" smooth="yes"/>
      <point x="968" y="462"/>
      <point x="810" y="583"/>
      <point x="575" y="583" type="curve" smooth="yes"/>
      <point x="494" y="583"/>
      <point x="379" y="566"/>
      <point x="313" y="539" type="curve"/>
      <point x="290" y="338" type="line"/>
      <point x="349" y="361"/>
      <point x="434" y="370"/>
      <point x="508" y="370" type="curve" smooth="yes"/>
      <point x="625" y="370"/>
      <point x="689" y="342"/>
      <point x="689" y="298" type="curve" smooth="yes"/>
      <point x="689" y="233"/>
      <point x="627" y="223"/>
      <point x="419" y="164" type="curve" smooth="yes"/>
      <point x="188" y="98"/>
      <point x="110" y="-15"/>
      <point x="110" y="-150" type="curve" smooth="yes"/>
      <point x="110" y="-352"/>
      <point x="283" y="-470"/>
      <point x="525" y="-470" type="curve" smooth="yes"/>
      <point x="690" y="-470"/>
      <point x="880" y="-421"/>
      <point x="980" y="-355" type="curve"/>
    </contour>
  </outline>
</glyph>
<glyph name="LtnSmTnFive" format="2">
  <advance width="950"/>
  <unicode hex="01BD"/>
  <anchor x="485" y="-100" name="L"/>
  <anchor x="485" y="1100" name="U"/>
  <outline>
    <contour>
      <point x="825" y="1020" type="line"/>
      <point x="165" y="1020" type="line"/>
      <point x="165" y="510" type="line"/>
      <point x="499" y="510"/>
      <point x="590" y="433"/>
      <point x="590" y="345" type="curve" smooth="yes"/>
      <point x="590" y="263"/>
      <point x="528" y="200"/>
      <point x="425" y="200" type="curve" smooth="yes"/>
      <point x="325" y="200"/>
      <point x="254" y="232"/>
      <point x="160" y="310" type="curve"/>
      <point x="100" y="65" type="line"/>
      <point x="186" y="10"/>
      <point x="293" y="-25"/>
      <point x="410" y="-25" type="curve" smooth="yes"/>
      <point x="675" y="-25"/>
      <point x="870" y="115"/>
      <point x="870" y="335" type="curve" smooth="yes"/>
      <point x="870" y="567"/>
      <point x="692" y="680"/>
      <point x="445" y="705" type="curve"/>
      <point x="445" y="820" type="line"/>
      <point x="615" y="820" type="line" smooth="yes"/>
      <point x="689" y="820"/>
      <point x="750" y="818"/>
      <point x="825" y="805" type="curve"/>
    </contour>
  </outline>
</glyph>
<glyph name="LtnSmGStrk.SngBowl" format="2">
  <advance width="1125"/>
  <unicode hex="01E5"/>
  <anchor x="570" y="-500" name="L"/>
  <anchor x="650" y="1100" name="U"/>
  <outline>
    <contour>
      <point x="570" y="-470" type="curve" smooth="yes"/>
      <point x="811" y="-470"/>
      <point x="1060" y="-327"/>
      <point x="1060" y="25" type="curve" smooth="yes"/>
      <point x="1060" y="965" type="line"/>
      <point x="942" y="1001"/>
      <point x="792" y="1040"/>
      <point x="661" y="1040" type="curve" smooth="yes"/>
      <point x="267" y="1040"/>
      <point x="100" y="742"/>
      <point x="100" y="435" type="curve" smooth="yes"/>
      <point x="100" y="117"/>
      <point x="266" y="-5"/>
      <point x="445" y="-5" type="curve" smooth="yes"/>
      <point x="552" y="-5"/>
      <point x="679" y="51"/>
      <point x="780" y="175" type="curve"/>
      <point x="780" y="-10" type="line" smooth="yes"/>
      <point x="780" y="-193"/>
      <point x="626" y="-246"/>
      <point x="530" y="-246" type="curve" smooth="yes"/>
      <point x="431" y="-246"/>
      <point x="334" y="-199"/>
      <point x="240" y="-131" type="curve"/>
      <point x="155" y="-340" type="line"/>
      <point x="270" y="-417"/>
      <point x="432" y="-470"/>
    </contour>
    <contour>
      <point x="526" y="-190" type="line"/>
      <point x="1195" y="-190" type="line"/>
      <point x="1195" y="-40" type="line"/>
      <point x="526" y="-40" type="line"/>
    </contour>
    <contour>
      <point x="545" y="233" type="curve" smooth="yes"/>
      <point x="450" y="233"/>
      <point x="380" y="290"/>
      <point x="380" y="485" type="curve" smooth="yes"/>
      <point x="380" y="641"/>
      <point x="448" y="802"/>
      <point x="625" y="802" type="curve" smooth="yes"/>
      <point x="670" y="802"/>
      <point x="733" y="786"/>
      <point x="780" y="762" type="curve"/>
      <point x="780" y="416" type="line"/>
      <point x="717" y="299"/>
      <point x="618" y="233"/>
    </contour>
  </outline>
</glyph>
<glyph name="LtnCapYogh" format="2">
  <advance width="1200"/>
  <unicode hex="021C"/>
  <anchor x="597" y="-300" name="L"/>
  <anchor x="510" y="1530" name="U"/>
  <outline>
    <contour>
      <point x="175" y="-260" type="line"/>
      <point x="484" y="-222"/>
      <point x="1075" y="-86"/>
      <point x="1075" y="350" type="curve" smooth="yes"/>
      <point x="1075" y="651"/>
      <point x="858" y="735"/>
      <point x="650" y="750" type="curve"/>
      <point x="475" y="575" type="line"/>
      <point x="683" y="575"/>
      <point x="790" y="508"/>
      <point x="790" y="370" type="curve" smooth="yes"/>
      <point x="790" y="126"/>
      <point x="430" y="-4"/>
      <point x="110" y="-50" type="curve"/>
    </contour>
    <contour>
      <point x="175" y="1130" type="line"/>
      <point x="312" y="1215"/>
      <point x="423" y="1240"/>
      <point x="530" y="1240" type="curve" smooth="yes"/>
      <point x="636" y="1240"/>
      <point x="710" y="1170"/>
      <point x="710" y="1065" type="curve" smooth="yes"/>
      <point x="710" y="906"/>
      <point x="583" y="800"/>
      <point x="266" y="715" type="curve"/>
      <point x="330" y="480" type="line"/>
      <point x="665" y="585"/>
      <point x="995" y="718"/>
      <point x="995" y="1090" type="curve" smooth="yes"/>
      <point x="995" y="1344"/>
      <point x="804" y="1485"/>
      <point x="530" y="1485" type="curve" smooth="yes"/>
      <point x="396" y="1485"/>
      <point x="273" y="1461"/>
      <point x="120" y="1375" type="curve"/>
    </contour>
  </outline>
</glyph>
<glyph name="LtnSmYogh" format="2">
  <advance width="950"/>
  <unicode hex="021D"/>
  <anchor x="430" y="-500" name="L"/>
  <anchor x="410" y="1100" name="U"/>
  <outline>
    <contour>
      <point x="110" y="710" type="line"/>
      <point x="233" y="793"/>
      <point x="305" y="815"/>
      <point x="405" y="815" type="curve" smooth="yes"/>
      <point x="502" y="815"/>
      <point x="545" y="767"/>
      <point x="545" y="685" type="curve" smooth="yes"/>
      <point x="545" y="557"/>
      <point x="443" y="461"/>
      <point x="165" y="385" type="curve"/>
      <point x="225" y="165" type="line"/>
      <point x="316" y="192"/>
      <point x="390" y="215"/>
      <point x="472" y="251" type="curve"/>
      <point x="566" y="230"/>
      <point x="615" y="171"/>
      <point x="615" y="100" type="curve" smooth="yes"/>
      <point x="615" y="-110"/>
      <point x="341" y="-205"/>
      <point x="40" y="-250" type="curve"/>
      <point x="100" y="-470" type="line"/>
      <point x="373" y="-438"/>
      <point x="895" y="-288"/>
      <point x="895" y="80" type="curve" smooth="yes"/>
      <point x="895" y="259"/>
      <point x="793" y="348"/>
      <point x="670" y="388" type="curve"/>
      <point x="764" y="462"/>
      <point x="825" y="561"/>
      <point x="825" y="705" type="curve" smooth="yes"/>
      <point x="825" y="921"/>
      <point x="662" y="1040"/>
      <point x="420" y="1040" type="curve" smooth="yes"/>
      <point x="299" y="1040"/>
      <point x="169" y="1007"/>
      <point x="55" y="935" type="curve"/>
    </contour>
  </outline>
</glyph>
<glyph name="LtnCapOu" format="2">
  <advance width="1220"/>
  <unicode hex="0222"/>
  <anchor x="610" y="-100" name="L"/>
  <anchor x="610" y="1530" name="U"/>
  <outline>
    <contour>
      <point x="395" y="815" type="line"/>
      <point x="216" y="737"/>
      <point x="85" y="637"/>
      <point x="85" y="405" type="curve" smooth="yes"/>
      <point x="85" y="146"/>
      <point x="322" y="-25"/>
      <point x="610" y="-25" type="curve" smooth="yes"/>
      <point x="872" y="-25"/>
      <point x="1135" y="122"/>
      <point x="1135" y="410" type="curve" smooth="yes"/>
      <point x="1135" y="685"/>
      <point x="979" y="787"/>
      <point x="730" y="865" type="curve" smooth="yes"/>
      <point x="489" y="941"/>
      <point x="430" y="1002"/>
      <point x="430" y="1090" type="curve" smooth="yes"/>
      <point x="430" y="1204"/>
      <point x="513" y="1240"/>
      <point x="610" y="1240" type="curve" smooth="yes"/>
      <point x="715" y="1240"/>
      <point x="790" y="1194"/>
      <point x="790" y="1099" type="curve" smooth="yes"/>
      <point x="790" y="995"/>
      <point x="721" y="911"/>
      <point x="595" y="860" type="curve"/>
      <point x="825" y="780" type="line"/>
      <point x="982" y="854"/>
      <point x="1075" y="955"/>
      <point x="1075" y="1125" type="curve" smooth="yes"/>
      <point x="1075" y="1350"/>
      <point x="854" y="1485"/>
      <point x="620" y="1485" type="curve" smooth="yes"/>
      <point x="369" y="1485"/>
      <point x="145" y="1345"/>
      <point x="145" y="1105" type="curve" smooth="yes"/>
      <point x="145" y="888"/>
      <point x="315" y="762"/>
      <point x="550" y="690" type="curve" smooth="yes"/>
      <point x="777" y="620"/>
      <point x="850" y="555"/>
      <point x="850" y="425" type="curve" smooth="yes"/>
      <point x="850" y="309"/>
      <point x="765" y="220"/>
      <point x="610" y="220" type="curve" smooth="yes"/>
      <point x="480" y="220"/>
      <point x="370" y="294"/>
      <point x="370" y="435" type="curve" smooth="yes"/>
      <point x="370" y="576"/>
      <point x="464" y="663"/>
      <point x="615" y="730" type="curve"/>
    </contour>
  </outline>
</glyph>
<glyph name="LtnSmLCurl" format="2">
  <advance width="911"/>
  <unicode hex="0234"/>
  <anchor x="540" y="-100" name="L"/>
  <anchor x="340" y="1635" name="U"/>
  <outline>
    <contour>
      <point x="487" y="1600" type="line"/>
      <point x="187" y="1600" type="line"/>
      <point x="200" y="1485"/>
      <point x="207" y="1324"/>
      <point x="207" y="1130" type="curve" smooth="yes"/>
      <point x="207" y="390" type="line"/>
      <point x="81" y="262"/>
      <point x="-20" y="39"/>
      <point x="-20" y="-181" type="curve"/>
      <point x="130" y="-213" type="line"/>
      <point x="145" y="-20"/>
      <point x="181" y="90"/>
      <point x="244" y="179" type="curve"/>
      <point x="300" y="44"/>
      <point x="422" y="-44"/>
      <point x="606" y="-44" type="curve" smooth="yes"/>
      <point x="781" y="-44"/>
      <point x="911" y="90"/>
      <point x="911" y="256" type="curve" smooth="yes"/>
      <point x="911" y="437"/>
      <point x="754" y="544"/>
      <point x="572" y="544" type="curve" smooth="yes"/>
      <point x="545" y="544"/>
      <point x="517" y="542"/>
      <point x="487" y="537" type="curve"/>
    </contour>
    <contour>
      <point x="489" y="360" type="curve"/>
      <point x="523" y="370"/>
      <point x="556" y="374"/>
      <point x="583" y="374" type="curve" smooth="yes"/>
      <point x="654" y="374"/>
      <point x="733" y="336"/>
      <point x="733" y="246" type="curve" smooth="yes"/>
      <point x="733" y="188"/>
      <point x="679" y="142"/>
      <point x="619" y="142" type="curve" smooth="yes"/>
      <point x="521" y="142"/>
      <point x="495" y="222"/>
    </contour>
  </outline>
</glyph>
<glyph name="LtnSmDBDigraph" format="2">
  <advance width="1920"/>
  <unicode hex="0238"/>
  <anchor x="956" y="-100" name="L"/>
  <anchor x="956" y="1635" name="U"/>
  <outline>
    <contour>
      <point x="1115" y="1600" type="line"/>
      <point x="810" y="1600" type="line"/>
      <point x="829" y="1516"/>
      <point x="835" y="1395"/>
      <point x="835" y="1235" type="curve" smooth="yes"/>
      <point x="835" y="955" type="line"/>
      <point x="763" y="999"/>
      <point x="669" y="1040"/>
      <point x="590" y="1040" type="curve" smooth="yes"/>
      <point x="319" y="1040"/>
      <point x="100" y="814"/>
      <point x="100" y="460" type="curve" smooth="yes"/>
      <point x="100" y="167"/>
      <point x="268" y="-25"/>
      <point x="515" y="-25" type="curve" smooth="yes"/>
      <point x="641" y="-25"/>
      <point x="749" y="34"/>
      <point x="835" y="141" type="curve"/>
      <point x="835" y="65" type="line"/>
      <point x="986" y="26"/>
      <point x="1157" y="-25"/>
      <point x="1350" y="-25" type="curve" smooth="yes"/>
      <point x="1639" y="-25"/>
      <point x="1825" y="197"/>
      <point x="1825" y="540" type="curve" smooth="yes"/>
      <point x="1825" y="832"/>
      <point x="1686" y="1040"/>
      <point x="1489" y="1040" type="curve" smooth="yes"/>
      <point x="1326" y="1040"/>
      <point x="1205" y="956"/>
      <point x="1115" y="845" type="curve"/>
    </contour>
    <contour>
      <point x="835" y="400" type="line"/>
      <point x="787" y="300"/>
      <point x="676" y="200"/>
      <point x="570" y="200" type="curve" smooth="yes"/>
      <point x="443" y="200"/>
      <point x="380" y="300"/>
      <point x="380" y="490" type="curve" smooth="yes"/>
      <point x="380" y="685"/>
      <point x="485" y="800"/>
      <point x="590" y="800" type="curve" smooth="yes"/>
      <point x="683" y="800"/>
      <point x="743" y="783"/>
      <point x="835" y="738" type="curve"/>
    </contour>
    <contour>
      <point x="1115" y="585" type="line"/>
      <point x="1171" y="709"/>
      <point x="1280" y="795"/>
      <point x="1383" y="795" type="curve" smooth="yes"/>
      <point x="1493" y="795"/>
      <point x="1555" y="684"/>
      <point x="1555" y="505" type="curve" smooth="yes"/>
      <point x="1555" y="317"/>
      <point x="1450" y="190"/>
      <point x="1305" y="190" type="curve" smooth="yes"/>
      <point x="1238" y="190"/>
      <point x="1192" y="204"/>
      <point x="1115" y="240" type="curve"/>
    </contour>
  </outline>
</glyph>
<glyph name="LtnSmCStrk" format="2">
  <advance width="1020"/>
  <unicode hex="023C"/>
  <outline>
    <component base="LtnSmC"/>
    <contour>
      <point x="735" y="1130" type="line"/>
      <point x="155" y="-115" type="line"/>
      <point x="365" y="-115" type="line"/>
      <point x="945" y="1130" type="line"/>
    </contour>
  </outline>
</glyph>
<glyph name="LtnCapGlottalStop" format="2">
  <advance width="1185"/>
  <unicode hex="0241"/>
  <anchor x="530" y="-100" name="L"/>
  <anchor x="530" y="1530" name="U"/>
  <outline>
    <contour>
      <point x="180" y="1106" type="line"/>
      <point x="274" y="1191"/>
      <point x="386" y="1240"/>
      <point x="540" y="1240" type="curve" smooth="yes"/>
      <point x="706" y="1240"/>
      <point x="799" y="1184"/>
      <point x="799" y="1095" type="curve" smooth="yes"/>
      <point x="799" y="1020"/>
      <point x="714" y="947"/>
      <point x="634" y="880" type="curve" smooth="yes"/>
      <point x="525" y="788"/>
      <point x="391" y="628"/>
      <point x="391" y="385" type="curve" smooth="yes"/>
      <point x="391" y="188"/>
      <point x="391" y="80"/>
      <point x="376" y="0" type="curve"/>
      <point x="686" y="0" type="line"/>
      <point x="671" y="76"/>
      <point x="671" y="178"/>
      <point x="671" y="385" type="curve" smooth="yes"/>
      <point x="671" y="577"/>
      <point x="771" y="697"/>
      <point x="869" y="774" type="curve" smooth="yes"/>
      <point x="973" y="856"/>
      <point x="1085" y="958"/>
      <point x="1085" y="1125" type="curve" smooth="yes"/>
      <point x="1085" y="1335"/>
      <point x="857" y="1485"/>
      <point x="570" y="1485" type="curve" smooth="yes"/>
      <point x="352" y="1485"/>
      <point x="231" y="1424"/>
      <point x="135" y="1340" type="curve"/>
    </contour>
  </outline>
</glyph>
<glyph name="LtnSmGlottalStop" format="2">
  <advance width="830"/>
  <unicode hex="0242"/>
  <anchor x="370" y="-100" name="L"/>
  <anchor x="390" y="1100" name="U"/>
  <outline>
    <contour>
      <point x="121" y="723" type="line"/>
      <point x="185" y="786"/>
      <point x="283" y="813"/>
      <point x="350" y="813" type="curve" smooth="yes"/>
      <point x="413" y="813"/>
      <point x="477" y="789"/>
      <point x="477" y="733" type="curve" smooth="yes"/>
      <point x="477" y="684"/>
      <point x="455" y="654"/>
      <point x="393" y="595" type="curve" smooth="yes"/>
      <point x="312" y="519"/>
      <point x="240" y="427"/>
      <point x="240" y="245" type="curve" smooth="yes"/>
      <point x="240" y="97"/>
      <point x="237" y="64"/>
      <point x="225" y="0" type="curve"/>
      <point x="505" y="0" type="line"/>
      <point x="493" y="61"/>
      <point x="490" y="93"/>
      <point x="490" y="245" type="curve" smooth="yes"/>
      <point x="490" y="388"/>
      <point x="549" y="458"/>
      <point x="612" y="517" type="curve" smooth="yes"/>
      <point x="674" y="575"/>
      <point x="735" y="633"/>
      <point x="735" y="773" type="curve" smooth="yes"/>
      <point x="735" y="899"/>
      <point x="590" y="1040"/>
      <point x="400" y="1040" type="curve" smooth="yes"/>
      <point x="276" y="1040"/>
      <point x="150" y="1000"/>
      <point x="85" y="950" type="curve"/>
    </contour>
  </outline>
</glyph>
<glyph name="LtnSmEStrk" format="2">
  <advance width="1110"/>
  <unicode hex="0247"/>
  <anchor x="575" y="-100" name="L"/>
  <anchor x="575" y="1100" name="U"/>
  <outline>
    <contour>
      <point x="1010" y="450" type="line"/>
      <point x="1010" y="469"/>
      <point x="1009" y="513"/>
      <point x="1009" y="532" type="curve" smooth="yes"/>
      <point x="1009" y="782"/>
      <point x="924" y="1040"/>
      <point x="589" y="1040" type="curve" smooth="yes"/>
      <point x="281" y="1040"/>
      <point x="90" y="826"/>
      <point x="90" y="495" type="curve" smooth="yes"/>
      <point x="90" y="155"/>
      <point x="324" y="-25"/>
      <point x="589" y="-25" type="curve" smooth="yes"/>
      <point x="745" y="-25"/>
      <point x="871" y="2"/>
      <point x="1015" y="75" type="curve"/>
      <point x="994" y="306" type="line"/>
      <point x="870" y="232"/>
      <point x="745" y="205"/>
      <point x="614" y="205" type="curve" smooth="yes"/>
      <point x="448" y="205"/>
      <point x="342" y="293"/>
      <point x="342" y="505" type="curve" smooth="yes"/>
      <point x="342" y="739"/>
      <point x="431" y="830"/>
      <point x="575" y="830" type="curve" smooth="yes"/>
      <point x="693" y="830"/>
      <point x="775" y="770"/>
      <point x="775" y="630" type="curve"/>
      <point x="242" y="630" type="line"/>
      <point x="242" y="450" type="line"/>
    </contour>
    <contour>
      <point x="735" y="1130" type="line"/>
      <point x="155" y="-115" type="line"/>
      <point x="365" y="-115" type="line"/>
      <point x="945" y="1130" type="line"/>
    </contour>
  </outline>
</glyph>
<glyph name="LtnCapRBarredStem" format="2">
  <advance width="1445"/>
  <unicode hex="024C"/>
  <anchor x="750" y="-100" name="L"/>
  <anchor x="700" y="1530" name="U"/>
  <outline>
    <contour>
      <point x="515" y="585" type="line"/>
      <point x="690" y="585" type="line" smooth="yes"/>
      <point x="975" y="585"/>
      <point x="1240" y="723"/>
      <point x="1240" y="1040" type="curve" smooth="yes"/>
      <point x="1240" y="1329"/>
      <point x="1026" y="1470"/>
      <point x="715" y="1470" type="curve" smooth="yes"/>
      <point x="481" y="1470"/>
      <point x="215" y="1460"/>
      <point x="215" y="1460" type="curve"/>
      <point x="230" y="1380"/>
      <point x="230" y="1196"/>
      <point x="230" y="1000" type="curve" smooth="yes"/>
      <point x="230" y="435" type="line" smooth="yes"/>
      <point x="230" y="238"/>
      <point x="230" y="80"/>
      <point x="215" y="0" type="curve"/>
      <point x="530" y="0" type="line"/>
      <point x="516" y="78"/>
      <point x="515" y="238"/>
      <point x="515" y="435" type="curve" smooth="yes"/>
    </contour>
    <contour>
      <point x="515" y="1240" type="line"/>
      <point x="568" y="1243"/>
      <point x="602" y="1245"/>
      <point x="680" y="1245" type="curve" smooth="yes"/>
      <point x="857" y="1245"/>
      <point x="955" y="1186"/>
      <point x="955" y="1035" type="curve" smooth="yes"/>
      <point x="955" y="859"/>
      <point x="845" y="800"/>
      <point x="670" y="800" type="curve" smooth="yes"/>
      <point x="515" y="800" type="line"/>
    </contour>
    <contour>
      <point x="621" y="635" type="line"/>
      <point x="1040" y="0" type="line"/>
      <point x="1395" y="0" type="line"/>
      <point x="1328" y="73"/>
      <point x="892" y="687"/>
      <point x="892" y="687" type="curve"/>
    </contour>
    <contour>
      <point x="-10" y="800" type="line"/>
      <point x="-10" y="585" type="line"/>
      <point x="585" y="585" type="line"/>
      <point x="585" y="800" type="line"/>
    </contour>
  </outline>
</glyph>
<glyph name="LtnSmTurnedA" format="2">
  <advance width="1195"/>
  <unicode hex="0250"/>
  <anchor x="590" y="-100" name="L"/>
  <anchor x="1195" y="1000" name="R"/>
  <anchor x="590" y="1100" name="U"/>
  <outline>
    <contour>
      <point x="155" y="255" type="line" smooth="yes"/>
      <point x="155" y="96"/>
      <point x="328" y="-25"/>
      <point x="590" y="-25" type="curve" smooth="yes"/>
      <point x="759" y="-25"/>
      <point x="876" y="21"/>
      <point x="990" y="65" type="curve"/>
      <point x="996" y="147"/>
      <point x="999" y="280"/>
      <point x="1000" y="324" type="curve"/>
      <point x="883" y="242"/>
      <point x="781" y="199"/>
      <point x="675" y="199" type="curve" smooth="yes"/>
      <point x="525" y="199"/>
      <point x="435" y="230"/>
      <point x="435" y="305" type="curve" smooth="yes"/>
      <point x="435" y="355" type="line"/>
      <point x="476" y="356"/>
      <point x="636" y="366"/>
      <point x="705" y="373" type="curve" smooth="yes"/>
      <point x="1014" y="403"/>
      <point x="1105" y="577"/>
      <point x="1105" y="730" type="curve" smooth="yes"/>
      <point x="1105" y="894"/>
      <point x="960" y="1040"/>
      <point x="760" y="1040" type="curve" smooth="yes"/>
      <point x="643" y="1040"/>
      <point x="517" y="992"/>
      <point x="405" y="880" type="curve"/>
      <point x="391" y="936"/>
      <point x="367" y="987"/>
      <point x="355" y="1015" type="curve"/>
      <point x="85" y="1015" type="line"/>
      <point x="127" y="903"/>
      <point x="155" y="789"/>
      <point x="155" y="645" type="curve" smooth="yes"/>
    </contour>
    <contour>
      <point x="435" y="660" type="line"/>
      <point x="531" y="790"/>
      <point x="605" y="810"/>
      <point x="687" y="810" type="curve" smooth="yes"/>
      <point x="769" y="810"/>
      <point x="825" y="759"/>
      <point x="825" y="695" type="curve" smooth="yes"/>
      <point x="825" y="629"/>
      <point x="783" y="573"/>
      <point x="645" y="558" type="curve" smooth="yes"/>
      <point x="594" y="552"/>
      <point x="475" y="541"/>
      <point x="435" y="540" type="curve"/>
    </contour>
  </outline>
</glyph>
<glyph name="LtnSmTurnedAlpha" format="2">
  <advance width="1256"/>
  <unicode hex="0252"/>
  <anchor x="535" y="0" name="H"/>
  <anchor x="585" y="-100" name="L"/>
  <anchor x="755" y="0" name="O"/>
  <anchor x="1256" y="1000" name="R"/>
  <anchor x="585" y="1100" name="U"/>
  <outline>
    <contour>
      <point x="95" y="1015" type="line"/>
      <point x="134" y="903"/>
      <point x="160" y="737"/>
      <point x="160" y="485" type="curve" smooth="yes"/>
      <point x="160" y="20" type="line"/>
      <point x="274" y="-6"/>
      <point x="424" y="-25"/>
      <point x="569" y="-25" type="curve" smooth="yes"/>
      <point x="983" y="-25"/>
      <point x="1166" y="287"/>
      <point x="1166" y="605" type="curve" smooth="yes"/>
      <point x="1166" y="888"/>
      <point x="1034" y="1040"/>
      <point x="866" y="1040" type="curve" smooth="yes"/>
      <point x="657" y="1040"/>
      <point x="500" y="837"/>
      <point x="416" y="665" type="curve"/>
      <point x="416" y="722" type="line" smooth="yes"/>
      <point x="416" y="796"/>
      <point x="390" y="968"/>
      <point x="361" y="1015" type="curve"/>
    </contour>
    <contour>
      <point x="446" y="285" type="line"/>
      <point x="446" y="399"/>
      <point x="627" y="802"/>
      <point x="776" y="802" type="curve" smooth="yes"/>
      <point x="836" y="802"/>
      <point x="886" y="722"/>
      <point x="886" y="605" type="curve" smooth="yes"/>
      <point x="886" y="397"/>
      <point x="822" y="199"/>
      <point x="611" y="199" type="curve" smooth="yes"/>
      <point x="526" y="199"/>
      <point x="474" y="212"/>
      <point x="446" y="219" type="curve"/>
    </contour>
  </outline>
</glyph>
<glyph name="LtnSmDHook" format="2">
  <advance width="1280"/>
  <unicode hex="0257"/>
  <anchor x="595" y="-100" name="L"/>
  <anchor x="610" y="1635" name="U"/>
  <outline>
    <contour>
      <point x="1470" y="1550" type="line"/>
      <point x="1411" y="1588"/>
      <point x="1304" y="1620"/>
      <point x="1230" y="1620" type="curve" smooth="yes"/>
      <point x="983" y="1620"/>
      <point x="835" y="1482"/>
      <point x="835" y="1210" type="curve" smooth="yes"/>
      <point x="835" y="1115"/>
      <point x="835" y="1042"/>
      <point x="835" y="955" type="curve"/>
      <point x="763" y="999"/>
      <point x="669" y="1040"/>
      <point x="590" y="1040" type="curve" smooth="yes"/>
      <point x="319" y="1040"/>
      <point x="100" y="814"/>
      <point x="100" y="460" type="curve" smooth="yes"/>
      <point x="100" y="167"/>
      <point x="268" y="-25"/>
      <point x="515" y="-25" type="curve" smooth="yes"/>
      <point x="654" y="-25"/>
      <point x="770" y="47"/>
      <point x="860" y="175" type="curve"/>
      <point x="877" y="105"/>
      <point x="900" y="32"/>
      <point x="915" y="0" type="curve"/>
      <point x="1190" y="0" type="line"/>
      <point x="1147" y="112"/>
      <point x="1115" y="278"/>
      <point x="1115" y="530" type="curve" smooth="yes"/>
      <point x="1115" y="663"/>
      <point x="1115" y="1021"/>
      <point x="1115" y="1199" type="curve" smooth="yes"/>
      <point x="1115" y="1334"/>
      <point x="1157" y="1387"/>
      <point x="1253" y="1387" type="curve" smooth="yes"/>
      <point x="1302" y="1387"/>
      <point x="1370" y="1362"/>
      <point x="1413" y="1322" type="curve"/>
    </contour>
    <contour>
      <point x="835" y="400" type="line"/>
      <point x="787" y="300"/>
      <point x="676" y="200"/>
      <point x="570" y="200" type="curve" smooth="yes"/>
      <point x="443" y="200"/>
      <point x="380" y="300"/>
      <point x="380" y="490" type="curve" smooth="yes"/>
      <point x="380" y="685"/>
      <point x="485" y="800"/>
      <point x="590" y="800" type="curve" smooth="yes"/>
      <point x="683" y="800"/>
      <point x="743" y="783"/>
      <point x="835" y="738" type="curve"/>
    </contour>
  </outline>
</glyph>
<glyph name="LtnSmRevE" format="2">
  <advance width="1100"/>
  <unicode hex="0258"/>
  <anchor x="553" y="-100" name="L"/>
  <anchor x="1096" y="1000" name="R"/>
  <anchor x="553" y="1100" name="U"/>
  <outline>
    <contour>
      <point x="110" y="75" type="line"/>
      <point x="254" y="2"/>
      <point x="360" y="-25"/>
      <point x="516" y="-25" type="curve" smooth="yes"/>
      <point x="781" y="-25"/>
      <point x="1015" y="165"/>
      <point x="1015" y="505" type="curve" smooth="yes"/>
      <point x="1015" y="846"/>
      <point x="839" y="1040"/>
      <point x="521" y="1040" type="curve" smooth="yes"/>
      <point x="186" y="1040"/>
      <point x="96" y="782"/>
      <point x="96" y="532" type="curve" smooth="yes"/>
      <point x="96" y="513"/>
      <point x="95" y="469"/>
      <point x="95" y="450" type="curve"/>
      <point x="863" y="450" type="line"/>
      <point x="863" y="630" type="line"/>
      <point x="350" y="630" type="line"/>
      <point x="350" y="770"/>
      <point x="412" y="830"/>
      <point x="530" y="830" type="curve" smooth="yes"/>
      <point x="674" y="830"/>
      <point x="743" y="739"/>
      <point x="743" y="505" type="curve" smooth="yes"/>
      <point x="743" y="293"/>
      <point x="657" y="200"/>
      <point x="491" y="200" type="curve" smooth="yes"/>
      <point x="360" y="200"/>
      <point x="255" y="232"/>
      <point x="131" y="306" type="curve"/>
    </contour>
  </outline>
</glyph>
<glyph name="LtnSmSchwaHook" format="2">
  <advance width="1508"/>
  <unicode hex="025A"/>
  <anchor x="596" y="0" name="H"/>
  <anchor x="600" y="-100" name="L"/>
  <anchor x="800" y="0" name="O"/>
  <anchor x="560" y="1100" name="U"/>
  <outline>
    <contour>
      <point x="131" y="689" type="line"/>
      <point x="237" y="777"/>
      <point x="339" y="810"/>
      <point x="451" y="810" type="curve" smooth="yes"/>
      <point x="631" y="810"/>
      <point x="723" y="719"/>
      <point x="723" y="500" type="curve" smooth="yes"/>
      <point x="723" y="273"/>
      <point x="660" y="185"/>
      <point x="530" y="185" type="curve" smooth="yes"/>
      <point x="412" y="185"/>
      <point x="352" y="244"/>
      <point x="352" y="344" type="curve"/>
      <point x="1165" y="736" type="line"/>
      <point x="1165" y="925" type="line"/>
      <point x="87" y="403" type="line"/>
      <point x="87" y="258"/>
      <point x="153" y="-25"/>
      <point x="516" y="-25" type="curve" smooth="yes"/>
      <point x="812" y="-25"/>
      <point x="995" y="185"/>
      <point x="995" y="510" type="curve" smooth="yes"/>
      <point x="995" y="857"/>
      <point x="751" y="1040"/>
      <point x="476" y="1040" type="curve" smooth="yes"/>
      <point x="344" y="1040"/>
      <point x="236" y="1007"/>
      <point x="110" y="920" type="curve"/>
    </contour>
    <contour>
      <point x="1445" y="715" type="line"/>
      <point x="1413" y="670"/>
      <point x="1371" y="640"/>
      <point x="1325" y="640" type="curve" smooth="yes"/>
      <point x="1279" y="640"/>
      <point x="1230" y="674"/>
      <point x="1230" y="735" type="curve" smooth="yes"/>
      <point x="1230" y="757"/>
      <point x="1237" y="779"/>
      <point x="1245" y="800" type="curve"/>
      <point x="1165" y="925" type="line"/>
      <point x="1108" y="875"/>
      <point x="1075" y="781"/>
      <point x="1075" y="715" type="curve" smooth="yes"/>
      <point x="1075" y="578"/>
      <point x="1164" y="485"/>
      <point x="1295" y="485" type="curve" smooth="yes"/>
      <point x="1384" y="485"/>
      <point x="1459" y="532"/>
      <point x="1515" y="595" type="curve"/>
    </contour>
  </outline>
</glyph>
<glyph name="LtnSmOpnE" format="2">
  <advance width="980"/>
  <unicode hex="025B"/>
  <anchor x="530" y="0" name="H"/>
  <anchor x="530" y="-100" name="L"/>
  <anchor x="820" y="0" name="O"/>
  <anchor x="1000" y="1000" name="R"/>
  <anchor x="530" y="1100" name="U"/>
  <outline>
    <contour>
      <point x="870" y="960" type="line"/>
      <point x="793" y="1011"/>
      <point x="670" y="1040"/>
      <point x="525" y="1040" type="curve" smooth="yes"/>
      <point x="236" y="1040"/>
      <point x="135" y="885"/>
      <point x="135" y="755" type="curve" smooth="yes"/>
      <point x="135" y="663"/>
      <point x="220" y="570"/>
      <point x="335" y="535" type="curve"/>
      <point x="197" y="508"/>
      <point x="85" y="412"/>
      <point x="85" y="275" type="curve" smooth="yes"/>
      <point x="85" y="136"/>
      <point x="215" y="-25"/>
      <point x="505" y="-25" type="curve" smooth="yes"/>
      <point x="637" y="-25"/>
      <point x="756" y="2"/>
      <point x="900" y="75" type="curve"/>
      <point x="869" y="290" type="line"/>
      <point x="754" y="216"/>
      <point x="665" y="190"/>
      <point x="560" y="190" type="curve" smooth="yes"/>
      <point x="460" y="190"/>
      <point x="362" y="222"/>
      <point x="362" y="310" type="curve" smooth="yes"/>
      <point x="362" y="422"/>
      <point x="541" y="435"/>
      <point x="665" y="435" type="curve"/>
      <point x="665" y="629" type="line"/>
      <point x="535" y="629"/>
      <point x="412" y="654"/>
      <point x="412" y="730" type="curve" smooth="yes"/>
      <point x="412" y="780"/>
      <point x="450" y="831"/>
      <point x="540" y="831" type="curve" smooth="yes"/>
      <point x="651" y="831"/>
      <point x="752" y="798"/>
      <point x="823" y="741" type="curve"/>
    </contour>
  </outline>
</glyph>
<glyph name="LtnSmRevOpnE" format="2">
  <advance width="960"/>
  <unicode hex="025C"/>
  <anchor x="420" y="-100" name="L"/>
  <anchor x="475" y="1100" name="U"/>
  <outline>
    <contour>
      <point x="90" y="55" type="line"/>
      <point x="165" y="6"/>
      <point x="288" y="-25"/>
      <point x="440" y="-25" type="curve" smooth="yes"/>
      <point x="729" y="-25"/>
      <point x="880" y="140"/>
      <point x="880" y="290" type="curve" smooth="yes"/>
      <point x="880" y="412"/>
      <point x="780" y="500"/>
      <point x="655" y="525" type="curve"/>
      <point x="776" y="571"/>
      <point x="850" y="669"/>
      <point x="850" y="775" type="curve" smooth="yes"/>
      <point x="850" y="943"/>
      <point x="675" y="1040"/>
      <point x="480" y="1040" type="curve" smooth="yes"/>
      <point x="340" y="1040"/>
      <point x="228" y="1014"/>
      <point x="120" y="950" type="curve"/>
      <point x="170" y="735" type="line"/>
      <point x="240" y="792"/>
      <point x="326" y="830"/>
      <point x="435" y="830" type="curve" smooth="yes"/>
      <point x="526" y="830"/>
      <point x="570" y="790"/>
      <point x="570" y="745" type="curve" smooth="yes"/>
      <point x="570" y="672"/>
      <point x="500" y="627"/>
      <point x="330" y="627" type="curve"/>
      <point x="330" y="432" type="line"/>
      <point x="507" y="432"/>
      <point x="600" y="394"/>
      <point x="600" y="305" type="curve" smooth="yes"/>
      <point x="600" y="235"/>
      <point x="525" y="190"/>
      <point x="415" y="190" type="curve" smooth="yes"/>
      <point x="319" y="190"/>
      <point x="211" y="218"/>
      <point x="135" y="275" type="curve"/>
    </contour>
  </outline>
</glyph>
<glyph name="LtnSmGHook" format="2">
  <advance width="1275"/>
  <unicode hex="0260"/>
  <anchor x="607" y="-500" name="L"/>
  <anchor x="607" y="1635" name="U"/>
  <outline>
    <contour>
      <point x="570" y="-470" type="curve" smooth="yes"/>
      <point x="811" y="-470"/>
      <point x="1060" y="-327"/>
      <point x="1060" y="25" type="curve" smooth="yes"/>
      <point x="1060" y="1059" type="line" smooth="yes"/>
      <point x="1060" y="1204"/>
      <point x="1087" y="1247"/>
      <point x="1173" y="1247" type="curve" smooth="yes"/>
      <point x="1222" y="1247"/>
      <point x="1275" y="1222"/>
      <point x="1318" y="1182" type="curve"/>
      <point x="1375" y="1410" type="line"/>
      <point x="1316" y="1448"/>
      <point x="1224" y="1480"/>
      <point x="1150" y="1480" type="curve" smooth="yes"/>
      <point x="923" y="1480"/>
      <point x="780" y="1342"/>
      <point x="780" y="1070" type="curve" smooth="yes"/>
      <point x="780" y="1031" type="line"/>
      <point x="739" y="1036"/>
      <point x="699" y="1040"/>
      <point x="661" y="1040" type="curve" smooth="yes"/>
      <point x="267" y="1040"/>
      <point x="100" y="742"/>
      <point x="100" y="435" type="curve" smooth="yes"/>
      <point x="100" y="117"/>
      <point x="266" y="-5"/>
      <point x="445" y="-5" type="curve" smooth="yes"/>
      <point x="552" y="-5"/>
      <point x="679" y="51"/>
      <point x="780" y="175" type="curve"/>
      <point x="780" y="-10" type="line" smooth="yes"/>
      <point x="780" y="-193"/>
      <point x="626" y="-246"/>
      <point x="530" y="-246" type="curve" smooth="yes"/>
      <point x="431" y="-246"/>
      <point x="334" y="-199"/>
      <point x="240" y="-131" type="curve"/>
      <point x="155" y="-340" type="line"/>
      <point x="270" y="-417"/>
      <point x="432" y="-470"/>
    </contour>
    <contour>
      <point x="545" y="233" type="curve" smooth="yes"/>
      <point x="450" y="233"/>
      <point x="380" y="290"/>
      <point x="380" y="485" type="curve" smooth="yes"/>
      <point x="380" y="641"/>
      <point x="448" y="802"/>
      <point x="625" y="802" type="curve" smooth="yes"/>
      <point x="670" y="802"/>
      <point x="733" y="786"/>
      <point x="780" y="762" type="curve"/>
      <point x="780" y="416" type="line"/>
      <point x="717" y="299"/>
      <point x="618" y="233"/>
    </contour>
  </outline>
</glyph>
<glyph name="LtnSmRamsHorn" format="2">
  <advance width="1340"/>
  <unicode hex="0264"/>
  <anchor x="675" y="-100" name="L"/>
  <anchor x="1340" y="1000" name="R"/>
  <anchor x="675" y="1100" name="U"/>
  <outline>
    <contour>
      <point x="1310" y="950" type="line"/>
      <point x="1270" y="1015"/>
      <point x="1172" y="1040"/>
      <point x="1100" y="1040" type="curve" smooth="yes"/>
      <point x="895" y="1040"/>
      <point x="650" y="835"/>
      <point x="516" y="652" type="curve" smooth="yes"/>
      <point x="403" y="498"/>
      <point x="335" y="397"/>
      <point x="335" y="290" type="curve" smooth="yes"/>
      <point x="335" y="116"/>
      <point x="485" y="-25"/>
      <point x="670" y="-25" type="curve" smooth="yes"/>
      <point x="852" y="-25"/>
      <point x="1005" y="122"/>
      <point x="1005" y="290" type="curve" smooth="yes"/>
      <point x="1005" y="400"/>
      <point x="943" y="497"/>
      <point x="833" y="652" type="curve" smooth="yes"/>
      <point x="698" y="842"/>
      <point x="450" y="1040"/>
      <point x="240" y="1040" type="curve" smooth="yes"/>
      <point x="175" y="1040"/>
      <point x="70" y="1015"/>
      <point x="30" y="950" type="curve"/>
      <point x="100" y="730" type="line"/>
      <point x="128" y="777"/>
      <point x="182" y="820"/>
      <point x="240" y="820" type="curve" smooth="yes"/>
      <point x="335" y="820"/>
      <point x="470" y="740"/>
      <point x="610" y="560" type="curve" smooth="yes"/>
      <point x="719" y="420"/>
      <point x="745" y="363"/>
      <point x="745" y="290" type="curve" smooth="yes"/>
      <point x="745" y="225"/>
      <point x="710" y="200"/>
      <point x="670" y="200" type="curve" smooth="yes"/>
      <point x="630" y="200"/>
      <point x="595" y="225"/>
      <point x="595" y="290" type="curve" smooth="yes"/>
      <point x="595" y="363"/>
      <point x="622" y="415"/>
      <point x="738" y="560" type="curve" smooth="yes"/>
      <point x="882" y="740"/>
      <point x="1015" y="820"/>
      <point x="1105" y="820" type="curve" smooth="yes"/>
      <point x="1168" y="820"/>
      <point x="1216" y="777"/>
      <point x="1240" y="730" type="curve"/>
    </contour>
  </outline>
</glyph>
<glyph name="LtnSmIota" format="2">
  <advance width="871"/>
  <unicode hex="0269"/>
  <anchor x="360" y="0" name="H"/>
  <anchor x="360" y="-100" name="L"/>
  <anchor x="785" y="0" name="O"/>
  <anchor x="585" y="1000" name="R"/>
  <anchor x="285" y="1100" name="U"/>
  <outline>
    <contour>
      <point x="440" y="1020" type="line"/>
      <point x="145" y="1020" type="line"/>
      <point x="158" y="915"/>
      <point x="160" y="725"/>
      <point x="160" y="530" type="curve" smooth="yes"/>
      <point x="160" y="310" type="line" smooth="yes"/>
      <point x="160" y="103"/>
      <point x="313" y="-25"/>
      <point x="516" y="-25" type="curve" smooth="yes"/>
      <point x="614" y="-25"/>
      <point x="713" y="-2"/>
      <point x="821" y="80" type="curve"/>
      <point x="790" y="347" type="line"/>
      <point x="724" y="271"/>
      <point x="663" y="230"/>
      <point x="600" y="230" type="curve" smooth="yes"/>
      <point x="471" y="230"/>
      <point x="440" y="285"/>
      <point x="440" y="458" type="curve" smooth="yes"/>
    </contour>
  </outline>
</glyph>
<glyph name="LtnSmCapI" format="2">
  <advance width="940"/>
  <unicode hex="026A"/>
  <anchor x="470" y="0" name="H"/>
  <anchor x="470" y="-100" name="L"/>
  <anchor x="625" y="0" name="O"/>
  <anchor x="730" y="890" name="R"/>
  <anchor x="470" y="1091" name="U"/>
  <outline>
    <contour>
      <point x="135" y="1020" type="line"/>
      <point x="135" y="840" type="line"/>
      <point x="338" y="840" type="line"/>
      <point x="338" y="180" type="line"/>
      <point x="135" y="180" type="line"/>
      <point x="135" y="0" type="line"/>
      <point x="815" y="0" type="line"/>
      <point x="815" y="180" type="line"/>
      <point x="608" y="180" type="line"/>
      <point x="608" y="840" type="line"/>
      <point x="815" y="840" type="line"/>
      <point x="815" y="1020" type="line"/>
    </contour>
  </outline>
</glyph>
<glyph name="LtnSmLMiddleTilde" format="2">
  <advance width="985"/>
  <unicode hex="026B"/>
  <anchor x="505" y="-100" name="L"/>
  <anchor x="483" y="1635" name="U"/>
  <outline>
    <contour>
      <point x="628" y="1600" type="line"/>
      <point x="328" y="1600" type="line"/>
      <point x="341" y="1485"/>
      <point x="348" y="1324"/>
      <point x="348" y="1130" type="curve" smooth="yes"/>
      <point x="348" y="0" type="line"/>
      <point x="648" y="0" type="line"/>
      <point x="635" y="109"/>
      <point x="628" y="346"/>
      <point x="628" y="475" type="curve" smooth="yes"/>
    </contour>
    <contour>
      <point x="145" y="645" type="line"/>
      <point x="152" y="692"/>
      <point x="190" y="734"/>
      <point x="250" y="734" type="curve" smooth="yes"/>
      <point x="303" y="734"/>
      <point x="361" y="717"/>
      <point x="467" y="684" type="curve" smooth="yes"/>
      <point x="548" y="659"/>
      <point x="626" y="635"/>
      <point x="700" y="635" type="curve" smooth="yes"/>
      <point x="858" y="635"/>
      <point x="967" y="758"/>
      <point x="967" y="945" type="curve"/>
      <point x="831" y="945" type="line"/>
      <point x="822" y="898"/>
      <point x="783" y="850"/>
      <point x="726" y="850" type="curve" smooth="yes"/>
      <point x="665" y="850"/>
      <point x="601" y="876"/>
      <point x="509" y="900" type="curve" smooth="yes"/>
      <point x="410" y="926"/>
      <point x="346" y="955"/>
      <point x="269" y="955" type="curve" smooth="yes"/>
      <point x="116" y="955"/>
      <point x="8" y="819"/>
      <point x="8" y="645" type="curve"/>
    </contour>
  </outline>
</glyph>
<glyph name="LtnSmLBelt" format="2">
  <advance width="953"/>
  <unicode hex="026C"/>
  <anchor x="489" y="-100" name="L"/>
  <anchor x="489" y="1635" name="U"/>
  <outline>
    <contour>
      <point x="362" y="0" type="line"/>
      <point x="662" y="0" type="line"/>
      <point x="649" y="109"/>
      <point x="642" y="346"/>
      <point x="642" y="475" type="curve" smooth="yes"/>
      <point x="642" y="1600" type="line"/>
      <point x="342" y="1600" type="line"/>
      <point x="353" y="1502"/>
      <point x="362" y="1370"/>
      <point x="362" y="1212" type="curve" smooth="yes"/>
      <point x="362" y="1184" type="line"/>
      <point x="347" y="1186"/>
      <point x="330" y="1187"/>
      <point x="313" y="1187" type="curve" smooth="yes"/>
      <point x="139" y="1187"/>
      <point x="0" y="1050"/>
      <point x="0" y="889" type="curve" smooth="yes"/>
      <point x="0" y="649"/>
      <point x="222" y="519"/>
      <point x="486" y="519" type="curve" smooth="yes"/>
      <point x="653" y="519"/>
      <point x="812" y="603"/>
      <point x="933" y="710" type="curve"/>
      <point x="891" y="883" type="line"/>
      <point x="772" y="781"/>
      <point x="633" y="693"/>
      <point x="502" y="693" type="curve" smooth="yes"/>
      <point x="340" y="693"/>
      <point x="179" y="755"/>
      <point x="179" y="877" type="curve" smooth="yes"/>
      <point x="179" y="952"/>
      <point x="232" y="1012"/>
      <point x="307" y="1012" type="curve" smooth="yes"/>
      <point x="329" y="1012"/>
      <point x="346" y="1008"/>
      <point x="362" y="1002" type="curve"/>
    </contour>
  </outline>
</glyph>
<glyph name="LtnSmCapN" format="2">
  <advance width="1300"/>
  <unicode hex="0274"/>
  <anchor x="661" y="-100" name="L"/>
  <anchor x="661" y="1100" name="U"/>
  <outline>
    <contour>
      <point x="199" y="890" type="line"/>
      <point x="914" y="0" type="line"/>
      <point x="1061" y="184" type="line"/>
      <point x="396" y="1020" type="line"/>
    </contour>
    <contour>
      <point x="914" y="0" type="line"/>
      <point x="1163" y="0" type="line"/>
      <point x="1163" y="716" type="line" smooth="yes"/>
      <point x="1163" y="854"/>
      <point x="1164" y="964"/>
      <point x="1175" y="1020" type="curve"/>
      <point x="914" y="1020" type="line"/>
    </contour>
    <contour>
      <point x="396" y="1020" type="line"/>
      <point x="135" y="1020" type="line"/>
      <point x="147" y="964"/>
      <point x="147" y="854"/>
      <point x="147" y="716" type="curve" smooth="yes"/>
      <point x="147" y="304" type="line" smooth="yes"/>
      <point x="147" y="166"/>
      <point x="147" y="56"/>
      <point x="135" y="0" type="curve"/>
      <point x="396" y="0" type="line"/>
    </contour>
  </outline>
</glyph>
<glyph name="LtnSmPhi" format="2">
  <advance width="1300"/>
  <unicode hex="0278"/>
  <anchor x="650" y="-535" name="L"/>
  <anchor x="650" y="1530" name="U"/>
  <outline>
    <contour>
      <point x="522" y="-490" type="line"/>
      <point x="802" y="-490" type="line"/>
      <point x="789" y="-381"/>
      <point x="782" y="-144"/>
      <point x="782" y="-15" type="curve" smooth="yes"/>
      <point x="782" y="1460" type="line"/>
      <point x="502" y="1460" type="line"/>
      <point x="515" y="1345"/>
      <point x="522" y="1184"/>
      <point x="522" y="990" type="curve" smooth="yes"/>
    </contour>
    <contour>
      <point x="90" y="505" type="curve" smooth="yes"/>
      <point x="90" y="141"/>
      <point x="326" y="-25"/>
      <point x="640" y="-25" type="curve" smooth="yes"/>
      <point x="943" y="-25"/>
      <point x="1210" y="141"/>
      <point x="1210" y="505" type="curve" smooth="yes"/>
      <point x="1210" y="869"/>
      <point x="975" y="1040"/>
      <point x="660" y="1040" type="curve" smooth="yes"/>
      <point x="357" y="1040"/>
      <point x="90" y="869"/>
    </contour>
    <contour>
      <point x="370" y="505" type="curve" smooth="yes"/>
      <point x="370" y="739"/>
      <point x="488" y="825"/>
      <point x="650" y="825" type="curve" smooth="yes"/>
      <point x="812" y="825"/>
      <point x="930" y="729"/>
      <point x="930" y="505" type="curve" smooth="yes"/>
      <point x="930" y="282"/>
      <point x="811" y="190"/>
      <point x="650" y="190" type="curve" smooth="yes"/>
      <point x="488" y="190"/>
      <point x="370" y="272"/>
    </contour>
  </outline>
</glyph>
<glyph name="LtnSmRevRFishhook" format="2">
  <advance width="890"/>
  <unicode hex="027F"/>
  <anchor x="605" y="-500" name="L"/>
  <anchor x="365" y="1100" name="U"/>
  <outline>
    <contour>
      <point x="460" y="-470" type="line"/>
      <point x="760" y="-470" type="line"/>
      <point x="747" y="-363"/>
      <point x="740" y="-124"/>
      <point x="740" y="5" type="curve" smooth="yes"/>
      <point x="740" y="595" type="line" smooth="yes"/>
      <point x="740" y="900"/>
      <point x="581" y="1040"/>
      <point x="338" y="1040" type="curve" smooth="yes"/>
      <point x="224" y="1040"/>
      <point x="113" y="1010"/>
      <point x="30" y="950" type="curve"/>
      <point x="105" y="710" type="line"/>
      <point x="157" y="768"/>
      <point x="222" y="800"/>
      <point x="310" y="800" type="curve" smooth="yes"/>
      <point x="407" y="800"/>
      <point x="460" y="728"/>
      <point x="460" y="560" type="curve" smooth="yes"/>
    </contour>
  </outline>
</glyph>
<glyph name="LtnSmTurnedT" format="2">
  <advance width="880"/>
  <unicode hex="0287"/>
  <anchor x="508" y="-500" name="L"/>
  <anchor x="396" y="1100" name="U"/>
  <outline>
    <contour>
      <point x="390" y="-305" type="line"/>
      <point x="670" y="-305" type="line"/>
      <point x="670" y="745" type="line" smooth="yes"/>
      <point x="670" y="976"/>
      <point x="521" y="1040"/>
      <point x="338" y="1040" type="curve" smooth="yes"/>
      <point x="269" y="1040"/>
      <point x="182" y="1018"/>
      <point x="90" y="958" type="curve"/>
      <point x="90" y="734" type="line"/>
      <point x="164" y="783"/>
      <point x="223" y="809"/>
      <point x="271" y="809" type="curve" smooth="yes"/>
      <point x="355" y="809"/>
      <point x="390" y="780"/>
      <point x="390" y="553" type="curve" smooth="yes"/>
    </contour>
    <contour>
      <point x="860" y="200" type="line"/>
      <point x="65" y="200" type="line"/>
      <point x="65" y="0" type="line"/>
      <point x="860" y="0" type="line"/>
    </contour>
  </outline>
</glyph>
<glyph name="LtnSmTRetrHook" format="2">
  <advance width="885"/>
  <unicode hex="0288"/>
  <anchor x="540" y="-500" name="L"/>
  <anchor x="885" y="1100" name="R"/>
  <anchor x="360" y="1360" name="U"/>
  <outline>
    <contour>
      <point x="500" y="1320" type="line"/>
      <point x="220" y="1320" type="line"/>
      <point x="220" y="-190" type="line" smooth="yes"/>
      <point x="220" y="-375"/>
      <point x="365" y="-475"/>
      <point x="495" y="-475" type="curve" smooth="yes"/>
      <point x="605" y="-475"/>
      <point x="702" y="-436"/>
      <point x="746" y="-399" type="curve"/>
      <point x="702" y="-209" type="line"/>
      <point x="668" y="-233"/>
      <point x="623" y="-255"/>
      <point x="580" y="-255" type="curve" smooth="yes"/>
      <point x="549" y="-255"/>
      <point x="500" y="-228"/>
      <point x="500" y="-135" type="curve" smooth="yes"/>
    </contour>
    <contour>
      <point x="805" y="805" type="line"/>
      <point x="805" y="1005" type="line"/>
      <point x="30" y="1005" type="line"/>
      <point x="30" y="805" type="line"/>
    </contour>
  </outline>
</glyph>
<glyph name="LtnSmUpsilon" format="2">
  <advance width="1238"/>
  <unicode hex="028A"/>
  <anchor x="630" y="0" name="H"/>
  <anchor x="609" y="-100" name="L"/>
  <anchor x="865" y="0" name="O"/>
  <anchor x="1225" y="1000" name="R"/>
  <anchor x="609" y="1100" name="U"/>
  <outline>
    <contour>
      <point x="100" y="824" type="line"/>
      <point x="245" y="824" type="line"/>
      <point x="180" y="730"/>
      <point x="123" y="605"/>
      <point x="123" y="473" type="curve" smooth="yes"/>
      <point x="123" y="167"/>
      <point x="333" y="-25"/>
      <point x="610" y="-25" type="curve" smooth="yes"/>
      <point x="875" y="-25"/>
      <point x="1115" y="167"/>
      <point x="1115" y="473" type="curve" smooth="yes"/>
      <point x="1115" y="608"/>
      <point x="1062" y="729"/>
      <point x="999" y="825" type="curve"/>
      <point x="1138" y="825" type="line"/>
      <point x="1138" y="1021" type="line"/>
      <point x="723" y="1021" type="line"/>
      <point x="723" y="855" type="line"/>
      <point x="791" y="769"/>
      <point x="842" y="649"/>
      <point x="842" y="507" type="curve" smooth="yes"/>
      <point x="842" y="315"/>
      <point x="738" y="200"/>
      <point x="620" y="200" type="curve" smooth="yes"/>
      <point x="494" y="200"/>
      <point x="396" y="315"/>
      <point x="396" y="507" type="curve" smooth="yes"/>
      <point x="396" y="649"/>
      <point x="447" y="769"/>
      <point x="515" y="855" type="curve"/>
      <point x="515" y="1020" type="line"/>
      <point x="100" y="1020" type="line"/>
    </contour>
  </outline>
</glyph>
<glyph name="LtnSmVHook" format="2">
  <advance width="1185"/>
  <unicode hex="028B"/>
  <anchor x="649" y="0" name="H"/>
  <anchor x="630" y="-100" name="L"/>
  <anchor x="797" y="0" name="O"/>
  <anchor x="600" y="1100" name="U"/>
  <outline>
    <contour>
      <point x="130" y="1020" type="line"/>
      <point x="148" y="900"/>
      <point x="150" y="827"/>
      <point x="150" y="700" type="curve" smooth="yes"/>
      <point x="150" y="405" type="line" smooth="yes"/>
      <point x="150" y="110"/>
      <point x="258" y="-25"/>
      <point x="545" y="-25" type="curve" smooth="yes"/>
      <point x="933" y="-25"/>
      <point x="1095" y="290"/>
      <point x="1095" y="635" type="curve" smooth="yes"/>
      <point x="1095" y="923"/>
      <point x="971" y="1040"/>
      <point x="795" y="1040" type="curve" smooth="yes"/>
      <point x="720" y="1040"/>
      <point x="680" y="1029"/>
      <point x="620" y="1005" type="curve"/>
      <point x="665" y="805" type="line"/>
      <point x="696" y="827"/>
      <point x="725" y="830"/>
      <point x="745" y="830" type="curve" smooth="yes"/>
      <point x="789" y="830"/>
      <point x="821" y="767"/>
      <point x="821" y="670" type="curve" smooth="yes"/>
      <point x="821" y="366"/>
      <point x="747" y="206"/>
      <point x="585" y="206" type="curve" smooth="yes"/>
      <point x="467" y="206"/>
      <point x="430" y="284"/>
      <point x="430" y="465" type="curve" smooth="yes"/>
      <point x="430" y="1020" type="line"/>
    </contour>
  </outline>
</glyph>
<glyph name="LtnSmTurnedY" format="2">
  <advance width="1100"/>
  <unicode hex="028E"/>
  <anchor x="546" y="-100" name="L"/>
  <anchor x="546" y="1530" name="U"/>
  <outline>
    <contour>
      <point x="10" y="0" type="curve"/>
      <point x="323" y="0" type="line"/>
      <point x="364" y="155"/>
      <point x="442" y="444"/>
      <point x="529" y="733" type="curve" smooth="yes"/>
      <point x="556" y="824"/>
      <point x="626" y="965"/>
      <point x="655" y="1037" type="curve" smooth="yes"/>
      <point x="731" y="1225"/>
      <point x="794" y="1262"/>
      <point x="855" y="1262" type="curve" smooth="yes"/>
      <point x="921" y="1262"/>
      <point x="998" y="1222"/>
      <point x="1040" y="1187" type="curve"/>
      <point x="1110" y="1405" type="line"/>
      <point x="1037" y="1459"/>
      <point x="946" y="1490"/>
      <point x="855" y="1490" type="curve" smooth="yes"/>
      <point x="673" y="1490"/>
      <point x="535" y="1407"/>
      <point x="395" y="1020" type="curve" smooth="yes"/>
      <point x="155" y="355" type="line" smooth="yes"/>
      <point x="122" y="262"/>
      <point x="79" y="155"/>
    </contour>
    <contour>
      <point x="767" y="0" type="line"/>
      <point x="1080" y="0" type="line"/>
      <point x="1003" y="156"/>
      <point x="956" y="263"/>
      <point x="920" y="355" type="curve" smooth="yes"/>
      <point x="631" y="1102" type="line"/>
      <point x="499" y="810" type="line"/>
    </contour>
  </outline>
</glyph>
<glyph name="LtnSmCapY" format="2">
  <advance width="1100"/>
  <unicode hex="028F"/>
  <anchor x="560" y="-100" name="L"/>
  <anchor x="1145" y="1050" name="R"/>
  <anchor x="560" y="1100" name="U"/>
  <outline>
    <contour>
      <point x="451" y="391" type="line"/>
      <point x="655" y="472" type="line"/>
      <point x="285" y="1020" type="line"/>
      <point x="5" y="1020" type="line"/>
      <point x="98" y="916"/>
      <point x="153" y="836"/>
      <point x="217" y="744" type="curve" smooth="yes"/>
    </contour>
    <contour>
      <point x="652" y="391" type="line"/>
      <point x="887" y="744" type="line" smooth="yes"/>
      <point x="950" y="835"/>
      <point x="997" y="902"/>
      <point x="1095" y="1020" type="curve"/>
      <point x="815" y="1020" type="line"/>
      <point x="466" y="472" type="line"/>
    </contour>
    <contour>
      <point x="415" y="486" type="line"/>
      <point x="415" y="304" type="line" smooth="yes"/>
      <point x="415" y="166"/>
      <point x="415" y="56"/>
      <point x="402" y="0" type="curve"/>
      <point x="698" y="0" type="line"/>
      <point x="685" y="56"/>
      <point x="685" y="166"/>
      <point x="685" y="304" type="curve" smooth="yes"/>
      <point x="685" y="486" type="line"/>
    </contour>
  </outline>
</glyph>
<glyph name="LtnSmZRetrHook" format="2">
  <advance width="1060"/>
  <unicode hex="0290"/>
  <anchor x="435" y="-100" name="L"/>
  <anchor x="540" y="1100" name="U"/>
  <outline>
    <contour>
      <point x="125" y="1020" type="line"/>
      <point x="125" y="790" type="line"/>
      <point x="162" y="805"/>
      <point x="221" y="805"/>
      <point x="280" y="805" type="curve" smooth="yes"/>
      <point x="615" y="805" type="line"/>
      <point x="95" y="159" type="line"/>
      <point x="95" y="0" type="line"/>
      <point x="975" y="0" type="line"/>
      <point x="975" y="230" type="line"/>
      <point x="902" y="215"/>
      <point x="826" y="215"/>
      <point x="755" y="215" type="curve" smooth="yes"/>
      <point x="430" y="215" type="line"/>
      <point x="960" y="876" type="line"/>
      <point x="960" y="1020" type="line"/>
    </contour>
    <contour>
      <point x="1228" y="-238" type="line"/>
      <point x="1199" y="-260"/>
      <point x="1143" y="-297"/>
      <point x="1090" y="-297" type="curve" smooth="yes"/>
      <point x="1033" y="-297"/>
      <point x="975" y="-257"/>
      <point x="975" y="-143" type="curve" smooth="yes"/>
      <point x="975" y="186" type="line"/>
      <point x="775" y="106" type="line"/>
      <point x="775" y="-177" type="line" smooth="yes"/>
      <point x="775" y="-373"/>
      <point x="882" y="-475"/>
      <point x="1050" y="-475" type="curve" smooth="yes"/>
      <point x="1141" y="-475"/>
      <point x="1232" y="-431"/>
      <point x="1271" y="-399" type="curve"/>
    </contour>
  </outline>
</glyph>
<glyph name="LtnSmZCurl" format="2">
  <advance width="1220"/>
  <unicode hex="0291"/>
  <anchor x="626" y="-200" name="L"/>
  <anchor x="567" y="1100" name="U"/>
  <outline>
    <contour>
      <point x="125" y="1020" type="line"/>
      <point x="125" y="790" type="line"/>
      <point x="162" y="805"/>
      <point x="221" y="805"/>
      <point x="280" y="805" type="curve" smooth="yes"/>
      <point x="615" y="805" type="line"/>
      <point x="95" y="159" type="line"/>
      <point x="95" y="0" type="line"/>
      <point x="605" y="0" type="line"/>
      <point x="612" y="-55"/>
      <point x="623" y="-105"/>
      <point x="635" y="-150" type="curve"/>
      <point x="810" y="-170" type="line"/>
      <point x="794" y="-105"/>
      <point x="783" y="-51"/>
      <point x="777" y="0" type="curve"/>
      <point x="800" y="0" type="line" smooth="yes"/>
      <point x="1080" y="1"/>
      <point x="1220" y="126"/>
      <point x="1220" y="314" type="curve" smooth="yes"/>
      <point x="1220" y="466"/>
      <point x="1108" y="577"/>
      <point x="957" y="577" type="curve" smooth="yes"/>
      <point x="843" y="577"/>
      <point x="643" y="518"/>
      <point x="605" y="215" type="curve"/>
      <point x="430" y="215" type="line"/>
      <point x="960" y="876" type="line"/>
      <point x="960" y="1020" type="line"/>
    </contour>
    <contour>
      <point x="776" y="215" type="line"/>
      <point x="798" y="353"/>
      <point x="876" y="410"/>
      <point x="956" y="410" type="curve" smooth="yes"/>
      <point x="1003" y="410"/>
      <point x="1040" y="376"/>
      <point x="1040" y="319" type="curve" smooth="yes"/>
      <point x="1040" y="241"/>
      <point x="941" y="215"/>
      <point x="828" y="215" type="curve" smooth="yes"/>
    </contour>
  </outline>
</glyph>
<glyph name="LtnSmEzh" format="2">
  <advance width="1090"/>
  <unicode hex="0292"/>
  <anchor x="585" y="-500" name="L"/>
  <anchor x="585" y="1100" name="U"/>
  <outline>
    <contour>
      <point x="136" y="1020" type="line"/>
      <point x="136" y="789" type="line"/>
      <point x="199" y="802"/>
      <point x="226" y="805"/>
      <point x="381" y="805" type="curve" smooth="yes"/>
      <point x="635" y="805" type="line"/>
      <point x="253" y="392" type="line"/>
      <point x="253" y="210" type="line"/>
      <point x="327" y="217"/>
      <point x="446" y="221"/>
      <point x="506" y="221" type="curve" smooth="yes"/>
      <point x="661" y="221"/>
      <point x="765" y="121"/>
      <point x="765" y="-12" type="curve" smooth="yes"/>
      <point x="765" y="-142"/>
      <point x="623" y="-246"/>
      <point x="495" y="-246" type="curve" smooth="yes"/>
      <point x="333" y="-246"/>
      <point x="203" y="-187"/>
      <point x="75" y="-125" type="curve"/>
      <point x="75" y="-366" type="line"/>
      <point x="177" y="-421"/>
      <point x="314" y="-472"/>
      <point x="485" y="-472" type="curve" smooth="yes"/>
      <point x="783" y="-472"/>
      <point x="1045" y="-280"/>
      <point x="1045" y="-12" type="curve" smooth="yes"/>
      <point x="1045" y="151"/>
      <point x="979" y="251"/>
      <point x="917" y="312" type="curve" smooth="yes"/>
      <point x="847" y="380"/>
      <point x="703" y="429"/>
      <point x="557" y="430" type="curve"/>
      <point x="984" y="884" type="line"/>
      <point x="984" y="1020" type="line"/>
    </contour>
  </outline>
</glyph>
<glyph name="LtnGlottalStop" format="2">
  <advance width="1018"/>
  <unicode hex="0294"/>
  <anchor x="480" y="-100" name="L"/>
  <anchor x="1033" y="1200" name="R"/>
  <anchor x="531" y="1530" name="U"/>
  <outline>
    <contour>
      <point x="188" y="1063" type="line"/>
      <point x="273" y="1140"/>
      <point x="390" y="1182"/>
      <point x="494" y="1182" type="curve" smooth="yes"/>
      <point x="585" y="1182"/>
      <point x="650" y="1133"/>
      <point x="650" y="1072" type="curve" smooth="yes"/>
      <point x="650" y="1005"/>
      <point x="604" y="946"/>
      <point x="547" y="875" type="curve" smooth="yes"/>
      <point x="459" y="765"/>
      <point x="347" y="624"/>
      <point x="347" y="377" type="curve" smooth="yes"/>
      <point x="347" y="179"/>
      <point x="347" y="76"/>
      <point x="333" y="0" type="curve"/>
      <point x="613" y="0" type="line"/>
      <point x="599" y="72"/>
      <point x="599" y="170"/>
      <point x="599" y="368" type="curve" smooth="yes"/>
      <point x="599" y="594"/>
      <point x="695" y="709"/>
      <point x="784" y="811" type="curve" smooth="yes"/>
      <point x="857" y="894"/>
      <point x="923" y="973"/>
      <point x="923" y="1101" type="curve" smooth="yes"/>
      <point x="923" y="1291"/>
      <point x="748" y="1415"/>
      <point x="522" y="1415" type="curve" smooth="yes"/>
      <point x="357" y="1415"/>
      <point x="222" y="1362"/>
      <point x="135" y="1286" type="curve"/>
    </contour>
  </outline>
</glyph>
<glyph name="LtnRevGlottalStop" format="2">
  <advance width="1018"/>
  <unicode hex="0295"/>
  <anchor x="550" y="-100" name="L"/>
  <anchor x="480" y="1530" name="U"/>
  <outline>
    <contour>
      <point x="840" y="1063" type="line"/>
      <point x="755" y="1140"/>
      <point x="638" y="1182"/>
      <point x="534" y="1182" type="curve" smooth="yes"/>
      <point x="443" y="1182"/>
      <point x="378" y="1133"/>
      <point x="378" y="1072" type="curve" smooth="yes"/>
      <point x="378" y="971"/>
      <point x="461" y="914"/>
      <point x="548" y="789" type="curve" smooth="yes"/>
      <point x="624" y="678"/>
      <point x="681" y="564"/>
      <point x="681" y="367" type="curve" smooth="yes"/>
      <point x="681" y="179"/>
      <point x="681" y="76"/>
      <point x="695" y="0" type="curve"/>
      <point x="415" y="0" type="line"/>
      <point x="429" y="72"/>
      <point x="429" y="170"/>
      <point x="429" y="348" type="curve" smooth="yes"/>
      <point x="429" y="556"/>
      <point x="391" y="613"/>
      <point x="301" y="738" type="curve" smooth="yes"/>
      <point x="219" y="853"/>
      <point x="105" y="937"/>
      <point x="105" y="1101" type="curve" smooth="yes"/>
      <point x="105" y="1291"/>
      <point x="280" y="1415"/>
      <point x="506" y="1415" type="curve" smooth="yes"/>
      <point x="671" y="1415"/>
      <point x="806" y="1362"/>
      <point x="893" y="1286" type="curve"/>
    </contour>
  </outline>
</glyph>
<glyph name="LtnInvGlottalStop" format="2">
  <advance width="1018"/>
  <unicode hex="0296"/>
  <anchor x="515" y="-100" name="L"/>
  <anchor x="470" y="1530" name="U"/>
  <outline>
    <contour>
      <point x="188" y="327" type="curve"/>
      <point x="135" y="104" type="line"/>
      <point x="222" y="28"/>
      <point x="357" y="-25"/>
      <point x="522" y="-25" type="curve" smooth="yes"/>
      <point x="748" y="-25"/>
      <point x="923" y="99"/>
      <point x="923" y="289" type="curve" smooth="yes"/>
      <point x="923" y="417"/>
      <point x="857" y="496"/>
      <point x="784" y="579" type="curve" smooth="yes"/>
      <point x="695" y="681"/>
      <point x="599" y="796"/>
      <point x="599" y="1022" type="curve" smooth="yes"/>
      <point x="599" y="1220"/>
      <point x="599" y="1318"/>
      <point x="613" y="1390" type="curve"/>
      <point x="333" y="1390" type="line"/>
      <point x="347" y="1314"/>
      <point x="347" y="1211"/>
      <point x="347" y="1013" type="curve" smooth="yes"/>
      <point x="347" y="766"/>
      <point x="459" y="625"/>
      <point x="547" y="515" type="curve" smooth="yes"/>
      <point x="604" y="444"/>
      <point x="650" y="385"/>
      <point x="650" y="318" type="curve" smooth="yes"/>
      <point x="650" y="257"/>
      <point x="585" y="208"/>
      <point x="494" y="208" type="curve" smooth="yes"/>
      <point x="390" y="208"/>
      <point x="273" y="250"/>
    </contour>
  </outline>
</glyph>
<glyph name="LtnBilabialClick" format="2">
  <advance width="1740"/>
  <unicode hex="0298"/>
  <anchor x="870" y="-100" name="L"/>
  <anchor x="870" y="1560" name="U"/>
  <outline>
    <contour>
      <point x="1650" y="745" type="curve" smooth="yes"/>
      <point x="1650" y="1193"/>
      <point x="1339" y="1515"/>
      <point x="870" y="1515" type="curve" smooth="yes"/>
      <point x="402" y="1515"/>
      <point x="90" y="1192"/>
      <point x="90" y="745" type="curve" smooth="yes"/>
      <point x="90" y="300"/>
      <point x="404" y="-25"/>
      <point x="870" y="-25" type="curve" smooth="yes"/>
      <point x="1337" y="-25"/>
      <point x="1650" y="298"/>
    </contour>
    <contour>
      <point x="1055" y="755" type="curve" smooth="yes"/>
      <point x="1055" y="860"/>
      <point x="977" y="935"/>
      <point x="870" y="935" type="curve" smooth="yes"/>
      <point x="765" y="935"/>
      <point x="690" y="860"/>
      <point x="690" y="755" type="curve" smooth="yes"/>
      <point x="690" y="648"/>
      <point x="765" y="565"/>
      <point x="870" y="565" type="curve" smooth="yes"/>
      <point x="977" y="565"/>
      <point x="1055" y="648"/>
    </contour>
    <contour>
      <point x="1365" y="745" type="curve" smooth="yes"/>
      <point x="1365" y="446"/>
      <point x="1169" y="230"/>
      <point x="870" y="230" type="curve" smooth="yes"/>
      <point x="571" y="230"/>
      <point x="370" y="447"/>
      <point x="370" y="745" type="curve" smooth="yes"/>
      <point x="370" y="1045"/>
      <point x="570" y="1265"/>
      <point x="870" y="1265" type="curve" smooth="yes"/>
      <point x="1171" y="1265"/>
      <point x="1365" y="1045"/>
    </contour>
  </outline>
</glyph>
<glyph name="LtnSmCapL" format="2">
  <advance width="955"/>
  <unicode hex="029F"/>
  <anchor x="530" y="-100" name="L"/>
  <anchor x="575" y="1100" name="U"/>
  <outline>
    <contour>
      <point x="417" y="1020" type="line"/>
      <point x="135" y="1020" type="line"/>
      <point x="147" y="964"/>
      <point x="147" y="854"/>
      <point x="147" y="716" type="curve" smooth="yes"/>
      <point x="147" y="304" type="line" smooth="yes"/>
      <point x="147" y="166"/>
      <point x="147" y="56"/>
      <point x="135" y="0" type="curve"/>
      <point x="915" y="0" type="line"/>
      <point x="915" y="211" type="line"/>
      <point x="848" y="201"/>
      <point x="736" y="200"/>
      <point x="573" y="200" type="curve" smooth="yes"/>
      <point x="417" y="200" type="line"/>
    </contour>
  </outline>
</glyph>
<glyph name="LtnSmQHook" format="2">
  <advance width="1285"/>
  <unicode hex="02A0"/>
  <anchor x="440" y="-100" name="L"/>
  <anchor x="600" y="1250" name="U"/>
  <outline>
    <contour>
      <point x="790" y="-490" type="line"/>
      <point x="1095" y="-490" type="line"/>
      <point x="1078" y="-405"/>
      <point x="1070" y="-310"/>
      <point x="1070" y="-150" type="curve"/>
      <point x="1070" y="1059" type="line" smooth="yes"/>
      <point x="1070" y="1204"/>
      <point x="1097" y="1247"/>
      <point x="1183" y="1247" type="curve" smooth="yes"/>
      <point x="1232" y="1247"/>
      <point x="1285" y="1222"/>
      <point x="1328" y="1182" type="curve"/>
      <point x="1385" y="1410" type="line"/>
      <point x="1326" y="1448"/>
      <point x="1234" y="1480"/>
      <point x="1160" y="1480" type="curve" smooth="yes"/>
      <point x="933" y="1480"/>
      <point x="790" y="1342"/>
      <point x="790" y="1070" type="curve" smooth="yes"/>
      <point x="790" y="1052"/>
      <point x="790" y="1040"/>
      <point x="790" y="1026" type="curve"/>
      <point x="733" y="1035"/>
      <point x="676" y="1040"/>
      <point x="620" y="1040" type="curve" smooth="yes"/>
      <point x="255" y="1040"/>
      <point x="100" y="742"/>
      <point x="100" y="435" type="curve" smooth="yes"/>
      <point x="100" y="117"/>
      <point x="316" y="-25"/>
      <point x="500" y="-25" type="curve" smooth="yes"/>
      <point x="593" y="-25"/>
      <point x="686" y="14"/>
      <point x="790" y="120" type="curve"/>
    </contour>
    <contour>
      <point x="580" y="213" type="curve" smooth="yes"/>
      <point x="485" y="213"/>
      <point x="380" y="287"/>
      <point x="380" y="485" type="curve" smooth="yes"/>
      <point x="380" y="641"/>
      <point x="456" y="802"/>
      <point x="655" y="802" type="curve" smooth="yes"/>
      <point x="696" y="802"/>
      <point x="749" y="789"/>
      <point x="790" y="770" type="curve"/>
      <point x="790" y="378" type="line"/>
      <point x="727" y="268"/>
      <point x="650" y="213"/>
    </contour>
  </outline>
</glyph>
<glyph name="LtnGlottalStopStrk" format="2">
  <advance width="1018"/>
  <unicode hex="02A1"/>
  <anchor x="480" y="-100" name="L"/>
  <anchor x="530" y="1530" name="U"/>
  <outline>
    <contour>
      <point x="188" y="1063" type="line"/>
      <point x="273" y="1140"/>
      <point x="390" y="1182"/>
      <point x="494" y="1182" type="curve" smooth="yes"/>
      <point x="585" y="1182"/>
      <point x="650" y="1133"/>
      <point x="650" y="1072" type="curve" smooth="yes"/>
      <point x="650" y="971"/>
      <point x="567" y="914"/>
      <point x="480" y="789" type="curve" smooth="yes"/>
      <point x="404" y="678"/>
      <point x="347" y="564"/>
      <point x="347" y="367" type="curve" smooth="yes"/>
      <point x="347" y="179"/>
      <point x="347" y="76"/>
      <point x="333" y="0" type="curve"/>
      <point x="613" y="0" type="line"/>
      <point x="599" y="72"/>
      <point x="599" y="170"/>
      <point x="599" y="348" type="curve" smooth="yes"/>
      <point x="599" y="556"/>
      <point x="637" y="613"/>
      <point x="727" y="738" type="curve" smooth="yes"/>
      <point x="809" y="853"/>
      <point x="923" y="937"/>
      <point x="923" y="1101" type="curve" smooth="yes"/>
      <point x="923" y="1291"/>
      <point x="748" y="1415"/>
      <point x="522" y="1415" type="curve" smooth="yes"/>
      <point x="357" y="1415"/>
      <point x="222" y="1362"/>
      <point x="135" y="1286" type="curve"/>
    </contour>
    <contour>
      <point x="145" y="555" type="line"/>
      <point x="145" y="350" type="line"/>
      <point x="870" y="350" type="line"/>
      <point x="870" y="555" type="line"/>
    </contour>
  </outline>
</glyph>
<glyph name="LtnRevGlottalStopStrk" format="2">
  <advance width="1018"/>
  <unicode hex="02A2"/>
  <anchor x="535" y="-100" name="L"/>
  <anchor x="502" y="1530" name="U"/>
  <outline>
    <contour>
      <point x="883" y="555" type="line"/>
      <point x="158" y="555" type="line"/>
      <point x="158" y="350" type="line"/>
      <point x="883" y="350" type="line"/>
    </contour>
    <contour>
      <point x="840" y="1063" type="curve"/>
      <point x="893" y="1286" type="line"/>
      <point x="806" y="1362"/>
      <point x="671" y="1415"/>
      <point x="506" y="1415" type="curve" smooth="yes"/>
      <point x="280" y="1415"/>
      <point x="105" y="1291"/>
      <point x="105" y="1101" type="curve" smooth="yes"/>
      <point x="105" y="973"/>
      <point x="171" y="894"/>
      <point x="244" y="811" type="curve" smooth="yes"/>
      <point x="333" y="709"/>
      <point x="429" y="594"/>
      <point x="429" y="368" type="curve" smooth="yes"/>
      <point x="429" y="170"/>
      <point x="429" y="72"/>
      <point x="415" y="0" type="curve"/>
      <point x="695" y="0" type="line"/>
      <point x="681" y="76"/>
      <point x="681" y="179"/>
      <point x="681" y="377" type="curve" smooth="yes"/>
      <point x="681" y="624"/>
      <point x="569" y="765"/>
      <point x="481" y="875" type="curve" smooth="yes"/>
      <point x="424" y="946"/>
      <point x="378" y="1005"/>
      <point x="378" y="1072" type="curve" smooth="yes"/>
      <point x="378" y="1133"/>
      <point x="443" y="1182"/>
      <point x="534" y="1182" type="curve" smooth="yes"/>
      <point x="638" y="1182"/>
      <point x="755" y="1140"/>
    </contour>
  </outline>
</glyph>
<glyph name="LtnSmTsDigraph" format="2">
  <advance width="1677"/>
  <unicode hex="02A6"/>
  <anchor x="810" y="-100" name="L"/>
  <anchor x="855" y="1360" name="U"/>
  <outline>
    <contour>
      <point x="553" y="-25" type="curve" smooth="yes"/>
      <point x="625" y="-25"/>
      <point x="719" y="3"/>
      <point x="810" y="67" type="curve"/>
      <point x="810" y="291" type="line"/>
      <point x="735" y="240"/>
      <point x="668" y="200"/>
      <point x="617" y="200" type="curve" smooth="yes"/>
      <point x="527" y="200"/>
      <point x="490" y="235"/>
      <point x="490" y="462" type="curve" smooth="yes"/>
      <point x="490" y="748"/>
      <point x="490" y="1034"/>
      <point x="490" y="1320" type="curve"/>
      <point x="210" y="1320" type="line"/>
      <point x="210" y="970"/>
      <point x="210" y="620"/>
      <point x="210" y="270" type="curve" smooth="yes"/>
      <point x="210" y="39"/>
      <point x="364" y="-25"/>
    </contour>
    <contour>
      <point x="20" y="805" type="line"/>
      <point x="1015" y="805" type="line"/>
      <point x="1015" y="1005" type="line"/>
      <point x="20" y="1005" type="line"/>
    </contour>
    <contour>
      <point x="1167" y="-25" type="curve" smooth="yes"/>
      <point x="1410" y="-25"/>
      <point x="1602" y="123"/>
      <point x="1602" y="315" type="curve" smooth="yes"/>
      <point x="1602" y="504"/>
      <point x="1430" y="584"/>
      <point x="1222" y="625" type="curve" smooth="yes"/>
      <point x="1047" y="660"/>
      <point x="1022" y="681"/>
      <point x="1022" y="730" type="curve" smooth="yes"/>
      <point x="1022" y="770"/>
      <point x="1060" y="820"/>
      <point x="1177" y="820" type="curve" smooth="yes"/>
      <point x="1316" y="820"/>
      <point x="1433" y="764"/>
      <point x="1508" y="725" type="curve"/>
      <point x="1547" y="960" type="line"/>
      <point x="1469" y="998"/>
      <point x="1350" y="1040"/>
      <point x="1187" y="1040" type="curve" smooth="yes"/>
      <point x="844" y="1040"/>
      <point x="752" y="818"/>
      <point x="752" y="720" type="curve" smooth="yes"/>
      <point x="752" y="594"/>
      <point x="813" y="493"/>
      <point x="1097" y="432" type="curve" smooth="yes"/>
      <point x="1288" y="391"/>
      <point x="1332" y="348"/>
      <point x="1332" y="290" type="curve" smooth="yes"/>
      <point x="1332" y="243"/>
      <point x="1266" y="200"/>
      <point x="1172" y="200" type="curve" smooth="yes"/>
      <point x="1055" y="200"/>
      <point x="898" y="246"/>
      <point x="810" y="291" type="curve"/>
      <point x="742" y="90" type="line"/>
      <point x="838" y="9"/>
      <point x="988" y="-25"/>
    </contour>
  </outline>
</glyph>
<glyph name="LtnSmTcDigraphCurl" format="2">
  <advance width="1758"/>
  <unicode hex="02A8"/>
  <anchor x="840" y="-200" name="L"/>
  <anchor x="921" y="1360" name="U"/>
  <outline>
    <contour>
      <point x="553" y="-25" type="curve" smooth="yes"/>
      <point x="667" y="-25"/>
      <point x="849" y="56"/>
      <point x="928" y="129" type="curve"/>
      <point x="820" y="291" type="line"/>
      <point x="761" y="235"/>
      <point x="688" y="200"/>
      <point x="617" y="200" type="curve" smooth="yes"/>
      <point x="527" y="200"/>
      <point x="490" y="235"/>
      <point x="490" y="462" type="curve" smooth="yes"/>
      <point x="490" y="1320" type="line"/>
      <point x="210" y="1320" type="line"/>
      <point x="210" y="270" type="line" smooth="yes"/>
      <point x="210" y="39"/>
      <point x="364" y="-25"/>
    </contour>
    <contour>
      <point x="20" y="805" type="line"/>
      <point x="775" y="805" type="line"/>
      <point x="775" y="1005" type="line"/>
      <point x="20" y="1005" type="line"/>
    </contour>
    <contour>
      <point x="775" y="490" type="curve" smooth="yes"/>
      <point x="775" y="102"/>
      <point x="1060" y="-25"/>
      <point x="1263" y="-25" type="curve" smooth="yes"/>
      <point x="1514" y="-25"/>
      <point x="1668" y="100"/>
      <point x="1668" y="289" type="curve" smooth="yes"/>
      <point x="1668" y="434"/>
      <point x="1549" y="552"/>
      <point x="1388" y="552" type="curve" smooth="yes"/>
      <point x="1137" y="552"/>
      <point x="1005" y="345"/>
      <point x="1005" y="101" type="curve" smooth="yes"/>
      <point x="1005" y="21"/>
      <point x="1021" y="-87"/>
      <point x="1043" y="-175" type="curve"/>
      <point x="1218" y="-195" type="line"/>
      <point x="1199" y="-121"/>
      <point x="1177" y="1"/>
      <point x="1177" y="89" type="curve" smooth="yes"/>
      <point x="1177" y="236"/>
      <point x="1226" y="385"/>
      <point x="1378" y="385" type="curve" smooth="yes"/>
      <point x="1429" y="385"/>
      <point x="1468" y="355"/>
      <point x="1468" y="304" type="curve" smooth="yes"/>
      <point x="1468" y="230"/>
      <point x="1366" y="196"/>
      <point x="1299" y="196" type="curve" smooth="yes"/>
      <point x="1134" y="196"/>
      <point x="1055" y="342"/>
      <point x="1055" y="500" type="curve" smooth="yes"/>
      <point x="1055" y="694"/>
      <point x="1163" y="810"/>
      <point x="1302" y="810" type="curve" smooth="yes"/>
      <point x="1405" y="810"/>
      <point x="1473" y="779"/>
      <point x="1563" y="717" type="curve"/>
      <point x="1607" y="969" type="line"/>
      <point x="1534" y="1007"/>
      <point x="1429" y="1040"/>
      <point x="1297" y="1040" type="curve" smooth="yes"/>
      <point x="980" y="1040"/>
      <point x="775" y="802"/>
    </contour>
  </outline>
</glyph>
<glyph name="LtnBilabialPercussive" format="2">
  <advance width="1104"/>
  <unicode hex="02AC"/>
  <anchor x="550" y="-100" name="L"/>
  <anchor x="550" y="1595" name="U"/>
  <outline>
    <contour>
      <point x="477" y="636" type="line"/>
      <point x="362" y="178" type="line"/>
      <point x="264" y="636" type="line"/>
      <point x="85" y="636" type="line"/>
      <point x="114" y="540"/>
      <point x="131" y="481"/>
      <point x="150" y="415" type="curve" smooth="yes"/>
      <point x="265" y="0" type="line"/>
      <point x="446" y="0" type="line"/>
      <point x="552" y="433" type="line"/>
      <point x="658" y="0" type="line"/>
      <point x="839" y="0" type="line"/>
      <point x="954" y="415" type="line" smooth="yes"/>
      <point x="975" y="489"/>
      <point x="990" y="541"/>
      <point x="1019" y="636" type="curve"/>
      <point x="840" y="636" type="line"/>
      <point x="742" y="178" type="line"/>
      <point x="627" y="636" type="line"/>
    </contour>
    <contour>
      <point x="477" y="1460" type="line"/>
      <point x="362" y="1002" type="line"/>
      <point x="264" y="1460" type="line"/>
      <point x="85" y="1460" type="line"/>
      <point x="114" y="1364"/>
      <point x="131" y="1305"/>
      <point x="150" y="1239" type="curve" smooth="yes"/>
      <point x="265" y="824" type="line"/>
      <point x="446" y="824" type="line"/>
      <point x="552" y="1257" type="line"/>
      <point x="658" y="824" type="line"/>
      <point x="839" y="824" type="line"/>
      <point x="954" y="1239" type="line" smooth="yes"/>
      <point x="975" y="1313"/>
      <point x="990" y="1365"/>
      <point x="1019" y="1460" type="curve"/>
      <point x="840" y="1460" type="line"/>
      <point x="742" y="1002" type="line"/>
      <point x="627" y="1460" type="line"/>
    </contour>
  </outline>
</glyph>
<glyph name="LtnBidentalPercussive" format="2">
  <advance width="1435"/>
  <unicode hex="02AD"/>
  <anchor x="717" y="-100" name="L"/>
  <anchor x="717" y="1595" name="U"/>
  <outline>
    <contour>
      <point x="1315" y="815" type="line"/>
      <point x="1315" y="1460" type="line"/>
      <point x="120" y="1460" type="line"/>
      <point x="120" y="815" type="line"/>
      <point x="355" y="815" type="line"/>
      <point x="355" y="1180" type="line"/>
      <point x="1080" y="1180" type="line"/>
      <point x="1080" y="815" type="line"/>
    </contour>
    <contour>
      <point x="1315" y="0" type="line"/>
      <point x="1315" y="645" type="line"/>
      <point x="120" y="645" type="line"/>
      <point x="120" y="0" type="line"/>
      <point x="355" y="0" type="line"/>
      <point x="355" y="365" type="line"/>
      <point x="1080" y="365" type="line"/>
      <point x="1080" y="0" type="line"/>
    </contour>
  </outline>
</glyph>
<glyph name="ModTurnedComma" format="2">
  <advance width="510"/>
  <unicode hex="02BB"/>
  <outline>
    <contour>
      <point x="450" y="1270" type="line"/>
      <point x="300" y="1270" type="line"/>
      <point x="300" y="1354"/>
      <point x="335" y="1473"/>
      <point x="440" y="1585" type="curve"/>
      <point x="325" y="1655" type="line"/>
      <point x="201" y="1548"/>
      <point x="95" y="1389"/>
      <point x="95" y="1210" type="curve" smooth="yes"/>
      <point x="95" y="1086"/>
      <point x="166" y="1000"/>
      <point x="280" y="1000" type="curve" smooth="yes"/>
      <point x="373" y="1000"/>
      <point x="450" y="1085"/>
      <point x="450" y="1160" type="curve" smooth="yes"/>
    </contour>
  </outline>
</glyph>
<glyph name="ModApos" format="2">
  <advance width="510"/>
  <unicode hex="02BC"/>
  <outline>
    <contour>
      <point x="60" y="1385" type="line"/>
      <point x="210" y="1385" type="line"/>
      <point x="210" y="1301"/>
      <point x="175" y="1182"/>
      <point x="70" y="1070" type="curve"/>
      <point x="185" y="1000" type="line"/>
      <point x="309" y="1107"/>
      <point x="415" y="1266"/>
      <point x="415" y="1445" type="curve" smooth="yes"/>
      <point x="415" y="1569"/>
      <point x="344" y="1655"/>
      <point x="230" y="1655" type="curve" smooth="yes"/>
      <point x="137" y="1655"/>
      <point x="60" y="1570"/>
      <point x="60" y="1495" type="curve" smooth="yes"/>
    </contour>
  </outline>
</glyph>
<glyph name="ModRevComma" format="2">
  <advance width="510"/>
  <unicode hex="02BD"/>
  <outline>
    <contour>
      <point x="415" y="1495" type="line"/>
      <point x="415" y="1570"/>
      <point x="348" y="1655"/>
      <point x="255" y="1655" type="curve" smooth="yes"/>
      <point x="141" y="1655"/>
      <point x="60" y="1569"/>
      <point x="60" y="1445" type="curve" smooth="yes"/>
      <point x="60" y="1266"/>
      <point x="166" y="1107"/>
      <point x="290" y="1000" type="curve"/>
      <point x="405" y="1070" type="line"/>
      <point x="300" y="1182"/>
      <point x="265" y="1301"/>
      <point x="265" y="1385" type="curve"/>
      <point x="415" y="1385" type="line"/>
    </contour>
  </outline>
</glyph>
<glyph name="ModGlottalStop" format="2">
  <advance width="618"/>
  <unicode hex="02C0"/>
  <anchor x="275" y="615" name="L"/>
  <anchor x="300" y="1635" name="U"/>
  <outline>
    <contour>
      <point x="69" y="1371" type="line"/>
      <point x="129" y="1421"/>
      <point x="211" y="1448"/>
      <point x="284" y="1448" type="curve" smooth="yes"/>
      <point x="347" y="1448"/>
      <point x="393" y="1416"/>
      <point x="393" y="1376" type="curve" smooth="yes"/>
      <point x="393" y="1333"/>
      <point x="360" y="1294"/>
      <point x="321" y="1249" type="curve" smooth="yes"/>
      <point x="259" y="1177"/>
      <point x="181" y="1085"/>
      <point x="181" y="925" type="curve" smooth="yes"/>
      <point x="181" y="796"/>
      <point x="181" y="729"/>
      <point x="171" y="680" type="curve"/>
      <point x="367" y="680" type="line"/>
      <point x="357" y="726"/>
      <point x="357" y="790"/>
      <point x="357" y="919" type="curve" smooth="yes"/>
      <point x="357" y="1066"/>
      <point x="425" y="1140"/>
      <point x="487" y="1206" type="curve" smooth="yes"/>
      <point x="538" y="1260"/>
      <point x="584" y="1312"/>
      <point x="584" y="1395" type="curve" smooth="yes"/>
      <point x="584" y="1519"/>
      <point x="461" y="1599"/>
      <point x="303" y="1599" type="curve" smooth="yes"/>
      <point x="188" y="1599"/>
      <point x="93" y="1565"/>
      <point x="32" y="1516" type="curve"/>
    </contour>
  </outline>
</glyph>
<glyph name="ModRevGlottalStop" format="2">
  <advance width="618"/>
  <unicode hex="02C1"/>
  <anchor x="355" y="615" name="L"/>
  <anchor x="315" y="1635" name="U"/>
  <outline>
    <contour>
      <point x="550" y="1372" type="curve"/>
      <point x="587" y="1517" type="line"/>
      <point x="526" y="1566"/>
      <point x="431" y="1600"/>
      <point x="316" y="1600" type="curve" smooth="yes"/>
      <point x="158" y="1600"/>
      <point x="35" y="1520"/>
      <point x="35" y="1396" type="curve" smooth="yes"/>
      <point x="35" y="1313"/>
      <point x="80" y="1262"/>
      <point x="133" y="1208" type="curve" smooth="yes"/>
      <point x="197" y="1143"/>
      <point x="262" y="1067"/>
      <point x="262" y="920" type="curve" smooth="yes"/>
      <point x="262" y="791"/>
      <point x="262" y="727"/>
      <point x="252" y="681" type="curve"/>
      <point x="448" y="681" type="line"/>
      <point x="438" y="730"/>
      <point x="438" y="797"/>
      <point x="438" y="926" type="curve" smooth="yes"/>
      <point x="438" y="1083"/>
      <point x="359" y="1177"/>
      <point x="298" y="1249" type="curve" smooth="yes"/>
      <point x="258" y="1296"/>
      <point x="226" y="1334"/>
      <point x="226" y="1377" type="curve" smooth="yes"/>
      <point x="226" y="1417"/>
      <point x="272" y="1449"/>
      <point x="336" y="1449" type="curve" smooth="yes"/>
      <point x="408" y="1449"/>
      <point x="490" y="1422"/>
    </contour>
  </outline>
</glyph>
<glyph name="ModLftArrwhd" format="2">
  <advance width="1065"/>
  <unicode hex="02C2"/>
  <outline>
    <contour>
      <point x="975" y="910" type="line"/>
      <point x="975" y="1035" type="line"/>
      <point x="275" y="1265" type="line"/>
      <point x="975" y="1495" type="line"/>
      <point x="975" y="1620" type="line"/>
      <point x="90" y="1320" type="line"/>
      <point x="90" y="1210" type="line"/>
    </contour>
  </outline>
</glyph>
<glyph name="ModCircumAccent" format="2">
  <advance width="880"/>
  <unicode hex="02C6"/>
  <outline>
    <contour>
      <point x="880" y="1200" type="line"/>
      <point x="590" y="1600" type="line"/>
      <point x="290" y="1600" type="line"/>
      <point x="0" y="1200" type="line"/>
      <point x="240" y="1200" type="line"/>
      <point x="440" y="1430" type="line"/>
      <point x="640" y="1200" type="line"/>
    </contour>
  </outline>
</glyph>
<glyph name="Caron" format="2">
  <advance width="880"/>
  <unicode hex="02C7"/>
  <anchor x="440" y="1635" name="U"/>
  <outline>
    <contour>
      <point x="640" y="1600" type="line"/>
      <point x="440" y="1370" type="line"/>
      <point x="240" y="1600" type="line"/>
      <point x="0" y="1600" type="line"/>
      <point x="290" y="1200" type="line"/>
      <point x="590" y="1200" type="line"/>
      <point x="880" y="1600" type="line"/>
    </contour>
  </outline>
</glyph>
<glyph name="ModVertLine" format="2">
  <advance width="470"/>
  <unicode hex="02C8"/>
  <outline>
    <contour>
      <point x="310" y="930" type="line"/>
      <point x="310" y="1620" type="line"/>
      <point x="160" y="1620" type="line"/>
      <point x="160" y="930" type="line"/>
    </contour>
  </outline>
</glyph>
<glyph name="ModLowMacron" format="2">
  <advance width="830"/>
  <unicode hex="02CD"/>
  <outline>
    <contour>
      <point x="0" y="-370" type="line"/>
      <point x="830" y="-370" type="line"/>
      <point x="830" y="-170" type="line"/>
      <point x="0" y="-170" type="line"/>
    </contour>
  </outline>
</glyph>
<glyph name="ModLowAcuteAccent" format="2">
  <advance width="640"/>
  <unicode hex="02CF"/>
  <anchor x="278" y="-645" name="L"/>
  <outline>
    <contour>
      <point x="290" y="-120" type="line"/>
      <point x="0" y="-520" type="line"/>
      <point x="240" y="-520" type="line"/>
      <point x="640" y="-120" type="line"/>
    </contour>
  </outline>
</glyph>
<glyph name="ModTriangularColon" format="2">
  <advance width="465"/>
  <unicode hex="02D0"/>
  <anchor x="233" y="-100" name="L"/>
  <anchor x="233" y="1091" name="U"/>
  <outline>
    <contour>
      <point x="310" y="695" type="line"/>
      <point x="390" y="1020" type="line"/>
      <point x="75" y="1020" type="line"/>
      <point x="155" y="695" type="line"/>
    </contour>
    <contour>
      <point x="390" y="0" type="line"/>
      <point x="310" y="325" type="line"/>
      <point x="155" y="325" type="line"/>
      <point x="75" y="0" type="line"/>
    </contour>
  </outline>
</glyph>
<glyph name="ModCntrdRtHalfRing" format="2">
  <advance width="570"/>
  <unicode hex="02D2"/>
  <outline>
    <contour>
      <point x="90" y="0" type="line"/>
      <point x="324" y="0"/>
      <point x="480" y="166"/>
      <point x="480" y="380" type="curve" smooth="yes"/>
      <point x="480" y="589"/>
      <point x="324" y="760"/>
      <point x="90" y="760" type="curve"/>
      <point x="90" y="580" type="line"/>
      <point x="200" y="580"/>
      <point x="290" y="497"/>
      <point x="290" y="380" type="curve" smooth="yes"/>
      <point x="290" y="257"/>
      <point x="200" y="180"/>
      <point x="90" y="180" type="curve"/>
    </contour>
  </outline>
</glyph>
<glyph name="ModCntrdLftHalfRing" format="2">
  <advance width="570"/>
  <unicode hex="02D3"/>
  <outline>
    <contour>
      <point x="480" y="180" type="line"/>
      <point x="370" y="180"/>
      <point x="280" y="257"/>
      <point x="280" y="380" type="curve" smooth="yes"/>
      <point x="280" y="496"/>
      <point x="370" y="580"/>
      <point x="480" y="580" type="curve"/>
      <point x="480" y="760" type="line"/>
      <point x="246" y="760"/>
      <point x="90" y="589"/>
      <point x="90" y="380" type="curve" smooth="yes"/>
      <point x="90" y="166"/>
      <point x="246" y="0"/>
      <point x="480" y="0" type="curve"/>
    </contour>
  </outline>
</glyph>
<glyph name="ModDwnTack" format="2">
  <advance width="830"/>
  <unicode hex="02D5"/>
  <outline>
    <contour>
      <point x="720" y="600" type="line"/>
      <point x="720" y="750" type="line"/>
      <point x="110" y="750" type="line"/>
      <point x="110" y="600" type="line"/>
      <point x="340" y="600" type="line"/>
      <point x="340" y="260" type="line"/>
      <point x="490" y="260" type="line"/>
      <point x="490" y="600" type="line"/>
    </contour>
  </outline>
</glyph>
<glyph name="ModPlusSgn" format="2">
  <advance width="626"/>
  <unicode hex="02D6"/>
  <outline>
    <contour>
      <point x="388" y="748" type="line"/>
      <point x="238" y="748" type="line"/>
      <point x="238" y="570" type="line"/>
      <point x="60" y="570" type="line"/>
      <point x="60" y="420" type="line"/>
      <point x="238" y="420" type="line"/>
      <point x="238" y="242" type="line"/>
      <point x="388" y="242" type="line"/>
      <point x="388" y="420" type="line"/>
      <point x="566" y="420" type="line"/>
      <point x="566" y="570" type="line"/>
      <point x="388" y="570" type="line"/>
    </contour>
  </outline>
</glyph>
<glyph name="RingAbv" format="2">
  <advance width="490"/>
  <unicode hex="02DA"/>
  <outline>
    <contour>
      <point x="345" y="1400" type="curve" smooth="yes"/>
      <point x="345" y="1340"/>
      <point x="305" y="1305"/>
      <point x="245" y="1305" type="curve" smooth="yes"/>
      <point x="185" y="1305"/>
      <point x="145" y="1340"/>
      <point x="145" y="1400" type="curve" smooth="yes"/>
      <point x="145" y="1460"/>
      <point x="185" y="1495"/>
      <point x="245" y="1495" type="curve" smooth="yes"/>
      <point x="305" y="1495"/>
      <point x="345" y="1460"/>
    </contour>
    <contour>
      <point x="0" y="1400" type="curve" smooth="yes"/>
      <point x="0" y="1260"/>
      <point x="105" y="1160"/>
      <point x="245" y="1160" type="curve" smooth="yes"/>
      <point x="385" y="1160"/>
      <point x="490" y="1260"/>
      <point x="490" y="1400" type="curve" smooth="yes"/>
      <point x="490" y="1540"/>
      <point x="385" y="1640"/>
      <point x="245" y="1640" type="curve" smooth="yes"/>
      <point x="105" y="1640"/>
      <point x="0" y="1540"/>
    </contour>
  </outline>
</glyph>
<glyph name="ModCrossAccent" format="2">
  <advance width="834"/>
  <unicode hex="02DF"/>
  <outline>
    <contour>
      <point x="663" y="1570" type="line"/>
      <point x="419" y="1326" type="line"/>
      <point x="175" y="1570" type="line"/>
      <point x="33" y="1428" type="line"/>
      <point x="277" y="1184" type="line"/>
      <point x="30" y="937" type="line"/>
      <point x="171" y="795" type="line"/>
      <point x="419" y="1043" type="line"/>
      <point x="663" y="799" type="line"/>
      <point x="804" y="940" type="line"/>
      <point x="560" y="1184" type="line"/>
      <point x="804" y="1428" type="line"/>
    </contour>
  </outline>
</glyph>
<glyph name="ModSmRevGlottalStop" format="2">
  <advance width="581"/>
  <unicode hex="02E4"/>
  <anchor x="327" y="615" name="L"/>
  <anchor x="328" y="1395" name="U"/>
  <outline>
    <contour>
      <point x="236" y="680" type="curve"/>
      <point x="425" y="680" type="line"/>
      <point x="417" y="722"/>
      <point x="415" y="743"/>
      <point x="415" y="826" type="curve" smooth="yes"/>
      <point x="415" y="966"/>
      <point x="352" y="1027"/>
      <point x="304" y="1073" type="curve" smooth="yes"/>
      <point x="275" y="1101"/>
      <point x="252" y="1124"/>
      <point x="252" y="1156" type="curve" smooth="yes"/>
      <point x="252" y="1196"/>
      <point x="291" y="1213"/>
      <point x="341" y="1213" type="curve" smooth="yes"/>
      <point x="388" y="1213"/>
      <point x="457" y="1195"/>
      <point x="501" y="1155" type="curve"/>
      <point x="527" y="1298" type="line"/>
      <point x="481" y="1330"/>
      <point x="379" y="1356"/>
      <point x="292" y="1356" type="curve" smooth="yes"/>
      <point x="166" y="1356"/>
      <point x="72" y="1269"/>
      <point x="72" y="1187" type="curve" smooth="yes"/>
      <point x="72" y="1109"/>
      <point x="110" y="1071"/>
      <point x="150" y="1032" type="curve" smooth="yes"/>
      <point x="197" y="987"/>
      <point x="247" y="938"/>
      <point x="247" y="819" type="curve" smooth="yes"/>
      <point x="247" y="740"/>
      <point x="244" y="720"/>
    </contour>
  </outline>
</glyph>
<glyph name="ModVoicing" format="2">
  <advance width="880"/>
  <unicode hex="02EC"/>
  <anchor x="440" y="-600" name="L"/>
  <outline>
    <contour>
      <point x="640" y="-150" type="line"/>
      <point x="440" y="-380" type="line"/>
      <point x="240" y="-150" type="line"/>
      <point x="0" y="-150" type="line"/>
      <point x="290" y="-550" type="line"/>
      <point x="590" y="-550" type="line"/>
      <point x="880" y="-150" type="line"/>
    </contour>
  </outline>
</glyph>
<glyph name="ModUnaspd" format="2">
  <advance width="800"/>
  <unicode hex="02ED"/>
  <outline>
    <contour>
      <point x="760" y="785" type="line"/>
      <point x="760" y="960" type="line"/>
      <point x="40" y="960" type="line"/>
      <point x="40" y="785" type="line"/>
    </contour>
    <contour>
      <point x="760" y="1070" type="line"/>
      <point x="760" y="1245" type="line"/>
      <point x="40" y="1245" type="line"/>
      <point x="40" y="1070" type="line"/>
    </contour>
  </outline>
</glyph>
<glyph name="ModLowRing" format="2">
  <advance width="580"/>
  <unicode hex="02F3"/>
  <outline>
    <contour>
      <point x="390" y="-350" type="curve" smooth="yes"/>
      <point x="390" y="-410"/>
      <point x="350" y="-445"/>
      <point x="290" y="-445" type="curve" smooth="yes"/>
      <point x="230" y="-445"/>
      <point x="190" y="-410"/>
      <point x="190" y="-350" type="curve" smooth="yes"/>
      <point x="190" y="-290"/>
      <point x="230" y="-255"/>
      <point x="290" y="-255" type="curve" smooth="yes"/>
      <point x="350" y="-255"/>
      <point x="390" y="-290"/>
    </contour>
    <contour>
      <point x="45" y="-350" type="curve" smooth="yes"/>
      <point x="45" y="-490"/>
      <point x="150" y="-590"/>
      <point x="290" y="-590" type="curve" smooth="yes"/>
      <point x="430" y="-590"/>
      <point x="535" y="-490"/>
      <point x="535" y="-350" type="curve" smooth="yes"/>
      <point x="535" y="-210"/>
      <point x="430" y="-110"/>
      <point x="290" y="-110" type="curve" smooth="yes"/>
      <point x="150" y="-110"/>
      <point x="45" y="-210"/>
    </contour>
  </outline>
</glyph>
<glyph name="ModLowTilde" format="2">
  <advance width="830"/>
  <unicode hex="02F7"/>
  <outline>
    <contour>
      <point x="155" y="-350" type="line"/>
      <point x="161" y="-308"/>
      <point x="182" y="-260"/>
      <point x="232" y="-260" type="curve" smooth="yes"/>
      <point x="275" y="-260"/>
      <point x="332" y="-276"/>
      <point x="415" y="-311" type="curve" smooth="yes"/>
      <point x="485" y="-341"/>
      <point x="537" y="-360"/>
      <point x="599" y="-360" type="curve" smooth="yes"/>
      <point x="735" y="-360"/>
      <point x="830" y="-233"/>
      <point x="830" y="-60" type="curve"/>
      <point x="675" y="-60" type="line"/>
      <point x="667" y="-102"/>
      <point x="645" y="-150"/>
      <point x="598" y="-150" type="curve" smooth="yes"/>
      <point x="550" y="-150"/>
      <point x="513" y="-132"/>
      <point x="435" y="-103" type="curve" smooth="yes"/>
      <point x="356" y="-74"/>
      <point x="290" y="-50"/>
      <point x="225" y="-50" type="curve" smooth="yes"/>
      <point x="93" y="-50"/>
      <point x="0" y="-191"/>
      <point x="0" y="-350" type="curve"/>
    </contour>
  </outline>
</glyph>
<glyph name="ModLowLftArrw" format="2">
  <advance width="1135"/>
  <unicode hex="02FF"/>
  <outline>
    <contour>
      <point x="575" y="-615" type="line"/>
      <point x="610" y="-520" type="line"/>
      <point x="205" y="-350" type="line"/>
      <point x="1135" y="-350" type="line"/>
      <point x="1135" y="-240" type="line"/>
      <point x="205" y="-240" type="line"/>
      <point x="610" y="-70" type="line"/>
      <point x="575" y="25" type="line"/>
      <point x="0" y="-235" type="line"/>
      <point x="0" y="-355" type="line"/>
    </contour>
  </outline>
</glyph>
<glyph name="CombMacron" format="2">
  <unicode hex="0304"/>
  <anchor x="-570" y="1450" name="U"/>
  <anchor x="-570" y="1100" name="_U"/>
  <outline>
    <contour>
      <point x="-985" y="1220" type="line"/>
      <point x="-155" y="1220" type="line"/>
      <point x="-155" y="1420" type="line"/>
      <point x="-985" y="1420" type="line"/>
    </contour>
  </outline>
</glyph>
<glyph name="CombHookAbv" format="2">
  <unicode hex="0309"/>
  <anchor x="-543" y="1635" name="U"/>
  <anchor x="-543" y="1100" name="_U"/>
  <outline>
    <contour>
      <point x="-470" y="1125" type="line"/>
      <point x="-470" y="1207"/>
      <point x="-469" y="1247"/>
      <point x="-445" y="1290" type="curve" smooth="yes"/>
      <point x="-419" y="1337"/>
      <point x="-325" y="1392"/>
      <point x="-325" y="1485" type="curve" smooth="yes"/>
      <point x="-325" y="1599"/>
      <point x="-427" y="1665"/>
      <point x="-560" y="1665" type="curve" smooth="yes"/>
      <point x="-640" y="1665"/>
      <point x="-707" y="1633"/>
      <point x="-750" y="1595" type="curve"/>
      <point x="-725" y="1470" type="line"/>
      <point x="-685" y="1511"/>
      <point x="-633" y="1530"/>
      <point x="-575" y="1530" type="curve" smooth="yes"/>
      <point x="-518" y="1530"/>
      <point x="-490" y="1509"/>
      <point x="-490" y="1470" type="curve" smooth="yes"/>
      <point x="-490" y="1427"/>
      <point x="-551" y="1380"/>
      <point x="-590" y="1315" type="curve" smooth="yes"/>
      <point x="-617" y="1270"/>
      <point x="-625" y="1210"/>
      <point x="-625" y="1125" type="curve"/>
    </contour>
  </outline>
</glyph>
<glyph name="CombDblVertLineAbv" format="2">
  <unicode hex="030E"/>
  <anchor x="-580" y="1635" name="U"/>
  <anchor x="-580" y="1100" name="_U"/>
  <outline>
    <contour>
      <point x="-620" y="1170" type="line"/>
      <point x="-620" y="1600" type="line"/>
      <point x="-770" y="1600" type="line"/>
      <point x="-770" y="1170" type="line"/>
    </contour>
    <contour>
      <point x="-370" y="1170" type="line"/>
      <point x="-370" y="1600" type="line"/>
      <point x="-520" y="1600" type="line"/>
      <point x="-520" y="1170" type="line"/>
    </contour>
  </outline>
</glyph>
<glyph name="CombDblGrave" format="2">
  <unicode hex="030F"/>
  <anchor x="-588" y="1635" name="U"/>
  <anchor x="-588" y="1100" name="_U"/>
  <outline>
    <contour>
      <point x="-688" y="1600" type="line"/>
      <point x="-388" y="1200" type="line"/>
      <point x="-168" y="1200" type="line"/>
      <point x="-378" y="1600" type="line"/>
    </contour>
    <contour>
      <point x="-1108" y="1600" type="line"/>
      <point x="-808" y="1200" type="line"/>
      <point x="-588" y="1200" type="line"/>
      <point x="-798" y="1600" type="line"/>
    </contour>
  </outline>
</glyph>
<glyph name="CombCandrabindu" format="2">
  <unicode hex="0310"/>
  <anchor x="-580" y="1635" name="U"/>
  <anchor x="-580" y="1100" name="_U"/>
  <outline>
    <contour>
      <point x="-355" y="1560" type="line"/>
      <point x="-378" y="1439"/>
      <point x="-459" y="1340"/>
      <point x="-580" y="1340" type="curve" smooth="yes"/>
      <point x="-700" y="1340"/>
      <point x="-785" y="1439"/>
      <point x="-805" y="1560" type="curve"/>
      <point x="-985" y="1560" type="line"/>
      <point x="-985" y="1366"/>
      <point x="-825" y="1150"/>
      <point x="-580" y="1150" type="curve" smooth="yes"/>
      <point x="-337" y="1150"/>
      <point x="-175" y="1366"/>
      <point x="-175" y="1560" type="curve"/>
    </contour>
    <contour>
      <point x="-730" y="1560" type="curve" smooth="yes"/>
      <point x="-730" y="1479"/>
      <point x="-661" y="1410"/>
      <point x="-580" y="1410" type="curve" smooth="yes"/>
      <point x="-499" y="1410"/>
      <point x="-430" y="1479"/>
      <point x="-430" y="1560" type="curve" smooth="yes"/>
      <point x="-430" y="1641"/>
      <point x="-499" y="1710"/>
      <point x="-580" y="1710" type="curve" smooth="yes"/>
      <point x="-661" y="1710"/>
      <point x="-730" y="1641"/>
    </contour>
  </outline>
</glyph>
<glyph name="CombInvBreve" format="2">
  <unicode hex="0311"/>
  <anchor x="-580" y="1635" name="U"/>
  <anchor x="-580" y="1100" name="_U"/>
  <outline>
    <contour>
      <point x="-175" y="1140" type="line"/>
      <point x="-175" y="1334"/>
      <point x="-337" y="1550"/>
      <point x="-580" y="1550" type="curve" smooth="yes"/>
      <point x="-825" y="1550"/>
      <point x="-985" y="1334"/>
      <point x="-985" y="1140" type="curve"/>
      <point x="-805" y="1140" type="line"/>
      <point x="-785" y="1261"/>
      <point x="-690" y="1350"/>
      <point x="-580" y="1350" type="curve" smooth="yes"/>
      <point x="-469" y="1350"/>
      <point x="-378" y="1261"/>
      <point x="-355" y="1140" type="curve"/>
    </contour>
  </outline>
</glyph>
<glyph name="CombTrndCommaAbv" format="2">
  <unicode hex="0312"/>
  <anchor x="-572" y="1530" name="U"/>
  <anchor x="-572" y="1100" name="_U"/>
  <outline>
    <contour>
      <point x="-440" y="1330" type="line"/>
      <point x="-563" y="1330" type="line"/>
      <point x="-551" y="1405"/>
      <point x="-497" y="1507"/>
      <point x="-454" y="1550" type="curve"/>
      <point x="-570" y="1590" type="line"/>
      <point x="-646" y="1528"/>
      <point x="-720" y="1407"/>
      <point x="-720" y="1295" type="curve" smooth="yes"/>
      <point x="-720" y="1211"/>
      <point x="-659" y="1140"/>
      <point x="-580" y="1140" type="curve" smooth="yes"/>
      <point x="-506" y="1140"/>
      <point x="-463" y="1178"/>
      <point x="-440" y="1235" type="curve"/>
    </contour>
  </outline>
</glyph>
<glyph name="CombCommaAbvRt" format="2">
  <advance width="300"/>
  <unicode hex="0315"/>
  <anchor x="0" y="1000" name="R_"/>
  <outline>
    <contour>
      <point x="65" y="1600" type="line"/>
      <point x="0" y="1170" type="line"/>
      <point x="170" y="1170" type="line"/>
      <point x="300" y="1600" type="line"/>
    </contour>
  </outline>
</glyph>
<glyph name="CombDwnTackBlw" format="2">
  <unicode hex="031E"/>
  <anchor x="-580" y="-500" name="L"/>
  <anchor x="-580" y="-100" name="_L"/>
  <outline>
    <contour>
      <point x="-365" y="-280" type="line"/>
      <point x="-365" y="-165" type="line"/>
      <point x="-795" y="-165" type="line"/>
      <point x="-795" y="-280" type="line"/>
      <point x="-650" y="-280" type="line"/>
      <point x="-650" y="-475" type="line"/>
      <point x="-510" y="-475" type="line"/>
      <point x="-510" y="-280" type="line"/>
    </contour>
  </outline>
</glyph>
<glyph name="CombPalHook" format="2">
  <unicode hex="0321"/>
  <outline>
    <contour>
      <point x="-270" y="-475" type="curve" smooth="yes"/>
      <point x="-120" y="-475"/>
      <point x="0" y="-368"/>
      <point x="0" y="-205" type="curve" smooth="yes"/>
      <point x="0" y="165" type="line"/>
      <point x="-200" y="165" type="line"/>
      <point x="-200" y="-175" type="line" smooth="yes"/>
      <point x="-200" y="-250"/>
      <point x="-248" y="-300"/>
      <point x="-295" y="-300" type="curve" smooth="yes"/>
      <point x="-341" y="-300"/>
      <point x="-392" y="-280"/>
      <point x="-425" y="-255" type="curve"/>
      <point x="-450" y="-430" type="line"/>
      <point x="-407" y="-458"/>
      <point x="-339" y="-475"/>
    </contour>
  </outline>
</glyph>
<glyph name="CombDiaerBlw" format="2">
  <unicode hex="0324"/>
  <anchor x="-580" y="-500" name="L"/>
  <anchor x="-580" y="-100" name="_L"/>
  <outline>
    <contour>
      <point x="-510" y="-310" type="curve" smooth="yes"/>
      <point x="-510" y="-414"/>
      <point x="-436" y="-485"/>
      <point x="-335" y="-485" type="curve" smooth="yes"/>
      <point x="-233" y="-485"/>
      <point x="-160" y="-414"/>
      <point x="-160" y="-310" type="curve" smooth="yes"/>
      <point x="-160" y="-208"/>
      <point x="-233" y="-135"/>
      <point x="-335" y="-135" type="curve" smooth="yes"/>
      <point x="-436" y="-135"/>
      <point x="-510" y="-208"/>
    </contour>
    <contour>
      <point x="-1000" y="-310" type="curve" smooth="yes"/>
      <point x="-1000" y="-414"/>
      <point x="-926" y="-485"/>
      <point x="-825" y="-485" type="curve" smooth="yes"/>
      <point x="-723" y="-485"/>
      <point x="-650" y="-414"/>
      <point x="-650" y="-310" type="curve" smooth="yes"/>
      <point x="-650" y="-208"/>
      <point x="-723" y="-135"/>
      <point x="-825" y="-135" type="curve" smooth="yes"/>
      <point x="-926" y="-135"/>
      <point x="-1000" y="-208"/>
    </contour>
  </outline>
</glyph>
<glyph name="CombRingBlw" format="2">
  <unicode hex="0325"/>
  <anchor x="-580" y="-645" name="L"/>
  <anchor x="-580" y="-100" name="_L"/>
  <outline>
    <contour>
      <point x="-480" y="-350" type="curve" smooth="yes"/>
      <point x="-480" y="-410"/>
      <point x="-520" y="-445"/>
      <point x="-580" y="-445" type="curve" smooth="yes"/>
      <point x="-640" y="-445"/>
      <point x="-680" y="-410"/>
      <point x="-680" y="-350" type="curve" smooth="yes"/>
      <point x="-680" y="-290"/>
      <point x="-640" y="-255"/>
      <point x="-580" y="-255" type="curve" smooth="yes"/>
      <point x="-520" y="-255"/>
      <point x="-480" y="-290"/>
    </contour>
    <contour>
      <point x="-825" y="-350" type="curve" smooth="yes"/>
      <point x="-825" y="-490"/>
      <point x="-720" y="-590"/>
      <point x="-580" y="-590" type="curve" smooth="yes"/>
      <point x="-440" y="-590"/>
      <point x="-335" y="-490"/>
      <point x="-335" y="-350" type="curve" smooth="yes"/>
      <point x="-335" y="-210"/>
      <point x="-440" y="-110"/>
      <point x="-580" y="-110" type="curve" smooth="yes"/>
      <point x="-720" y="-110"/>
      <point x="-825" y="-210"/>
    </contour>
  </outline>
</glyph>
<glyph name="CombCommaBlw" format="2">
  <unicode hex="0326"/>
  <anchor x="-580" y="-550" name="L"/>
  <anchor x="-580" y="-100" name="_L"/>
  <outline>
    <contour>
      <point x="-720" y="-320" type="line"/>
      <point x="-597" y="-320" type="line"/>
      <point x="-609" y="-395"/>
      <point x="-663" y="-497"/>
      <point x="-706" y="-540" type="curve"/>
      <point x="-590" y="-580" type="line"/>
      <point x="-514" y="-518"/>
      <point x="-440" y="-397"/>
      <point x="-440" y="-285" type="curve" smooth="yes"/>
      <point x="-440" y="-201"/>
      <point x="-501" y="-130"/>
      <point x="-580" y="-130" type="curve" smooth="yes"/>
      <point x="-654" y="-130"/>
      <point x="-697" y="-168"/>
      <point x="-720" y="-225" type="curve"/>
    </contour>
  </outline>
</glyph>
<glyph name="CombCedilla" format="2">
  <unicode hex="0327"/>
  <anchor x="-460" y="-530" name="L"/>
  <anchor x="-430" y="0" name="_H"/>
  <outline>
    <contour>
      <point x="-515" y="50" type="line"/>
      <point x="-515" y="-215" type="line"/>
      <point x="-494" y="-205"/>
      <point x="-452" y="-195"/>
      <point x="-415" y="-195" type="curve" smooth="yes"/>
      <point x="-366" y="-195"/>
      <point x="-325" y="-228"/>
      <point x="-325" y="-270" type="curve" smooth="yes"/>
      <point x="-325" y="-325"/>
      <point x="-385" y="-355"/>
      <point x="-445" y="-355" type="curve" smooth="yes"/>
      <point x="-492" y="-355"/>
      <point x="-536" y="-343"/>
      <point x="-565" y="-320" type="curve"/>
      <point x="-575" y="-450" type="line"/>
      <point x="-534" y="-473"/>
      <point x="-472" y="-490"/>
      <point x="-420" y="-490" type="curve" smooth="yes"/>
      <point x="-291" y="-490"/>
      <point x="-155" y="-406"/>
      <point x="-155" y="-270" type="curve" smooth="yes"/>
      <point x="-155" y="-171"/>
      <point x="-221" y="-100"/>
      <point x="-322" y="-100" type="curve" smooth="yes"/>
      <point x="-344" y="-100"/>
      <point x="-357" y="-102"/>
      <point x="-370" y="-105" type="curve"/>
      <point x="-370" y="50" type="line"/>
    </contour>
  </outline>
</glyph>
<glyph name="CombOgonek" format="2">
  <unicode hex="0328"/>
  <anchor x="-415" y="-430" name="L"/>
  <anchor x="-350" y="0" name="_O"/>
  <outline>
    <contour>
      <point x="-630" y="0" type="line"/>
      <point x="-734" y="-50"/>
      <point x="-790" y="-121"/>
      <point x="-790" y="-225" type="curve" smooth="yes"/>
      <point x="-790" y="-345"/>
      <point x="-672" y="-440"/>
      <point x="-530" y="-440" type="curve" smooth="yes"/>
      <point x="-456" y="-440"/>
      <point x="-363" y="-408"/>
      <point x="-305" y="-350" type="curve"/>
      <point x="-335" y="-210" type="line"/>
      <point x="-372" y="-254"/>
      <point x="-467" y="-285"/>
      <point x="-510" y="-285" type="curve" smooth="yes"/>
      <point x="-574" y="-285"/>
      <point x="-615" y="-250"/>
      <point x="-615" y="-185" type="curve" smooth="yes"/>
      <point x="-615" y="-115"/>
      <point x="-563" y="-65"/>
      <point x="-460" y="0" type="curve"/>
    </contour>
  </outline>
</glyph>
<glyph name="CombInvDblArchBlw" format="2">
  <unicode hex="032B"/>
  <anchor x="-570" y="-500" name="L"/>
  <anchor x="-570" y="-100" name="_L"/>
  <outline>
    <contour>
      <point x="-405" y="-190" type="line"/>
      <point x="-390" y="-225"/>
      <point x="-378" y="-266"/>
      <point x="-378" y="-300" type="curve" smooth="yes"/>
      <point x="-378" y="-357"/>
      <point x="-399" y="-397"/>
      <point x="-435" y="-397" type="curve" smooth="yes"/>
      <point x="-475" y="-397"/>
      <point x="-510" y="-362"/>
      <point x="-510" y="-245" type="curve"/>
      <point x="-630" y="-245" type="line"/>
      <point x="-630" y="-362"/>
      <point x="-664" y="-397"/>
      <point x="-705" y="-397" type="curve" smooth="yes"/>
      <point x="-741" y="-397"/>
      <point x="-762" y="-356"/>
      <point x="-762" y="-297" type="curve" smooth="yes"/>
      <point x="-762" y="-264"/>
      <point x="-750" y="-224"/>
      <point x="-735" y="-190" type="curve"/>
      <point x="-825" y="-130" type="line"/>
      <point x="-883" y="-181"/>
      <point x="-913" y="-254"/>
      <point x="-913" y="-324" type="curve" smooth="yes"/>
      <point x="-913" y="-451"/>
      <point x="-839" y="-550"/>
      <point x="-715" y="-550" type="curve" smooth="yes"/>
      <point x="-652" y="-550"/>
      <point x="-590" y="-487"/>
      <point x="-570" y="-425" type="curve"/>
      <point x="-550" y="-487"/>
      <point x="-487" y="-550"/>
      <point x="-415" y="-550" type="curve" smooth="yes"/>
      <point x="-304" y="-550"/>
      <point x="-226" y="-448"/>
      <point x="-226" y="-317" type="curve" smooth="yes"/>
      <point x="-226" y="-251"/>
      <point x="-256" y="-180"/>
      <point x="-315" y="-130" type="curve"/>
    </contour>
  </outline>
</glyph>
<glyph name="CombCaronBlw" format="2">
  <unicode hex="032C"/>
  <anchor x="-580" y="-600" name="L"/>
  <anchor x="-580" y="-100" name="_L"/>
  <outline>
    <contour>
      <point x="-380" y="-150" type="line"/>
      <point x="-580" y="-380" type="line"/>
      <point x="-780" y="-150" type="line"/>
      <point x="-1020" y="-150" type="line"/>
      <point x="-730" y="-550" type="line"/>
      <point x="-430" y="-550" type="line"/>
      <point x="-140" y="-150" type="line"/>
    </contour>
  </outline>
</glyph>
<glyph name="CombCircumBlw" format="2">
  <unicode hex="032D"/>
  <anchor x="-580" y="-600" name="L"/>
  <anchor x="-580" y="-100" name="_L"/>
  <outline>
    <contour>
      <point x="-140" y="-550" type="line"/>
      <point x="-430" y="-150" type="line"/>
      <point x="-730" y="-150" type="line"/>
      <point x="-1020" y="-550" type="line"/>
      <point x="-780" y="-550" type="line"/>
      <point x="-580" y="-320" type="line"/>
      <point x="-380" y="-550" type="line"/>
    </contour>
  </outline>
</glyph>
<glyph name="CombTildeBlw" format="2">
  <unicode hex="0330"/>
  <anchor x="-580" y="-500" name="L"/>
  <anchor x="-580" y="-100" name="_L"/>
  <outline>
    <contour>
      <point x="-830" y="-450" type="line"/>
      <point x="-824" y="-408"/>
      <point x="-803" y="-360"/>
      <point x="-753" y="-360" type="curve" smooth="yes"/>
      <point x="-710" y="-360"/>
      <point x="-653" y="-376"/>
      <point x="-570" y="-411" type="curve" smooth="yes"/>
      <point x="-500" y="-441"/>
      <point x="-448" y="-460"/>
      <point x="-386" y="-460" type="curve" smooth="yes"/>
      <point x="-250" y="-460"/>
      <point x="-155" y="-333"/>
      <point x="-155" y="-160" type="curve"/>
      <point x="-310" y="-160" type="line"/>
      <point x="-318" y="-202"/>
      <point x="-340" y="-250"/>
      <point x="-387" y="-250" type="curve" smooth="yes"/>
      <point x="-435" y="-250"/>
      <point x="-472" y="-232"/>
      <point x="-550" y="-203" type="curve" smooth="yes"/>
      <point x="-629" y="-174"/>
      <point x="-695" y="-150"/>
      <point x="-760" y="-150" type="curve" smooth="yes"/>
      <point x="-892" y="-150"/>
      <point x="-985" y="-291"/>
      <point x="-985" y="-450" type="curve"/>
    </contour>
  </outline>
</glyph>
<glyph name="CombLngStrkOverlay" format="2">
  <unicode hex="0336"/>
  <outline>
    <contour>
      <point x="0" y="415" type="line"/>
      <point x="0" y="605" type="line"/>
      <point x="-1155" y="605" type="line"/>
      <point x="-1155" y="415" type="line"/>
    </contour>
  </outline>
</glyph>
<glyph name="CombRtHalfRingBlw" format="2">
  <unicode hex="0339"/>
  <anchor x="-560" y="-500" name="L"/>
  <anchor x="-560" y="-100" name="_L"/>
  <outline>
    <contour>
      <point x="-420" y="-320" type="curve" smooth="yes"/>
      <point x="-420" y="-204"/>
      <point x="-518" y="-105"/>
      <point x="-655" y="-105" type="curve"/>
      <point x="-655" y="-215" type="line"/>
      <point x="-597" y="-215"/>
      <point x="-540" y="-253"/>
      <point x="-540" y="-320" type="curve" smooth="yes"/>
      <point x="-540" y="-387"/>
      <point x="-597" y="-430"/>
      <point x="-655" y="-430" type="curve"/>
      <point x="-655" y="-540" type="line"/>
      <point x="-518" y="-540"/>
      <point x="-420" y="-436"/>
    </contour>
  </outline>
</glyph>
<glyph name="CombSqrBlw" format="2">
  <unicode hex="033B"/>
  <anchor x="-570" y="-500" name="L"/>
  <anchor x="-570" y="-100" name="_L"/>
  <outline>
    <contour>
      <point x="-280" y="-535" type="line"/>
      <point x="-280" y="-110" type="line"/>
      <point x="-860" y="-110" type="line"/>
      <point x="-860" y="-535" type="line"/>
    </contour>
    <contour>
      <point x="-400" y="-415" type="line"/>
      <point x="-740" y="-415" type="line"/>
      <point x="-740" y="-230" type="line"/>
      <point x="-400" y="-230" type="line"/>
    </contour>
  </outline>
</glyph>
<glyph name="CombSeagullBlw" format="2">
  <unicode hex="033C"/>
  <anchor x="-580" y="-500" name="L"/>
  <anchor x="-580" y="-100" name="_L"/>
  <outline>
    <contour>
      <point x="-215" y="-410" type="line"/>
      <point x="-215" y="-232"/>
      <point x="-313" y="-150"/>
      <point x="-425" y="-150" type="curve" smooth="yes"/>
      <point x="-497" y="-150"/>
      <point x="-540" y="-173"/>
      <point x="-580" y="-235" type="curve"/>
      <point x="-620" y="-173"/>
      <point x="-662" y="-150"/>
      <point x="-735" y="-150" type="curve" smooth="yes"/>
      <point x="-852" y="-150"/>
      <point x="-945" y="-232"/>
      <point x="-945" y="-410" type="curve"/>
      <point x="-825" y="-410" type="line"/>
      <point x="-825" y="-337"/>
      <point x="-790" y="-290"/>
      <point x="-735" y="-290" type="curve" smooth="yes"/>
      <point x="-689" y="-290"/>
      <point x="-660" y="-308"/>
      <point x="-640" y="-365" type="curve"/>
      <point x="-520" y="-365" type="line"/>
      <point x="-502" y="-308"/>
      <point x="-480" y="-290"/>
      <point x="-425" y="-290" type="curve" smooth="yes"/>
      <point x="-369" y="-290"/>
      <point x="-335" y="-337"/>
      <point x="-335" y="-410" type="curve"/>
    </contour>
  </outline>
</glyph>
<glyph name="CombXAbv" format="2">
  <unicode hex="033D"/>
  <anchor x="-571" y="1635" name="U"/>
  <anchor x="-571" y="1100" name="_U"/>
  <outline>
    <contour>
      <point x="-498" y="1151" type="line"/>
      <point x="-353" y="1151" type="line"/>
      <point x="-394" y="1200"/>
      <point x="-412" y="1223"/>
      <point x="-434" y="1254" type="curve" smooth="yes"/>
      <point x="-643" y="1539" type="line"/>
      <point x="-789" y="1539" type="line"/>
      <point x="-748" y="1488"/>
      <point x="-735" y="1471"/>
      <point x="-709" y="1436" type="curve" smooth="yes"/>
    </contour>
    <contour>
      <point x="-618" y="1385" type="line"/>
      <point x="-715" y="1254" type="line" smooth="yes"/>
      <point x="-734" y="1228"/>
      <point x="-751" y="1206"/>
      <point x="-792" y="1151" type="curve"/>
      <point x="-657" y="1151" type="line"/>
      <point x="-566" y="1288" type="line"/>
    </contour>
    <contour>
      <point x="-531" y="1305" type="line"/>
      <point x="-436" y="1436" type="line" smooth="yes"/>
      <point x="-415" y="1465"/>
      <point x="-397" y="1488"/>
      <point x="-358" y="1539" type="curve"/>
      <point x="-494" y="1539" type="line"/>
      <point x="-582" y="1405" type="line"/>
    </contour>
  </outline>
</glyph>
<glyph name="CombDblVertLineBlw" format="2">
  <unicode hex="0348"/>
  <anchor x="-570" y="-500" name="L"/>
  <anchor x="-570" y="-100" name="_L"/>
  <outline>
    <contour>
      <point x="-620" y="-580" type="line"/>
      <point x="-620" y="-150" type="line"/>
      <point x="-770" y="-150" type="line"/>
      <point x="-770" y="-580" type="line"/>
    </contour>
    <contour>
      <point x="-370" y="-580" type="line"/>
      <point x="-370" y="-150" type="line"/>
      <point x="-520" y="-150" type="line"/>
      <point x="-520" y="-580" type="line"/>
    </contour>
  </outline>
</glyph>
<glyph name="CombLftAngBlw" format="2">
  <unicode hex="0349"/>
  <anchor x="-590" y="-500" name="L"/>
  <anchor x="-590" y="-100" name="_L"/>
  <outline>
    <contour>
      <point x="-395" y="-550" type="line"/>
      <point x="-395" y="-150" type="line"/>
      <point x="-790" y="-150" type="line"/>
      <point x="-790" y="-280" type="line"/>
      <point x="-525" y="-280" type="line"/>
      <point x="-525" y="-550" type="line"/>
    </contour>
  </outline>
</glyph>
<glyph name="CombAlmostEqToAbv" format="2">
  <unicode hex="034C"/>
  <anchor x="-570" y="1735" name="U"/>
  <anchor x="-570" y="1100" name="_U"/>
  <outline>
    <contour>
      <point x="-129" y="1455" type="line"/>
      <point x="-204" y="1376"/>
      <point x="-287" y="1330"/>
      <point x="-363" y="1330" type="curve" smooth="yes"/>
      <point x="-480" y="1330"/>
      <point x="-633" y="1427"/>
      <point x="-759" y="1427" type="curve" smooth="yes"/>
      <point x="-850" y="1427"/>
      <point x="-960" y="1390"/>
      <point x="-1011" y="1320" type="curve"/>
      <point x="-1011" y="1135" type="line"/>
      <point x="-936" y="1224"/>
      <point x="-853" y="1260"/>
      <point x="-777" y="1260" type="curve" smooth="yes"/>
      <point x="-660" y="1260"/>
      <point x="-507" y="1163"/>
      <point x="-381" y="1163" type="curve" smooth="yes"/>
      <point x="-290" y="1163"/>
      <point x="-188" y="1199"/>
      <point x="-129" y="1270" type="curve"/>
    </contour>
    <contour>
      <point x="-129" y="1716" type="line"/>
      <point x="-204" y="1637"/>
      <point x="-287" y="1591"/>
      <point x="-363" y="1591" type="curve" smooth="yes"/>
      <point x="-480" y="1591"/>
      <point x="-633" y="1688"/>
      <point x="-759" y="1688" type="curve" smooth="yes"/>
      <point x="-850" y="1688"/>
      <point x="-960" y="1651"/>
      <point x="-1011" y="1581" type="curve"/>
      <point x="-1011" y="1396" type="line"/>
      <point x="-936" y="1485"/>
      <point x="-853" y="1521"/>
      <point x="-777" y="1521" type="curve" smooth="yes"/>
      <point x="-660" y="1521"/>
      <point x="-507" y="1424"/>
      <point x="-381" y="1424" type="curve" smooth="yes"/>
      <point x="-290" y="1424"/>
      <point x="-188" y="1460"/>
      <point x="-129" y="1531" type="curve"/>
    </contour>
  </outline>
</glyph>
<glyph name="CombLftRtArrwBlw" format="2">
  <unicode hex="034D"/>
  <anchor x="-580" y="-500" name="L"/>
  <anchor x="-580" y="-100" name="_L"/>
  <outline>
    <contour>
      <point x="-355" y="-315" type="line"/>
      <point x="-385" y="-380" type="line"/>
      <point x="-360" y="-420" type="line"/>
      <point x="-205" y="-260" type="line"/>
      <point x="-360" y="-105" type="line"/>
      <point x="-385" y="-145" type="line"/>
      <point x="-355" y="-205" type="line"/>
      <point x="-795" y="-205" type="line"/>
      <point x="-765" y="-145" type="line"/>
      <point x="-790" y="-105" type="line"/>
      <point x="-945" y="-260" type="line"/>
      <point x="-790" y="-420" type="line"/>
      <point x="-765" y="-380" type="line"/>
      <point x="-795" y="-315" type="line"/>
    </contour>
  </outline>
</glyph>
<glyph name="CombUpArrwBlw" format="2">
  <unicode hex="034E"/>
  <anchor x="-580" y="-500" name="L"/>
  <anchor x="-580" y="-100" name="_L"/>
  <outline>
    <contour>
      <point x="-525" y="-530" type="line"/>
      <point x="-525" y="-285" type="line"/>
      <point x="-460" y="-315" type="line"/>
      <point x="-420" y="-290" type="line"/>
      <point x="-580" y="-135" type="line"/>
      <point x="-735" y="-290" type="line"/>
      <point x="-695" y="-315" type="line"/>
      <point x="-635" y="-285" type="line"/>
      <point x="-635" y="-530" type="line"/>
    </contour>
  </outline>
</glyph>
<glyph name="CombFermata" format="2">
  <unicode hex="0352"/>
  <anchor x="-580" y="1671" name="U"/>
  <anchor x="-580" y="1100" name="_U"/>
  <outline>
    <contour>
      <point x="-175" y="1275" type="line"/>
      <point x="-175" y="1469"/>
      <point x="-337" y="1685"/>
      <point x="-580" y="1685" type="curve" smooth="yes"/>
      <point x="-825" y="1685"/>
      <point x="-985" y="1469"/>
      <point x="-985" y="1275" type="curve"/>
      <point x="-805" y="1275" type="line"/>
      <point x="-785" y="1396"/>
      <point x="-700" y="1495"/>
      <point x="-580" y="1495" type="curve" smooth="yes"/>
      <point x="-459" y="1495"/>
      <point x="-378" y="1396"/>
      <point x="-355" y="1275" type="curve"/>
    </contour>
    <contour>
      <point x="-730" y="1275" type="curve" smooth="yes"/>
      <point x="-730" y="1194"/>
      <point x="-661" y="1125"/>
      <point x="-580" y="1125" type="curve" smooth="yes"/>
      <point x="-499" y="1125"/>
      <point x="-430" y="1194"/>
      <point x="-430" y="1275" type="curve" smooth="yes"/>
      <point x="-430" y="1356"/>
      <point x="-499" y="1425"/>
      <point x="-580" y="1425" type="curve" smooth="yes"/>
      <point x="-661" y="1425"/>
      <point x="-730" y="1356"/>
    </contour>
  </outline>
</glyph>
<glyph name="CombRtDotAbv" format="2">
  <advance width="365"/>
  <unicode hex="0358"/>
  <anchor x="0" y="1000" name="R_"/>
  <anchor x="175" y="1530" name="U"/>
  <outline>
    <contour>
      <point x="0" y="1345" type="curve" smooth="yes"/>
      <point x="0" y="1241"/>
      <point x="74" y="1170"/>
      <point x="175" y="1170" type="curve" smooth="yes"/>
      <point x="277" y="1170"/>
      <point x="350" y="1241"/>
      <point x="350" y="1345" type="curve" smooth="yes"/>
      <point x="350" y="1447"/>
      <point x="277" y="1520"/>
      <point x="175" y="1520" type="curve" smooth="yes"/>
      <point x="74" y="1520"/>
      <point x="0" y="1447"/>
    </contour>
  </outline>
</glyph>
<glyph name="CombDblRingBlw" format="2">
  <unicode hex="035A"/>
  <anchor x="-580" y="-645" name="L"/>
  <anchor x="-580" y="-100" name="_L"/>
  <outline>
    <contour>
      <point x="-998" y="-350" type="curve" smooth="yes"/>
      <point x="-998" y="-490"/>
      <point x="-893" y="-590"/>
      <point x="-753" y="-590" type="curve" smooth="yes"/>
      <point x="-684" y="-590"/>
      <point x="-624" y="-566"/>
      <point x="-580" y="-525" type="curve"/>
      <point x="-537" y="-566"/>
      <point x="-476" y="-590"/>
      <point x="-408" y="-590" type="curve" smooth="yes"/>
      <point x="-268" y="-590"/>
      <point x="-163" y="-490"/>
      <point x="-163" y="-350" type="curve" smooth="yes"/>
      <point x="-163" y="-210"/>
      <point x="-268" y="-110"/>
      <point x="-408" y="-110" type="curve" smooth="yes"/>
      <point x="-476" y="-110"/>
      <point x="-537" y="-134"/>
      <point x="-580" y="-175" type="curve"/>
      <point x="-624" y="-134"/>
      <point x="-684" y="-110"/>
      <point x="-753" y="-110" type="curve" smooth="yes"/>
      <point x="-893" y="-110"/>
      <point x="-998" y="-210"/>
    </contour>
    <contour>
      <point x="-308" y="-350" type="curve" smooth="yes"/>
      <point x="-308" y="-410"/>
      <point x="-348" y="-445"/>
      <point x="-408" y="-445" type="curve" smooth="yes"/>
      <point x="-466" y="-445"/>
      <point x="-508" y="-412"/>
      <point x="-508" y="-350" type="curve" smooth="yes"/>
      <point x="-508" y="-288"/>
      <point x="-466" y="-255"/>
      <point x="-408" y="-255" type="curve" smooth="yes"/>
      <point x="-348" y="-255"/>
      <point x="-308" y="-290"/>
    </contour>
    <contour>
      <point x="-653" y="-350" type="curve" smooth="yes"/>
      <point x="-653" y="-412"/>
      <point x="-694" y="-445"/>
      <point x="-753" y="-445" type="curve" smooth="yes"/>
      <point x="-813" y="-445"/>
      <point x="-853" y="-410"/>
      <point x="-853" y="-350" type="curve" smooth="yes"/>
      <point x="-853" y="-290"/>
      <point x="-813" y="-255"/>
      <point x="-753" y="-255" type="curve" smooth="yes"/>
      <point x="-693" y="-255"/>
      <point x="-653" y="-290"/>
    </contour>
  </outline>
</glyph>
<glyph name="CombDblBreveBlw" format="2">
  <unicode hex="035C"/>
  <anchor x="0" y="-850" name="L"/>
  <outline>
    <contour>
      <point x="-965" y="-622" type="line"/>
      <point x="-720" y="-792"/>
      <point x="-380" y="-842"/>
      <point x="0" y="-842" type="curve" smooth="yes"/>
      <point x="380" y="-842"/>
      <point x="720" y="-792"/>
      <point x="965" y="-622" type="curve"/>
      <point x="910" y="-442" type="line"/>
      <point x="710" y="-572"/>
      <point x="380" y="-622"/>
      <point x="0" y="-622" type="curve" smooth="yes"/>
      <point x="-380" y="-622"/>
      <point x="-710" y="-572"/>
      <point x="-910" y="-442" type="curve"/>
    </contour>
  </outline>
</glyph>
<glyph name="CombDblBreve" format="2">
  <unicode hex="035D"/>
  <anchor x="0" y="-500" name="L"/>
  <anchor x="0" y="2110" name="U"/>
  <outline>
    <contour>
      <point x="0" y="1770" type="curve" smooth="yes"/>
      <point x="350" y="1770"/>
      <point x="670" y="1840"/>
      <point x="945" y="2000" type="curve"/>
      <point x="870" y="2180" type="line"/>
      <point x="630" y="2050"/>
      <point x="330" y="1990"/>
      <point x="0" y="1990" type="curve" smooth="yes"/>
      <point x="-330" y="1990"/>
      <point x="-630" y="2050"/>
      <point x="-870" y="2180" type="curve"/>
      <point x="-945" y="2000" type="line"/>
      <point x="-670" y="1840"/>
      <point x="-350" y="1770"/>
    </contour>
  </outline>
</glyph>
<glyph name="CombDblMacron" format="2">
  <unicode hex="035E"/>
  <anchor x="-4" y="-100" name="L"/>
  <anchor x="0" y="1450" name="U"/>
  <outline>
    <contour>
      <point x="790" y="1220" type="line"/>
      <point x="790" y="1420" type="line"/>
      <point x="-790" y="1420" type="line"/>
      <point x="-790" y="1220" type="line"/>
    </contour>
  </outline>
</glyph>
<glyph name="CombDblTilde" format="2">
  <unicode hex="0360"/>
  <anchor x="0" y="-500" name="L"/>
  <anchor x="0" y="1960" name="U"/>
  <outline>
    <contour>
      <point x="-860" y="1670" type="line"/>
      <point x="-757" y="1770"/>
      <point x="-640" y="1830"/>
      <point x="-484" y="1830" type="curve" smooth="yes"/>
      <point x="-304" y="1830"/>
      <point x="-140" y="1793"/>
      <point x="0" y="1755" type="curve" smooth="yes"/>
      <point x="134" y="1718"/>
      <point x="294" y="1680"/>
      <point x="467" y="1680" type="curve" smooth="yes"/>
      <point x="631" y="1680"/>
      <point x="808" y="1750"/>
      <point x="910" y="1850" type="curve"/>
      <point x="860" y="2030" type="line"/>
      <point x="758" y="1930"/>
      <point x="648" y="1870"/>
      <point x="484" y="1870" type="curve" smooth="yes"/>
      <point x="304" y="1870"/>
      <point x="140" y="1907"/>
      <point x="0" y="1945" type="curve" smooth="yes"/>
      <point x="-134" y="1982"/>
      <point x="-294" y="2020"/>
      <point x="-467" y="2020" type="curve" smooth="yes"/>
      <point x="-631" y="2020"/>
      <point x="-808" y="1950"/>
      <point x="-910" y="1850" type="curve"/>
    </contour>
  </outline>
</glyph>
<glyph name="CombDblInvBreve" format="2">
  <unicode hex="0361"/>
  <anchor x="0" y="-500" name="L"/>
  <anchor x="0" y="2180" name="U"/>
  <outline>
    <contour>
      <point x="-870" y="1740" type="line"/>
      <point x="-630" y="1870"/>
      <point x="-330" y="1930"/>
      <point x="0" y="1930" type="curve" smooth="yes"/>
      <point x="330" y="1930"/>
      <point x="630" y="1870"/>
      <point x="870" y="1740" type="curve"/>
      <point x="945" y="1920" type="line"/>
      <point x="670" y="2080"/>
      <point x="350" y="2150"/>
      <point x="0" y="2150" type="curve" smooth="yes"/>
      <point x="-350" y="2150"/>
      <point x="-670" y="2080"/>
      <point x="-945" y="1920" type="curve"/>
    </contour>
  </outline>
</glyph>
<glyph name="CombDblRtArrwBlw" format="2">
  <unicode hex="0362"/>
  <anchor x="0" y="-1000" name="L"/>
  <anchor x="0" y="1100" name="U"/>
  <outline>
    <contour>
      <point x="920" y="-860" type="line"/>
      <point x="920" y="-740" type="line"/>
      <point x="345" y="-480" type="line"/>
      <point x="300" y="-595" type="line"/>
      <point x="615" y="-725" type="line"/>
      <point x="-920" y="-725" type="line"/>
      <point x="-920" y="-875" type="line"/>
      <point x="615" y="-875" type="line"/>
      <point x="300" y="-1005" type="line"/>
      <point x="345" y="-1120" type="line"/>
    </contour>
  </outline>
</glyph>
<glyph name="CombLtnSmA.SngStory" format="2">
  <unicode hex="0363"/>
  <anchor x="-580" y="1880" name="U"/>
  <anchor x="-580" y="1100" name="_U"/>
  <outline>
    <contour>
      <point x="-242" y="1163" type="line"/>
      <point x="-266" y="1229"/>
      <point x="-283" y="1326"/>
      <point x="-283" y="1473" type="curve" smooth="yes"/>
      <point x="-283" y="1745" type="line"/>
      <point x="-355" y="1761"/>
      <point x="-449" y="1772"/>
      <point x="-540" y="1772" type="curve" smooth="yes"/>
      <point x="-801" y="1772"/>
      <point x="-916" y="1589"/>
      <point x="-916" y="1403" type="curve" smooth="yes"/>
      <point x="-916" y="1238"/>
      <point x="-833" y="1149"/>
      <point x="-727" y="1149" type="curve" smooth="yes"/>
      <point x="-596" y="1149"/>
      <point x="-491" y="1268"/>
      <point x="-444" y="1368" type="curve"/>
      <point x="-444" y="1335" type="line" smooth="yes"/>
      <point x="-444" y="1292"/>
      <point x="-428" y="1191"/>
      <point x="-409" y="1163" type="curve"/>
    </contour>
    <contour>
      <point x="-463" y="1590" type="line" smooth="yes"/>
      <point x="-463" y="1524"/>
      <point x="-583" y="1288"/>
      <point x="-671" y="1288" type="curve" smooth="yes"/>
      <point x="-709" y="1288"/>
      <point x="-740" y="1335"/>
      <point x="-740" y="1403" type="curve" smooth="yes"/>
      <point x="-740" y="1525"/>
      <point x="-700" y="1641"/>
      <point x="-567" y="1641" type="curve" smooth="yes"/>
      <point x="-513" y="1641"/>
      <point x="-481" y="1633"/>
      <point x="-463" y="1629" type="curve"/>
    </contour>
  </outline>
</glyph>
<glyph name="CombLtnSmO" format="2">
  <unicode hex="0366"/>
  <anchor x="-580" y="1880" name="U"/>
  <anchor x="-580" y="1100" name="_U"/>
  <outline>
    <contour>
      <point x="-892" y="1460" type="curve" smooth="yes"/>
      <point x="-892" y="1259"/>
      <point x="-767" y="1149"/>
      <point x="-589" y="1149" type="curve" smooth="yes"/>
      <point x="-419" y="1149"/>
      <point x="-274" y="1259"/>
      <point x="-274" y="1460" type="curve" smooth="yes"/>
      <point x="-274" y="1661"/>
      <point x="-398" y="1772"/>
      <point x="-577" y="1772" type="curve" smooth="yes"/>
      <point x="-747" y="1772"/>
      <point x="-892" y="1661"/>
    </contour>
    <contour>
      <point x="-715" y="1460" type="curve" smooth="yes"/>
      <point x="-715" y="1572"/>
      <point x="-664" y="1640"/>
      <point x="-583" y="1640" type="curve" smooth="yes"/>
      <point x="-497" y="1640"/>
      <point x="-451" y="1572"/>
      <point x="-451" y="1460" type="curve" smooth="yes"/>
      <point x="-451" y="1348"/>
      <point x="-502" y="1280"/>
      <point x="-583" y="1280" type="curve" smooth="yes"/>
      <point x="-669" y="1280"/>
      <point x="-715" y="1348"/>
    </contour>
  </outline>
</glyph>
<glyph name="CombLtnSmU" format="2">
  <unicode hex="0367"/>
  <anchor x="-580" y="1880" name="U"/>
  <anchor x="-580" y="1100" name="_U"/>
  <outline>
    <contour>
      <point x="-242" y="1163" type="line"/>
      <point x="-269" y="1229"/>
      <point x="-283" y="1313"/>
      <point x="-283" y="1427" type="curve"/>
      <point x="-283" y="1760" type="line"/>
      <point x="-472" y="1760" type="line"/>
      <point x="-461" y="1689"/>
      <point x="-459" y="1650"/>
      <point x="-460" y="1573" type="curve" smooth="yes"/>
      <point x="-460" y="1408" type="line"/>
      <point x="-485" y="1354"/>
      <point x="-563" y="1284"/>
      <point x="-620" y="1284" type="curve" smooth="yes"/>
      <point x="-684" y="1284"/>
      <point x="-705" y="1330"/>
      <point x="-705" y="1435" type="curve"/>
      <point x="-705" y="1760" type="line"/>
      <point x="-894" y="1760" type="line"/>
      <point x="-883" y="1690"/>
      <point x="-882" y="1647"/>
      <point x="-882" y="1573" type="curve" smooth="yes"/>
      <point x="-882" y="1562"/>
      <point x="-882" y="1411"/>
      <point x="-882" y="1400" type="curve" smooth="yes"/>
      <point x="-882" y="1234"/>
      <point x="-815" y="1149"/>
      <point x="-684" y="1149" type="curve" smooth="yes"/>
      <point x="-598" y="1149"/>
      <point x="-518" y="1191"/>
      <point x="-444" y="1272" type="curve"/>
      <point x="-437" y="1231"/>
      <point x="-421" y="1189"/>
      <point x="-409" y="1163" type="curve"/>
    </contour>
  </outline>
</glyph>
<glyph name="CombLtnSmC" format="2">
  <unicode hex="0368"/>
  <anchor x="-580" y="1880" name="U"/>
  <anchor x="-580" y="1100" name="_U"/>
  <outline>
    <contour>
      <point x="-570" y="1149" type="curve" smooth="yes"/>
      <point x="-476" y="1149"/>
      <point x="-410" y="1169"/>
      <point x="-346" y="1205" type="curve"/>
      <point x="-365" y="1348" type="line"/>
      <point x="-420" y="1307"/>
      <point x="-470" y="1284"/>
      <point x="-545" y="1284" type="curve" smooth="yes"/>
      <point x="-640" y="1284"/>
      <point x="-701" y="1353"/>
      <point x="-701" y="1457" type="curve" smooth="yes"/>
      <point x="-701" y="1570"/>
      <point x="-633" y="1638"/>
      <point x="-545" y="1638" type="curve" smooth="yes"/>
      <point x="-481" y="1638"/>
      <point x="-437" y="1620"/>
      <point x="-381" y="1584" type="curve"/>
      <point x="-353" y="1730" type="line"/>
      <point x="-399" y="1753"/>
      <point x="-465" y="1773"/>
      <point x="-548" y="1773" type="curve" smooth="yes"/>
      <point x="-748" y="1773"/>
      <point x="-877" y="1633"/>
      <point x="-877" y="1451" type="curve" smooth="yes"/>
      <point x="-877" y="1258"/>
      <point x="-739" y="1149"/>
    </contour>
  </outline>
</glyph>
